<svg width="26" height="26" viewBox="0 0 26 26" fill="none" xmlns="http://www.w3.org/2000/svg">
<mask id="mask0_350_23787" style="mask-type:alpha" maskUnits="userSpaceOnUse" x="0" y="0" width="26" height="26">
<rect width="26" height="26" fill="#D9D9D9"/>
</mask>
<g mask="url(#mask0_350_23787)">
<path d="M11.8728 15.2375L10.1478 13.4958C9.97975 13.3278 9.7867 13.2437 9.56866 13.2437C9.3506 13.2437 9.15755 13.3278 8.98951 13.4958C8.8284 13.6569 8.7461 13.851 8.74262 14.0781C8.73915 14.3052 8.81242 14.4937 8.96242 14.6437L11.1874 16.8687C11.3832 17.0645 11.6117 17.1624 11.8728 17.1624C12.1339 17.1624 12.3624 17.0645 12.5582 16.8687L17.0478 12.3958C17.2159 12.2277 17.2999 12.0347 17.2999 11.8166C17.2999 11.5986 17.2159 11.4055 17.0478 11.2375C16.8867 11.0764 16.6926 10.9941 16.4655 10.9906C16.2385 10.9871 16.0499 11.0604 15.8999 11.2104L11.8728 15.2375ZM13.0103 23.2916C11.7326 23.2916 10.5353 23.0499 9.41867 22.5666C8.30201 22.0833 7.3284 21.4263 6.49784 20.5958C5.66729 19.7652 5.01034 18.7916 4.52701 17.675C4.04368 16.5583 3.80202 15.3611 3.80202 14.0833C3.80202 12.8055 4.04368 11.6083 4.52701 10.4916C5.01034 9.37498 5.66729 8.40137 6.49784 7.57082C7.3284 6.74028 8.30201 6.08335 9.41867 5.60002C10.5353 5.11667 11.7326 4.875 13.0103 4.875C14.2881 4.875 15.4853 5.11667 16.602 5.60002C17.7186 6.08335 18.6922 6.74028 19.5228 7.57082C20.3533 8.40137 21.0103 9.37498 21.4936 10.4916C21.9769 11.6083 22.2186 12.8055 22.2186 14.0833C22.2186 15.3611 21.9769 16.5583 21.4936 17.675C21.0103 18.7916 20.3533 19.7652 19.5228 20.5958C18.6922 21.4263 17.7186 22.0833 16.602 22.5666C15.4853 23.0499 14.2881 23.2916 13.0103 23.2916ZM3.74157 7.91456C3.59156 8.06454 3.40581 8.13502 3.1843 8.126C2.96278 8.11697 2.77702 8.03746 2.62701 7.88747C2.47007 7.73054 2.3916 7.54026 2.3916 7.31664C2.3916 7.09304 2.47007 6.90277 2.62701 6.74583L5.69994 3.6729C5.84993 3.52291 6.03568 3.45243 6.25721 3.46146C6.47873 3.47049 6.66448 3.55 6.81447 3.69998C6.97141 3.85694 7.04988 4.04722 7.04988 4.27082C7.04988 4.49442 6.97141 4.68469 6.81447 4.84163L3.74157 7.91456ZM22.252 7.88747L19.1791 4.81455C19.0291 4.66456 18.9586 4.4788 18.9676 4.25728C18.9766 4.03575 19.0561 3.84999 19.2062 3.69998C19.3631 3.54305 19.5534 3.46458 19.777 3.46458C20.0006 3.46458 20.1909 3.54305 20.3478 3.69998L23.4207 6.77291C23.5707 6.9229 23.6412 7.10866 23.6322 7.33018C23.6231 7.5517 23.5436 7.73747 23.3936 7.88747C23.2367 8.04441 23.0464 8.12288 22.8228 8.12288C22.5992 8.12288 22.4089 8.04441 22.252 7.88747ZM13.0103 21.6666C15.1159 21.6666 16.9061 20.9291 18.3811 19.4541C19.8562 17.9791 20.5937 16.1888 20.5937 14.0833C20.5937 11.9778 19.8562 10.1875 18.3811 8.71246C16.9061 7.23746 15.1159 6.49997 13.0103 6.49997C10.9048 6.49997 9.11448 7.23746 7.63948 8.71246C6.16449 10.1875 5.42699 11.9778 5.42699 14.0833C5.42699 16.1888 6.16449 17.9791 7.63948 19.4541C9.11448 20.9291 10.9048 21.6666 13.0103 21.6666Z" fill="#1C1B1F"/>
</g>
</svg>
