<svg width="23" height="24" viewBox="0 0 23 24" fill="none" xmlns="http://www.w3.org/2000/svg">
<g clip-path="url(#clip0_350_24375)">
<path d="M21.0806 22.2617C20.2344 23.1079 19.1421 23.5387 17.9729 23.631C16.5575 23.7233 15.1267 23.7079 13.7113 23.7079C9.72671 23.7079 5.46517 23.6617 1.7421 22.0925C0.942097 21.754 0.342097 21.431 0.280559 20.4771C0.203636 19.3848 0.111328 18.2617 0.111328 17.1694C0.111328 14.8002 1.00364 12.7079 1.92671 10.5848C2.80364 8.53867 3.68056 6.5079 4.60364 4.47713C4.77287 4.12328 4.91133 3.72328 5.12671 3.4002C5.4344 2.92328 5.9421 2.55405 6.35748 2.18482C6.9421 1.66174 7.51133 1.12328 8.12671 0.630975C8.8344 0.0771285 9.43441 0.338667 10.0806 0.81559C10.5267 1.15405 10.9883 1.47713 11.4344 1.83097C11.8036 2.12328 12.3575 2.43097 12.5575 2.87713C12.7113 3.20021 12.6344 3.52328 12.5113 3.84636C12.4652 3.96944 12.2498 4.26174 12.2806 4.38482C12.3113 4.53867 12.5575 4.7079 12.5883 4.92328C12.6344 5.23097 12.5421 5.61559 12.3575 5.84636C12.0498 6.23097 11.619 6.13867 11.1729 6.24636C10.6036 6.38482 10.1421 6.75405 9.55748 6.89251C9.15748 6.98482 8.48056 6.78482 8.1421 6.95405C7.80364 7.12328 7.57287 7.86174 7.44979 8.18482C7.24979 8.66174 7.09594 9.16944 6.97287 9.67713C6.71133 10.7848 6.64979 11.9233 6.71133 13.0617C6.7421 13.6771 6.80364 14.3079 6.84979 14.9233C6.89594 15.5233 6.81902 16.3387 7.01902 16.9079C7.40364 16.7848 7.78825 16.2464 8.1421 16.0156C8.57287 15.7387 9.04979 15.5079 9.5421 15.3541C10.4652 15.0617 11.4652 14.9848 12.4344 15.1694C12.9267 15.2617 13.3883 15.4156 13.8498 15.6156C14.4498 15.8925 14.3267 15.9541 14.7883 15.5079C15.5113 14.8156 16.419 14.3387 17.419 14.2617C19.2959 14.1079 21.2036 15.154 21.9729 16.8771C22.7421 18.6617 22.4959 20.8464 21.0806 22.2617Z" fill="#61AEFF"/>
</g>
<defs>
<clipPath id="clip0_350_24375">
<rect width="22.5" height="24" fill="white"/>
</clipPath>
</defs>
</svg>
