<svg width="40" height="40" viewBox="0 0 40 40" fill="none" xmlns="http://www.w3.org/2000/svg">
<rect width="40" height="40" rx="20" fill="white"/>
<path d="M17.8333 12.4167C17.8333 11.842 18.0616 11.2909 18.4679 10.8846C18.8743 10.4783 19.4254 10.25 20 10.25C20.5746 10.25 21.1257 10.4783 21.5321 10.8846C21.9384 11.2909 22.1667 11.842 22.1667 12.4167C23.4108 13.0049 24.4714 13.9207 25.2347 15.0657C25.9981 16.2108 26.4355 17.542 26.5 18.9167V22.1667C26.5815 22.8402 26.8201 23.4851 27.1964 24.0496C27.5727 24.6141 28.0763 25.0824 28.6667 25.4167H11.3333C11.9237 25.0824 12.4273 24.6141 12.8036 24.0496C13.18 23.4851 13.4185 22.8402 13.5 22.1667V18.9167C13.5645 17.542 14.0019 16.2108 14.7653 15.0657C15.5287 13.9207 16.5892 13.0049 17.8333 12.4167Z" stroke="#110E0E" stroke-width="1.5" stroke-linecap="round" stroke-linejoin="round"/>
<path d="M16.75 25.4167V26.5C16.75 27.362 17.0924 28.1886 17.7019 28.7981C18.3114 29.4076 19.138 29.75 20 29.75C20.862 29.75 21.6886 29.4076 22.2981 28.7981C22.9076 28.1886 23.25 27.362 23.25 26.5V25.4167" stroke="#110E0E" stroke-width="1.5" stroke-linecap="round" stroke-linejoin="round"/>
<circle cx="26" cy="14" r="3.5" fill="#EB5757" stroke="white"/>
</svg>
