<svg width="34" height="34" viewBox="0 0 34 34" fill="none" xmlns="http://www.w3.org/2000/svg">
<g clip-path="url(#clip0_73_593)">
<path d="M33.9177 16.9965C33.482 23.0667 29.4118 28.4228 23.3756 30.7119V32.9372C23.3756 33.5239 22.8995 33.9999 22.3129 33.9999H11.6857C11.0991 33.9999 10.623 33.5239 10.623 32.9372V30.7119C4.58677 28.4228 0.518688 23.0667 0.0808487 16.9965H33.9177Z" fill="#62C4B2"/>
<path d="M2.79753 0.792355C2.89317 0.418279 3.18861 0.131346 3.55843 0.0335762C3.93676 -0.0620682 4.32997 0.0505797 4.59777 0.326886C4.6169 0.343889 6.3555 2.10375 12.1601 4.32907C14.209 5.11336 15.6989 6.60116 16.3578 8.51617C16.8296 9.89345 17.0464 12.0571 15.6925 14.8712H14.9741C14.9061 14.7819 14.8338 14.6948 14.7361 14.6289C14.7084 14.6098 12.0049 12.7522 10.3067 9.10704C10.058 8.57569 9.42675 8.35039 8.89327 8.59269C8.36191 8.84136 8.13236 9.47474 8.38104 10.0061C9.40549 12.2038 10.7275 13.8127 11.7839 14.8712H5.73487C4.90171 14.1911 4.08342 13.3282 3.32676 12.1762C3.30551 12.1464 3.28638 12.1145 3.2715 12.0805C1.04618 7.77865 2.72526 1.07504 2.79753 0.792355Z" fill="#62C4B2"/>
<path d="M19.3936 10.7883C19.8739 9.3855 20.96 8.2994 22.45 7.72766C26.3012 6.25261 27.4702 5.09212 27.4702 5.09212C27.7359 4.80519 28.1312 4.68617 28.5117 4.78181C28.89 4.87745 29.1855 5.17076 29.2811 5.54909C29.3321 5.74676 30.5053 10.4355 28.9325 13.4812C28.9155 13.5131 28.8964 13.545 28.8773 13.5768C28.5457 14.0806 28.1908 14.495 27.8273 14.8712H23.5786C24.2991 14.0785 25.0579 13.0837 25.4362 12.0487C25.6381 11.4982 25.3576 10.8882 24.8049 10.6863C24.2481 10.4843 23.6445 10.767 23.4404 11.3175C22.9303 12.7139 21.1875 14.3293 20.5583 14.833C20.5456 14.8436 20.5392 14.8606 20.5264 14.8712H19.6486C18.9324 13.0965 19.079 11.7022 19.3936 10.7883Z" fill="#62C4B2"/>
</g>
<defs>
<clipPath id="clip0_73_593">
<rect width="34" height="34" fill="white" transform="matrix(-1 0 0 1 34 0)"/>
</clipPath>
</defs>
</svg>
