<svg width="20" height="20" viewBox="0 0 20 20" fill="none" xmlns="http://www.w3.org/2000/svg">
<g clip-path="url(#clip0_350_23839)">
<path d="M4.16667 5.83325H5C5.44203 5.83325 5.86595 5.65766 6.17851 5.3451C6.49107 5.03254 6.66667 4.60861 6.66667 4.16659C6.66667 3.94557 6.75446 3.73361 6.91074 3.57733C7.06702 3.42105 7.27899 3.33325 7.5 3.33325H12.5C12.721 3.33325 12.933 3.42105 13.0893 3.57733C13.2455 3.73361 13.3333 3.94557 13.3333 4.16659C13.3333 4.60861 13.5089 5.03254 13.8215 5.3451C14.134 5.65766 14.558 5.83325 15 5.83325H15.8333C16.2754 5.83325 16.6993 6.00885 17.0118 6.32141C17.3244 6.63397 17.5 7.05789 17.5 7.49992V14.9999C17.5 15.4419 17.3244 15.8659 17.0118 16.1784C16.6993 16.491 16.2754 16.6666 15.8333 16.6666H4.16667C3.72464 16.6666 3.30072 16.491 2.98816 16.1784C2.67559 15.8659 2.5 15.4419 2.5 14.9999V7.49992C2.5 7.05789 2.67559 6.63397 2.98816 6.32141C3.30072 6.00885 3.72464 5.83325 4.16667 5.83325Z" stroke="#767575" stroke-width="1.5" stroke-linecap="round" stroke-linejoin="round"/>
<path d="M10 13.3333C11.3807 13.3333 12.5 12.214 12.5 10.8333C12.5 9.45254 11.3807 8.33325 10 8.33325C8.61929 8.33325 7.5 9.45254 7.5 10.8333C7.5 12.214 8.61929 13.3333 10 13.3333Z" stroke="#767575" stroke-width="1.5" stroke-linecap="round" stroke-linejoin="round"/>
</g>
<defs>
<clipPath id="clip0_350_23839">
<rect width="20" height="20" fill="white"/>
</clipPath>
</defs>
</svg>
