<svg width="18" height="21" viewBox="0 0 18 21" fill="none" xmlns="http://www.w3.org/2000/svg">
<path d="M17.942 15.2415C17.942 14.0052 17.2536 13.0562 16.0581 12.5817C16.0494 12.5297 14.3386 4.50965 14.3228 4.43571L17.3067 3.30376C17.6156 3.18657 17.7918 2.86051 17.7204 2.5379L17.385 1.02176C17.3055 0.662974 16.9504 0.436529 16.5916 0.515825C16.2328 0.5952 16.0062 0.950435 16.0856 1.30922L16.2968 2.2636L13.317 3.39399C13.0099 3.51051 12.8337 3.83364 12.9022 4.15485L14.6283 12.2506C12.9068 11.988 9.63258 11.4916 7.26633 11.152L5.96199 8.00665H6.52898C6.89648 8.00665 7.19438 7.70876 7.19438 7.34126C7.19438 6.97376 6.89648 6.67587 6.52898 6.67587H3.36359C2.99609 6.67587 2.6982 6.97376 2.6982 7.34126C2.6982 7.70876 2.99609 8.00665 3.36359 8.00665H4.56941L5.78777 10.9447C5.10109 10.8516 4.62832 10.7944 4.50473 10.7944C2.05258 10.7944 0.0576172 12.7893 0.0576172 15.2415C0.0576172 16.6896 0.753438 17.9781 1.82816 18.7906L1.25457 19.3642C0.994727 19.624 0.994727 20.0453 1.25457 20.3052C1.51438 20.565 1.9357 20.565 2.19555 20.3052L3.05496 19.4457C3.50961 19.603 3.99734 19.6886 4.50477 19.6886C5.00215 19.6886 10.9239 18.7968 13.985 18.3306L15.9265 20.3016C16.1842 20.5634 16.6056 20.5666 16.8674 20.3088C17.1292 20.0509 17.1324 19.6296 16.8746 19.3678L15.598 18.0718C16.25 17.92 16.7802 17.6397 17.1781 17.2352C17.6779 16.7271 17.942 16.0377 17.942 15.2415ZM14.9178 16.8419C11.1567 17.4178 5.01074 18.3374 4.50012 18.3578C2.78391 18.3552 1.38844 16.9582 1.38844 15.2415C1.38844 13.5248 2.78363 12.1278 4.49969 12.1251C5.00863 12.1465 11.1497 13.0647 14.9127 13.6402C15.6888 13.7718 16.6113 14.1566 16.6113 15.2415C16.6113 16.2975 15.9536 16.6837 14.9178 16.8419Z" fill="#110E0E"/>
</svg>
