<svg width="49" height="48" viewBox="0 0 49 48" fill="none" xmlns="http://www.w3.org/2000/svg">
<circle cx="24.75" cy="24" r="24" fill="white"/>
<path d="M29.375 14C29.2975 14 21.875 14 21.875 14C20.5525 14 19.375 15.2131 19.375 16.5L18.6525 16.5169C17.3306 16.5169 16.25 17.7131 16.25 19V31.5C16.25 32.7869 17.4275 34 18.75 34H28.125C29.4475 34 30.625 32.7869 30.625 31.5H31.25C32.5725 31.5 33.75 30.2869 33.75 29V19.015L29.375 14ZM28.125 32.75H18.75C18.0938 32.75 17.5 32.1369 17.5 31.5V19C17.5 18.3631 18.0344 17.7706 18.6907 17.7706L19.375 17.75V29C19.375 30.2869 20.5525 31.5 21.875 31.5H29.375C29.375 32.1369 28.7812 32.75 28.125 32.75ZM32.5 29C32.5 29.6369 31.9063 30.25 31.25 30.25H21.875C21.2187 30.25 20.625 29.6369 20.625 29V16.5C20.625 15.8632 21.2187 15.25 21.875 15.25H28.125C28.115 16.6894 28.125 17.7656 28.125 17.7656C28.125 19.0644 29.2937 20.25 30.625 20.25C30.625 20.25 31.2888 20.25 32.5 20.25V29ZM30.625 19C29.9594 19 29.375 17.7906 29.375 17.1419C29.375 17.1419 29.375 16.4844 29.375 15.2694V15.2681L32.5 19H30.625ZM29.375 22.7613H23.75C23.405 22.7613 23.125 23.0406 23.125 23.3856C23.125 23.7306 23.405 24.01 23.75 24.01H29.375C29.72 24.01 30 23.7306 30 23.3856C30 23.0406 29.72 22.7613 29.375 22.7613ZM29.375 25.8831H23.75C23.405 25.8831 23.125 26.1625 23.125 26.5075C23.125 26.8525 23.405 27.1319 23.75 27.1319H29.375C29.72 27.1319 30 26.8525 30 26.5075C30 26.1625 29.72 25.8831 29.375 25.8831Z" fill="#4C4C4C"/>
</svg>
