<svg width="20" height="20" viewBox="0 0 20 20" fill="none" xmlns="http://www.w3.org/2000/svg">
<path d="M9.99992 9.16669C9.77891 9.16669 9.56694 9.25448 9.41066 9.41076C9.25438 9.56704 9.16659 9.77901 9.16659 10C9.16659 10.221 9.25438 10.433 9.41066 10.5893C9.56694 10.7456 9.77891 10.8334 9.99992 10.8334C10.2209 10.8334 10.4329 10.7456 10.5892 10.5893C10.7455 10.433 10.8333 10.221 10.8333 10C10.8333 9.77901 10.7455 9.56705 10.5892 9.41076C10.4329 9.25448 10.2209 9.16669 9.99992 9.16669Z" stroke="#4C4C4C" stroke-width="1.5" stroke-linecap="round" stroke-linejoin="round"/>
<path d="M4.16667 9.16669C3.94565 9.16669 3.73369 9.25448 3.57741 9.41076C3.42113 9.56704 3.33333 9.77901 3.33333 10C3.33333 10.221 3.42113 10.433 3.57741 10.5893C3.73369 10.7456 3.94565 10.8334 4.16667 10.8334C4.38768 10.8334 4.59964 10.7456 4.75592 10.5893C4.9122 10.433 5 10.221 5 10C5 9.77901 4.9122 9.56705 4.75592 9.41076C4.59964 9.25448 4.38768 9.16669 4.16667 9.16669Z" stroke="#4C4C4C" stroke-width="1.5" stroke-linecap="round" stroke-linejoin="round"/>
<path d="M15.8334 9.16669C15.6124 9.16669 15.4004 9.25448 15.2442 9.41076C15.0879 9.56704 15.0001 9.77901 15.0001 10C15.0001 10.221 15.0879 10.433 15.2442 10.5893C15.4004 10.7456 15.6124 10.8334 15.8334 10.8334C16.0544 10.8334 16.2664 10.7456 16.4227 10.5893C16.579 10.433 16.6667 10.221 16.6667 10C16.6667 9.77901 16.579 9.56705 16.4227 9.41076C16.2664 9.25448 16.0544 9.16669 15.8334 9.16669Z" stroke="#4C4C4C" stroke-width="1.5" stroke-linecap="round" stroke-linejoin="round"/>
</svg>
