<svg width="33" height="32" viewBox="0 0 33 32" fill="none" xmlns="http://www.w3.org/2000/svg">
<rect x="0.5" width="32" height="32" rx="16" fill="#EB5757"/>
<path d="M21.0098 9.33325H10.6569C10.0848 9.33325 9.53622 9.55275 9.13173 9.94345C8.72724 10.3341 8.5 10.8641 8.5 11.4166V20.5833C8.5 21.1358 8.72724 21.6657 9.13173 22.0564C9.53622 22.4471 10.0848 22.6666 10.6569 22.6666H21.0098C21.5818 22.6666 22.1304 22.4471 22.5349 22.0564C22.9394 21.6657 23.1667 21.1358 23.1667 20.5833V11.4166C23.1667 10.8641 22.9394 10.3341 22.5349 9.94345C22.1304 9.55275 21.5818 9.33325 21.0098 9.33325ZM9.36275 20.5833V11.4166C9.36275 11.0851 9.49909 10.7671 9.74178 10.5327C9.98448 10.2983 10.3136 10.1666 10.6569 10.1666H15.402V21.8333H10.6569C10.3136 21.8333 9.98448 21.7016 9.74178 21.4671C9.49909 21.2327 9.36275 20.9148 9.36275 20.5833ZM22.3039 20.5833C22.3039 20.9148 22.1676 21.2327 21.9249 21.4671C21.6822 21.7016 21.353 21.8333 21.0098 21.8333H16.2647V10.1666H21.0098C21.353 10.1666 21.6822 10.2983 21.9249 10.5327C22.1676 10.7671 22.3039 11.0851 22.3039 11.4166V20.5833Z" fill="white" stroke="white" stroke-width="0.3"/>
</svg>
