<svg width="21" height="21" viewBox="0 0 21 21" fill="none" xmlns="http://www.w3.org/2000/svg">
<path d="M12.9998 5.96298C12.6418 5.96298 12.3517 5.6728 12.3517 5.31484C12.3517 4.95687 12.6418 4.66669 12.9998 4.66669C13.3578 4.66669 13.6479 4.95687 13.6479 5.31484C13.6479 5.6728 13.3578 5.96298 12.9998 5.96298Z" stroke="#767575" stroke-width="1.5" stroke-linecap="round" stroke-linejoin="round"/>
<path d="M12.9998 11.1482C12.6418 11.1482 12.3517 10.858 12.3517 10.5C12.3517 10.1421 12.6418 9.85187 12.9998 9.85187C13.3578 9.85187 13.6479 10.1421 13.6479 10.5C13.6479 10.858 13.3578 11.1482 12.9998 11.1482Z" stroke="#767575" stroke-width="1.5" stroke-linecap="round" stroke-linejoin="round"/>
<path d="M12.9998 16.3334C12.6418 16.3334 12.3517 16.0432 12.3517 15.6852C12.3517 15.3272 12.6418 15.0371 12.9998 15.0371C13.3578 15.0371 13.6479 15.3272 13.6479 15.6852C13.6479 16.0432 13.3578 16.3334 12.9998 16.3334Z" stroke="#767575" stroke-width="1.5" stroke-linecap="round" stroke-linejoin="round"/>
<path d="M7.81499 5.96298C7.45702 5.96298 7.16684 5.6728 7.16684 5.31484C7.16684 4.95687 7.45702 4.66669 7.81499 4.66669C8.17295 4.66669 8.46313 4.95687 8.46313 5.31484C8.46313 5.6728 8.17295 5.96298 7.81499 5.96298Z" stroke="#767575" stroke-width="1.5" stroke-linecap="round" stroke-linejoin="round"/>
<path d="M7.81499 11.1482C7.45702 11.1482 7.16684 10.858 7.16684 10.5C7.16684 10.1421 7.45702 9.85187 7.81499 9.85187C8.17295 9.85187 8.46313 10.1421 8.46313 10.5C8.46313 10.858 8.17295 11.1482 7.81499 11.1482Z" stroke="#767575" stroke-width="1.5" stroke-linecap="round" stroke-linejoin="round"/>
<path d="M7.81499 16.3334C7.45702 16.3334 7.16684 16.0432 7.16684 15.6852C7.16684 15.3272 7.45702 15.0371 7.81499 15.0371C8.17295 15.0371 8.46313 15.3272 8.46313 15.6852C8.46313 16.0432 8.17295 16.3334 7.81499 16.3334Z" stroke="#767575" stroke-width="1.5" stroke-linecap="round" stroke-linejoin="round"/>
</svg>
