<?xml version="1.0" standalone="no"?>
<!DOCTYPE svg PUBLIC "-//W3C//DTD SVG 20010904//EN"
 "http://www.w3.org/TR/2001/REC-SVG-20010904/DTD/svg10.dtd">
<svg version="1.0" xmlns="http://www.w3.org/2000/svg"
 width="1920.000000pt" height="1920.000000pt" viewBox="0 0 1920.000000 1920.000000"
 preserveAspectRatio="xMidYMid meet">

<g transform="translate(0.000000,1920.000000) scale(0.100000,-0.100000)"
fill='#EB5757' stroke="none">
<path d="M9090 19179 c-755 -44 -1464 -165 -2185 -373 -1215 -351 -2415 -988
-3410 -1812 -1403 -1161 -2432 -2665 -3010 -4399 -254 -759 -405 -1558 -466
-2455 -16 -224 -16 -863 0 -1090 66 -988 239 -1828 556 -2710 371 -1032 953
-2044 1659 -2885 277 -330 683 -751 966 -1001 848 -751 1725 -1302 2750 -1729
580 -241 1300 -454 1896 -560 1140 -202 2140 -214 3274 -39 1487 230 2974 859
4210 1783 379 283 709 570 1062 924 742 743 1345 1584 1808 2522 588 1190 908
2424 981 3773 15 279 6 936 -15 1192 -78 924 -248 1715 -542 2529 -139 383
-267 679 -464 1071 -711 1411 -1774 2634 -3095 3557 -646 452 -1420 855 -2165
1128 -904 331 -1825 519 -2820 575 -201 11 -791 11 -990 -1z m745 -3435 c120
-20 274 -72 397 -136 431 -221 716 -664 744 -1153 5 -79 -9 -265 -65 -875 -39
-426 -78 -854 -86 -950 -27 -316 -74 -833 -149 -1665 -41 -451 -82 -905 -91
-1010 -9 -104 -63 -707 -120 -1340 -57 -632 -115 -1278 -129 -1435 -28 -315
-41 -375 -103 -478 -81 -133 -188 -224 -329 -279 -92 -35 -266 -44 -364 -19
-223 57 -406 236 -458 448 -7 26 -25 161 -42 300 -67 574 -132 1137 -175 1523
-25 226 -75 662 -111 970 -35 308 -94 817 -129 1130 -35 314 -89 786 -120
1050 -31 264 -82 719 -115 1010 -57 507 -136 1193 -161 1395 -22 184 1 413 61
590 176 519 645 890 1186 940 107 9 238 4 359 -16z m125 -10057 c210 -56 378
-152 526 -301 297 -298 407 -699 303 -1105 -88 -345 -368 -652 -709 -780 -165
-62 -383 -86 -550 -62 -473 69 -852 411 -960 863 -74 314 -21 636 149 895 179
270 446 448 766 508 125 23 353 14 475 -18z"/>
</g>
</svg>
