<svg width="14" height="15" viewBox="0 0 14 15" fill="none" xmlns="http://www.w3.org/2000/svg">
<path d="M12.7114 6.03064V9.48631C13.0461 9.41627 13.3984 9.15255 13.3984 8.87337V6.64358C13.3984 6.3644 13.0461 6.10068 12.7114 6.03064Z" fill="#61AEFF"/>
<path d="M0.601562 6.64358V8.87337C0.601562 9.15255 0.95388 9.41627 1.28857 9.48631V6.03064C0.95388 6.10068 0.601562 6.3644 0.601562 6.64358Z" fill="#61AEFF"/>
<path d="M3.22186 4.75024H2.32689C1.93532 4.75024 1.6167 5.06886 1.6167 5.46054V10.0564C1.6167 10.4481 1.93532 10.7667 2.32689 10.7667H3.22186C3.61354 10.7667 3.93216 10.4481 3.93216 10.0564V5.46054C3.93216 5.06886 3.61354 4.75024 3.22186 4.75024Z" fill="#61AEFF"/>
<path d="M11.6731 4.75024H10.7782C10.3865 4.75024 10.0679 5.06886 10.0679 5.46054V10.0564C10.0679 10.4481 10.3865 10.7667 10.7782 10.7667H11.6731C12.0647 10.7667 12.3833 10.4481 12.3833 10.0564V5.46054C12.3833 5.06886 12.0647 4.75024 11.6731 4.75024Z" fill="#61AEFF"/>
<path d="M4.26025 7.12964H9.73972V8.38767H4.26025V7.12964Z" fill="#61AEFF"/>
</svg>
