<svg width="14" height="15" viewBox="0 0 14 15" fill="none" xmlns="http://www.w3.org/2000/svg">
<g clip-path="url(#clip0_1219_421)">
<path d="M13.4343 3.72744L12.1218 5.03994C12.0398 5.12197 11.9285 5.16811 11.8125 5.16811H10.2437L7.30933 8.10244C7.22388 8.18789 7.11194 8.23061 7 8.23061C6.88806 8.23061 6.77612 8.18789 6.69067 8.10244C6.51978 7.93154 6.51978 7.65468 6.69067 7.48379L9.625 4.54946V2.98061C9.625 2.86461 9.67114 2.75332 9.75317 2.67129L11.0657 1.35879C11.1911 1.23339 11.3786 1.19601 11.5425 1.26394C11.7059 1.33166 11.8125 1.49123 11.8125 1.66811V2.98061H13.125C13.3019 2.98061 13.4615 3.08721 13.5292 3.25063C13.5969 3.41427 13.5595 3.60225 13.4343 3.72744ZM9.88306 6.76494L7.92755 8.72066C7.67804 8.96996 7.34991 9.10561 7 9.10561C6.65009 9.10561 6.32196 8.96996 6.07245 8.72066C5.56061 8.20882 5.56061 7.3774 6.07245 6.86556L8.02817 4.91006C7.7088 4.79192 7.36316 4.73061 7 4.73061C5.31131 4.73061 3.9375 6.10442 3.9375 7.79311C3.9375 9.4818 5.31131 10.8556 7 10.8556C8.68869 10.8556 10.0625 9.4818 10.0625 7.79311C10.0625 7.42995 10.0012 7.08431 9.88306 6.76494ZM13.5625 7.79311C13.5625 11.4112 10.6181 14.3556 7 14.3556C3.38187 14.3556 0.4375 11.4112 0.4375 7.79311C0.4375 4.17498 3.38187 1.23061 7 1.23061C7.85321 1.23061 8.68869 1.39681 9.46756 1.72066L9.13495 2.05306C8.88565 2.30257 8.75 2.6307 8.75 2.98061V4.18801L8.69745 4.24056C8.18134 3.99553 7.60818 3.85561 7 3.85561C4.83002 3.85561 3.0625 5.62313 3.0625 7.79311C3.0625 9.96309 4.83002 11.7306 7 11.7306C9.16998 11.7306 10.9375 9.96309 10.9375 7.79311C10.9375 7.18493 10.7976 6.61178 10.5526 6.09566L10.6051 6.04311H11.8125C12.1624 6.04311 12.4905 5.90746 12.7401 5.65816L13.0724 5.32555C13.3963 6.10442 13.5625 6.9399 13.5625 7.79311Z" fill="#62C4B2"/>
</g>
<defs>
<clipPath id="clip0_1219_421">
<rect width="14" height="14" fill="white" transform="translate(0 0.793091)"/>
</clipPath>
</defs>
</svg>
