<svg width="20" height="20" viewBox="0 0 20 20" fill="none" xmlns="http://www.w3.org/2000/svg">
<path d="M10 6.66675V10.0001L11.6667 11.6667" stroke="#EB5757" stroke-width="1.5" stroke-linecap="round" stroke-linejoin="round"/>
<path d="M2.54166 9.16672C2.72841 7.33344 3.58355 5.63307 4.94394 4.39003C6.30433 3.14699 8.07474 2.44829 9.9174 2.42725C11.76 2.4062 13.546 3.06428 14.9344 4.27592C16.3228 5.48756 17.2166 7.16796 17.4451 8.9965C17.6737 10.825 17.2211 12.6737 16.1736 14.1899C15.1262 15.706 13.5572 16.7834 11.7661 17.2166C9.97493 17.6498 8.08701 17.4084 6.46249 16.5384C4.83798 15.6685 3.5906 14.231 2.95833 12.5001M2.54166 16.6667V12.5001H6.70833" stroke="#EB5757" stroke-width="1.5" stroke-linecap="round" stroke-linejoin="round"/>
</svg>
