<svg width="14" height="15" viewBox="0 0 14 15" fill="none" xmlns="http://www.w3.org/2000/svg">
<g clip-path="url(#clip0_1219_885)">
<path d="M7.00015 0.137939C5.93065 0.137939 5.06055 1.00804 5.06055 2.07754C5.06055 2.17491 5.06796 2.27053 5.08187 2.3641H5.92466C5.90027 2.27264 5.88709 2.17661 5.88709 2.07754C5.88709 1.46378 6.38642 0.964459 7.00018 0.964459C7.61393 0.964459 8.11323 1.46378 8.11323 2.07754C8.11323 2.17661 8.10002 2.27261 8.07566 2.3641H8.91845C8.93237 2.27056 8.93978 2.17491 8.93978 2.07754C8.9397 1.00804 8.06962 0.137939 7.00015 0.137939Z" fill="#61AEFF"/>
<path d="M13.5903 11.1578L12.5532 5.28758C12.3385 4.07254 11.2872 3.19067 10.0534 3.19067H3.94503C2.71122 3.19067 1.65988 4.07254 1.4452 5.28758L0.408111 11.1578C0.277216 11.8988 0.479505 12.6544 0.963052 13.2309C1.44663 13.8074 2.15549 14.138 2.90796 14.138H11.0905C11.843 14.138 12.5519 13.8074 13.0354 13.2309C13.519 12.6544 13.7212 11.8988 13.5903 11.1578ZM6.6663 10.3188C6.58605 10.3965 6.48242 10.4351 6.37895 10.4351C6.27088 10.4351 6.16301 10.393 6.08191 10.3092L4.92379 9.11248V10.0219C4.92379 10.2501 4.73876 10.4351 4.51052 10.4351C4.28228 10.4351 4.09725 10.2501 4.09725 10.0219V7.30684C4.09725 7.0786 4.28228 6.89356 4.51052 6.89356C4.73876 6.89356 4.92379 7.0786 4.92379 7.30684V8.21621L6.08191 7.01946C6.24064 6.85545 6.50224 6.85115 6.6663 7.00986C6.83031 7.16859 6.83458 7.43019 6.6759 7.59422L5.64034 8.66435L6.6759 9.73447C6.8346 9.89848 6.83031 10.1601 6.6663 10.3188ZM8.57818 10.4351C7.84862 10.4351 7.25507 9.84158 7.25507 9.11202V8.21673C7.25507 7.48717 7.84862 6.89362 8.57818 6.89362C8.98855 6.89362 9.36882 7.07928 9.62159 7.40303C9.76205 7.58293 9.73006 7.84267 9.55011 7.98308C9.37016 8.12354 9.11048 8.09152 8.97004 7.91163C8.87505 7.78995 8.7322 7.72011 8.57815 7.72011C8.30433 7.72011 8.08156 7.94288 8.08156 8.2167V9.11196C8.08156 9.38578 8.30433 9.60855 8.57815 9.60855C8.82389 9.60855 9.02856 9.4291 9.0679 9.19432H8.86764C8.6394 9.19432 8.45436 9.00929 8.45436 8.78105C8.45436 8.55281 8.6394 8.36778 8.86764 8.36778H9.48799C9.71622 8.36778 9.90126 8.55281 9.90126 8.78105V9.11196H9.90129C9.90129 9.84158 9.30774 10.4351 8.57818 10.4351Z" fill="#61AEFF"/>
</g>
<defs>
<clipPath id="clip0_1219_885">
<rect width="14" height="14" fill="white" transform="translate(0 0.137939)"/>
</clipPath>
</defs>
</svg>
