<svg width="153" height="157" viewBox="0 0 153 157" fill="none" xmlns="http://www.w3.org/2000/svg">
<g clip-path="url(#clip0_350_23850)">
<path d="M31.875 64.1667C31.3442 64.1667 30.8017 64.0675 30.2883 63.8692C28.6083 63.2158 27.5 61.5942 27.5 59.7917V46.6667H20.2083C14.5792 46.6667 10 42.0875 10 36.4583V10.2083C10 4.57917 14.5792 0 20.2083 0H69.7917C75.4208 0 80 4.57917 80 10.2083V36.4583C80 42.0875 75.4208 46.6667 69.7917 46.6667H49.8417L35.1008 62.7492C34.255 63.6708 33.0767 64.1667 31.875 64.1667Z" fill="#EEEEE9"/>
<path d="M80 23.3333H63.9583C63.9583 25.7483 61.9983 27.7083 59.5833 27.7083C57.1683 27.7083 55.2083 25.7483 55.2083 23.3333H49.375C49.375 25.7483 47.415 27.7083 45 27.7083C42.585 27.7083 40.625 25.7483 40.625 23.3333H34.7917C34.7917 25.7483 32.8317 27.7083 30.4167 27.7083C28.0017 27.7083 26.0417 25.7483 26.0417 23.3333H10V36.4583C10 42.0874 14.5792 46.6666 20.2083 46.6666H27.5V59.7916C27.5 61.5941 28.6025 63.2158 30.2942 63.8691C30.8017 64.0674 31.3383 64.1666 31.875 64.1666C33.0767 64.1666 34.255 63.6708 35.1008 62.7491L49.8417 46.6666H69.7917C75.4208 46.6666 80 42.0874 80 36.4583V23.3333Z" fill="#E6E6DB"/>
<path d="M30.4165 27.7083C32.8327 27.7083 34.7915 25.7495 34.7915 23.3333C34.7915 20.917 32.8327 18.9583 30.4165 18.9583C28.0003 18.9583 26.0415 20.917 26.0415 23.3333C26.0415 25.7495 28.0003 27.7083 30.4165 27.7083Z" fill="#EB5757"/>
<path d="M44.9998 27.7083C47.416 27.7083 49.3748 25.7495 49.3748 23.3333C49.3748 20.917 47.416 18.9583 44.9998 18.9583C42.5835 18.9583 40.6248 20.917 40.6248 23.3333C40.6248 25.7495 42.5835 27.7083 44.9998 27.7083Z" fill="#EB5757"/>
<path d="M59.5833 27.7083C61.9995 27.7083 63.9583 25.7495 63.9583 23.3333C63.9583 20.917 61.9995 18.9583 59.5833 18.9583C57.167 18.9583 55.2083 20.917 55.2083 23.3333C55.2083 25.7495 57.167 27.7083 59.5833 27.7083Z" fill="#EB5757"/>
<path d="M34.7915 23.3333H26.0415C26.0415 25.7483 28.0015 27.7083 30.4165 27.7083C32.8315 27.7083 34.7915 25.7483 34.7915 23.3333Z" fill="#E35555"/>
<path d="M49.3743 23.3333H40.6243C40.6243 25.7483 42.5843 27.7083 44.9993 27.7083C47.4143 27.7083 49.3743 25.7483 49.3743 23.3333Z" fill="#E35555"/>
<path d="M63.958 23.3333H55.208C55.208 25.7483 57.168 27.7083 59.583 27.7083C61.998 27.7083 63.958 25.7483 63.958 23.3333Z" fill="#E35555"/>
</g>
<g clip-path="url(#clip1_350_23850)">
<path d="M143 30.3958V63.9374C143 67.5541 140.054 70.4999 136.438 70.4999H91.2292C90.9376 70.4999 90.6459 70.4708 90.3834 70.4416C87.3209 70.0624 84.9292 67.5541 84.6959 64.4624L84.6667 63.9374V30.3958C84.6667 26.7791 87.6126 23.8333 91.2292 23.8333H136.438C140.054 23.8333 143 26.7791 143 30.3958Z" fill="#EEEEE9"/>
<path d="M114.198 23.8333H91.2292C87.6126 23.8333 84.6667 26.7791 84.6667 30.3958V63.9374L84.6959 64.4624C84.9292 67.5541 87.3209 70.0624 90.3834 70.4416C90.6459 70.4708 90.9376 70.4999 91.2292 70.4999H114.198V23.8333Z" fill="#EEEEE9"/>
<path d="M143 55.7418V63.9376C143 67.5543 140.054 70.5001 136.437 70.5001H91.2291C90.9375 70.5001 90.6458 70.4709 90.3833 70.4418L120.425 40.4001C122.408 38.4168 125.675 38.4168 127.658 40.4001L143 55.7418Z" fill="#EB5757"/>
<path d="M123.794 38.9185C122.566 38.9768 121.355 39.4726 120.425 40.4001L90.3833 70.4418C90.6458 70.471 90.9375 70.5001 91.2291 70.5001H123.794V38.9185Z" fill="#F36D6D"/>
<path d="M125.675 70.5H91.2291C90.9375 70.5 90.6458 70.4708 90.3833 70.4417C87.3208 70.0625 84.9291 67.5542 84.6958 64.4625L98.55 50.6083C100.533 48.625 103.8 48.625 105.783 50.6083L125.675 70.5Z" fill="#EB5757"/>
<path d="M102.167 49.1208C100.854 49.1208 99.5416 49.6167 98.55 50.6084L84.6958 64.4625C84.9291 67.5542 87.3208 70.0625 90.3833 70.4417C90.6458 70.4708 90.9375 70.5 91.2291 70.5H102.318V49.1238C102.269 49.1208 102.216 49.1208 102.167 49.1208Z" fill="#F36D6D"/>
<path d="M99.2501 32.5833C96.033 32.5833 93.4167 35.1995 93.4167 38.4166C93.4167 41.6337 96.033 44.2499 99.2501 44.2499C102.467 44.2499 105.083 41.6337 105.083 38.4166C105.083 35.1995 102.467 32.5833 99.2501 32.5833Z" fill="#CECCA0"/>
<path d="M91.2292 74.8751C86.5596 74.8751 82.4062 71.8855 80.8983 67.4347L80.7962 67.0993C80.4404 65.9209 80.2917 64.9293 80.2917 63.9376V44.0547L73.2158 67.6709C72.3058 71.1447 74.3796 74.7468 77.8592 75.7064L122.96 87.7843C123.522 87.9301 124.085 88.0001 124.64 88.0001C127.545 88.0001 130.199 86.0722 130.942 83.2314L133.567 74.8751H91.2292Z" fill="#EEEEE9"/>
<path d="M80.2917 44.0547L73.2158 67.6709C72.3058 71.1447 74.3796 74.7468 77.8592 75.7064L99.9821 81.6301L102.216 74.8751H91.2292C86.5596 74.8751 82.4062 71.8855 80.8983 67.4347L80.7962 67.0993C80.4404 65.9209 80.2917 64.9293 80.2917 63.9376V44.0547Z" fill="#EEEEE9"/>
</g>
<path d="M1.31756 124V110.909H3.68901V122.012H9.45463V124H1.31756ZM15.7572 124.192C14.7728 124.192 13.9227 123.987 13.2068 123.578C12.4951 123.165 11.9475 122.581 11.564 121.827C11.1805 121.068 10.9887 120.175 10.9887 119.148C10.9887 118.138 11.1805 117.252 11.564 116.489C11.9518 115.722 12.493 115.126 13.1876 114.7C13.8822 114.269 14.6982 114.054 15.6357 114.054C16.2409 114.054 16.8119 114.152 17.3488 114.348C17.89 114.54 18.3673 114.838 18.7806 115.243C19.1982 115.648 19.5264 116.163 19.765 116.79C20.0036 117.412 20.123 118.153 20.123 119.014V119.724H12.0754V118.164H17.9049C17.9007 117.721 17.8048 117.327 17.6173 116.982C17.4298 116.632 17.1677 116.357 16.8311 116.157C16.4987 115.957 16.1109 115.857 15.6677 115.857C15.1947 115.857 14.7792 115.972 14.4213 116.202C14.0633 116.428 13.7842 116.726 13.5839 117.097C13.3879 117.463 13.2877 117.866 13.2835 118.305V119.666C13.2835 120.237 13.3879 120.727 13.5967 121.136C13.8055 121.541 14.0974 121.852 14.4724 122.07C14.8474 122.283 15.2863 122.389 15.7892 122.389C16.1258 122.389 16.4305 122.342 16.7032 122.249C16.9759 122.151 17.2124 122.008 17.4127 121.82C17.613 121.633 17.7643 121.401 17.8666 121.124L20.0271 121.366C19.8907 121.937 19.6308 122.436 19.2472 122.862C18.868 123.284 18.3822 123.612 17.7899 123.847C17.1975 124.077 16.52 124.192 15.7572 124.192ZM24.9058 124.198C24.2836 124.198 23.7233 124.087 23.2247 123.866C22.7304 123.64 22.3383 123.308 22.0486 122.869C21.7631 122.43 21.6203 121.888 21.6203 121.245C21.6203 120.691 21.7226 120.233 21.9271 119.871C22.1317 119.509 22.4108 119.219 22.7645 119.001C23.1182 118.784 23.5166 118.62 23.9598 118.509C24.4072 118.394 24.8696 118.311 25.3469 118.26C25.9221 118.2 26.3888 118.147 26.7467 118.1C27.1047 118.049 27.3646 117.972 27.5265 117.87C27.6927 117.763 27.7758 117.599 27.7758 117.378V117.339C27.7758 116.858 27.6331 116.485 27.3476 116.221C27.0621 115.957 26.6508 115.825 26.1139 115.825C25.5471 115.825 25.0976 115.948 24.7652 116.195C24.4371 116.442 24.2155 116.734 24.1004 117.071L21.9399 116.764C22.1104 116.168 22.3916 115.669 22.7836 115.268C23.1757 114.864 23.6551 114.561 24.2219 114.361C24.7886 114.156 25.415 114.054 26.1011 114.054C26.5741 114.054 27.045 114.109 27.5138 114.22C27.9825 114.331 28.4108 114.514 28.7986 114.77C29.1863 115.021 29.4974 115.364 29.7318 115.799C29.9704 116.234 30.0898 116.777 30.0898 117.429V124H27.8653V122.651H27.7886C27.648 122.924 27.4498 123.18 27.1942 123.418C26.9427 123.653 26.6253 123.842 26.2417 123.987C25.8625 124.128 25.4172 124.198 24.9058 124.198ZM25.5067 122.498C25.9711 122.498 26.3738 122.406 26.7148 122.223C27.0557 122.036 27.3177 121.788 27.501 121.482C27.6885 121.175 27.7822 120.84 27.7822 120.478V119.321C27.7098 119.381 27.5862 119.436 27.4115 119.487C27.241 119.538 27.0493 119.583 26.8362 119.621C26.6231 119.66 26.4122 119.694 26.2034 119.724C25.9946 119.754 25.8135 119.779 25.6601 119.8C25.3149 119.847 25.0059 119.924 24.7332 120.031C24.4605 120.137 24.2453 120.286 24.0876 120.478C23.93 120.665 23.8511 120.908 23.8511 121.207C23.8511 121.633 24.0067 121.955 24.3177 122.172C24.6288 122.389 25.0251 122.498 25.5067 122.498ZM40.8348 114.182L37.3383 124H34.7815L31.2851 114.182H33.7524L36.0088 121.475H36.1111L38.3738 114.182H40.8348ZM46.4486 124.192C45.4642 124.192 44.6141 123.987 43.8982 123.578C43.1865 123.165 42.6389 122.581 42.2554 121.827C41.8719 121.068 41.6801 120.175 41.6801 119.148C41.6801 118.138 41.8719 117.252 42.2554 116.489C42.6432 115.722 43.1844 115.126 43.879 114.7C44.5736 114.269 45.3896 114.054 46.3271 114.054C46.9323 114.054 47.5033 114.152 48.0402 114.348C48.5814 114.54 49.0587 114.838 49.472 115.243C49.8896 115.648 50.2178 116.163 50.4564 116.79C50.695 117.412 50.8144 118.153 50.8144 119.014V119.724H42.7668V118.164H48.5963C48.5921 117.721 48.4962 117.327 48.3087 116.982C48.1212 116.632 47.8591 116.357 47.5225 116.157C47.1901 115.957 46.8023 115.857 46.3591 115.857C45.8861 115.857 45.4706 115.972 45.1127 116.202C44.7547 116.428 44.4756 116.726 44.2753 117.097C44.0793 117.463 43.9791 117.866 43.9749 118.305V119.666C43.9749 120.237 44.0793 120.727 44.2881 121.136C44.4969 121.541 44.7888 121.852 45.1638 122.07C45.5388 122.283 45.9777 122.389 46.4806 122.389C46.8172 122.389 47.1219 122.342 47.3946 122.249C47.6673 122.151 47.9039 122.008 48.1041 121.82C48.3044 121.633 48.4557 121.401 48.558 121.124L50.7185 121.366C50.5821 121.937 50.3222 122.436 49.9387 122.862C49.5594 123.284 49.0736 123.612 48.4813 123.847C47.8889 124.077 47.2114 124.192 46.4486 124.192ZM60.0621 124.198C59.4399 124.198 58.8795 124.087 58.3809 123.866C57.8866 123.64 57.4946 123.308 57.2048 122.869C56.9193 122.43 56.7765 121.888 56.7765 121.245C56.7765 120.691 56.8788 120.233 57.0834 119.871C57.2879 119.509 57.567 119.219 57.9207 119.001C58.2744 118.784 58.6729 118.62 59.116 118.509C59.5635 118.394 60.0258 118.311 60.5031 118.26C61.0784 118.2 61.545 118.147 61.903 118.1C62.2609 118.049 62.5209 117.972 62.6828 117.87C62.849 117.763 62.9321 117.599 62.9321 117.378V117.339C62.9321 116.858 62.7893 116.485 62.5038 116.221C62.2183 115.957 61.8071 115.825 61.2702 115.825C60.7034 115.825 60.2538 115.948 59.9214 116.195C59.5933 116.442 59.3717 116.734 59.2567 117.071L57.0961 116.764C57.2666 116.168 57.5479 115.669 57.9399 115.268C58.3319 114.864 58.8113 114.561 59.3781 114.361C59.9449 114.156 60.5713 114.054 61.2574 114.054C61.7304 114.054 62.2013 114.109 62.67 114.22C63.1388 114.331 63.567 114.514 63.9548 114.77C64.3426 115.021 64.6537 115.364 64.8881 115.799C65.1267 116.234 65.246 116.777 65.246 117.429V124H63.0216V122.651H62.9449C62.8042 122.924 62.6061 123.18 62.3504 123.418C62.099 123.653 61.7815 123.842 61.398 123.987C61.0187 124.128 60.5734 124.198 60.0621 124.198ZM60.6629 122.498C61.1274 122.498 61.5301 122.406 61.871 122.223C62.2119 122.036 62.474 121.788 62.6572 121.482C62.8447 121.175 62.9385 120.84 62.9385 120.478V119.321C62.866 119.381 62.7425 119.436 62.5677 119.487C62.3973 119.538 62.2055 119.583 61.9925 119.621C61.7794 119.66 61.5684 119.694 61.3596 119.724C61.1508 119.754 60.9697 119.779 60.8163 119.8C60.4711 119.847 60.1622 119.924 59.8895 120.031C59.6167 120.137 59.4015 120.286 59.2439 120.478C59.0862 120.665 59.0074 120.908 59.0074 121.207C59.0074 121.633 59.1629 121.955 59.474 122.172C59.7851 122.389 60.1814 122.498 60.6629 122.498ZM76.3202 124.192C75.3401 124.192 74.4985 123.977 73.7954 123.546C73.0965 123.116 72.5574 122.521 72.1782 121.763C71.8032 121 71.6157 120.122 71.6157 119.129C71.6157 118.132 71.8074 117.252 72.191 116.489C72.5745 115.722 73.1157 115.126 73.8145 114.7C74.5177 114.269 75.3486 114.054 76.3074 114.054C77.1043 114.054 77.8096 114.201 78.4232 114.495C79.0411 114.785 79.5333 115.196 79.8998 115.729C80.2662 116.257 80.4751 116.875 80.5262 117.582H78.3145C78.2251 117.109 78.012 116.715 77.6753 116.4C77.343 116.08 76.8976 115.92 76.3394 115.92C75.8664 115.92 75.4509 116.048 75.093 116.304C74.735 116.555 74.4559 116.918 74.2556 117.391C74.0596 117.864 73.9616 118.43 73.9616 119.091C73.9616 119.76 74.0596 120.335 74.2556 120.817C74.4516 121.294 74.7265 121.663 75.0802 121.923C75.4381 122.178 75.8579 122.306 76.3394 122.306C76.6803 122.306 76.985 122.242 77.2535 122.114C77.5262 121.982 77.7542 121.793 77.9374 121.545C78.1207 121.298 78.2464 120.998 78.3145 120.644H80.5262C80.4708 121.339 80.2662 121.955 79.9126 122.491C79.5589 123.024 79.0773 123.442 78.468 123.744C77.8586 124.043 77.1427 124.192 76.3202 124.192ZM86.7089 124.192C85.7501 124.192 84.9191 123.981 84.216 123.559C83.5129 123.137 82.9674 122.547 82.5796 121.788C82.1961 121.03 82.0044 120.143 82.0044 119.129C82.0044 118.115 82.1961 117.227 82.5796 116.464C82.9674 115.701 83.5129 115.109 84.216 114.687C84.9191 114.265 85.7501 114.054 86.7089 114.054C87.6677 114.054 88.4987 114.265 89.2018 114.687C89.9049 115.109 90.4482 115.701 90.8318 116.464C91.2195 117.227 91.4134 118.115 91.4134 119.129C91.4134 120.143 91.2195 121.03 90.8318 121.788C90.4482 122.547 89.9049 123.137 89.2018 123.559C88.4987 123.981 87.6677 124.192 86.7089 124.192ZM86.7217 122.338C87.2416 122.338 87.6762 122.195 88.0257 121.91C88.3751 121.62 88.635 121.232 88.8055 120.746C88.9802 120.261 89.0676 119.719 89.0676 119.123C89.0676 118.522 88.9802 117.979 88.8055 117.493C88.635 117.003 88.3751 116.613 88.0257 116.323C87.6762 116.033 87.2416 115.888 86.7217 115.888C86.189 115.888 85.7458 116.033 85.3921 116.323C85.0427 116.613 84.7806 117.003 84.6059 117.493C84.4355 117.979 84.3502 118.522 84.3502 119.123C84.3502 119.719 84.4355 120.261 84.6059 120.746C84.7806 121.232 85.0427 121.62 85.3921 121.91C85.7458 122.195 86.189 122.338 86.7217 122.338ZM93.3774 124V114.182H95.589V115.85H95.7041C95.9086 115.288 96.2474 114.849 96.7204 114.533C97.1934 114.214 97.7581 114.054 98.4143 114.054C99.0791 114.054 99.6395 114.216 100.095 114.54C100.556 114.859 100.88 115.296 101.067 115.85H101.169C101.387 115.305 101.753 114.87 102.269 114.546C102.789 114.218 103.404 114.054 104.116 114.054C105.019 114.054 105.757 114.339 106.328 114.911C106.899 115.482 107.184 116.315 107.184 117.41V124H104.864V117.768C104.864 117.158 104.702 116.713 104.378 116.432C104.054 116.146 103.658 116.004 103.189 116.004C102.631 116.004 102.194 116.178 101.879 116.528C101.568 116.873 101.412 117.322 101.412 117.876V124H99.143V117.672C99.143 117.165 98.9896 116.76 98.6828 116.457C98.3802 116.155 97.9839 116.004 97.4939 116.004C97.1615 116.004 96.8589 116.089 96.5862 116.259C96.3135 116.425 96.0961 116.662 95.9342 116.969C95.7723 117.271 95.6913 117.625 95.6913 118.03V124H93.3774ZM109.532 124V114.182H111.743V115.85H111.858C112.063 115.288 112.402 114.849 112.875 114.533C113.348 114.214 113.912 114.054 114.569 114.054C115.233 114.054 115.794 114.216 116.25 114.54C116.71 114.859 117.034 115.296 117.221 115.85H117.324C117.541 115.305 117.907 114.87 118.423 114.546C118.943 114.218 119.559 114.054 120.27 114.054C121.174 114.054 121.911 114.339 122.482 114.911C123.053 115.482 123.339 116.315 123.339 117.41V124H121.018V117.768C121.018 117.158 120.856 116.713 120.532 116.432C120.209 116.146 119.812 116.004 119.343 116.004C118.785 116.004 118.348 116.178 118.033 116.528C117.722 116.873 117.566 117.322 117.566 117.876V124H115.297V117.672C115.297 117.165 115.144 116.76 114.837 116.457C114.535 116.155 114.138 116.004 113.648 116.004C113.316 116.004 113.013 116.089 112.741 116.259C112.468 116.425 112.25 116.662 112.089 116.969C111.927 117.271 111.846 117.625 111.846 118.03V124H109.532ZM130.033 124.192C129.048 124.192 128.198 123.987 127.482 123.578C126.771 123.165 126.223 122.581 125.839 121.827C125.456 121.068 125.264 120.175 125.264 119.148C125.264 118.138 125.456 117.252 125.839 116.489C126.227 115.722 126.768 115.126 127.463 114.7C128.158 114.269 128.974 114.054 129.911 114.054C130.516 114.054 131.087 114.152 131.624 114.348C132.165 114.54 132.643 114.838 133.056 115.243C133.474 115.648 133.802 116.163 134.04 116.79C134.279 117.412 134.398 118.153 134.398 119.014V119.724H126.351V118.164H132.18C132.176 117.721 132.08 117.327 131.893 116.982C131.705 116.632 131.443 116.357 131.106 116.157C130.774 115.957 130.386 115.857 129.943 115.857C129.47 115.857 129.055 115.972 128.697 116.202C128.339 116.428 128.06 116.726 127.859 117.097C127.663 117.463 127.563 117.866 127.559 118.305V119.666C127.559 120.237 127.663 120.727 127.872 121.136C128.081 121.541 128.373 121.852 128.748 122.07C129.123 122.283 129.562 122.389 130.065 122.389C130.401 122.389 130.706 122.342 130.979 122.249C131.251 122.151 131.488 122.008 131.688 121.82C131.888 121.633 132.04 121.401 132.142 121.124L134.302 121.366C134.166 121.937 133.906 122.436 133.523 122.862C133.143 123.284 132.658 123.612 132.065 123.847C131.473 124.077 130.795 124.192 130.033 124.192ZM138.67 118.247V124H136.356V114.182H138.568V115.85H138.683C138.908 115.3 139.269 114.864 139.763 114.54C140.261 114.216 140.877 114.054 141.61 114.054C142.288 114.054 142.878 114.199 143.381 114.489C143.888 114.778 144.28 115.198 144.557 115.748C144.838 116.298 144.977 116.964 144.972 117.749V124H142.658V118.107C142.658 117.45 142.488 116.937 142.147 116.566C141.81 116.195 141.344 116.01 140.747 116.01C140.342 116.01 139.982 116.099 139.667 116.278C139.356 116.453 139.111 116.707 138.932 117.039C138.757 117.371 138.67 117.774 138.67 118.247ZM152.227 114.182V115.972H146.583V114.182H152.227ZM147.977 111.83H150.291V121.047C150.291 121.358 150.337 121.597 150.431 121.763C150.529 121.925 150.657 122.036 150.815 122.095C150.972 122.155 151.147 122.185 151.339 122.185C151.484 122.185 151.616 122.174 151.735 122.153C151.859 122.131 151.953 122.112 152.016 122.095L152.406 123.904C152.283 123.947 152.106 123.994 151.876 124.045C151.65 124.096 151.373 124.126 151.045 124.134C150.465 124.151 149.943 124.064 149.479 123.872C149.014 123.676 148.646 123.374 148.373 122.964C148.104 122.555 147.972 122.044 147.977 121.43V111.83Z" fill="black"/>
<path d="M30.3364 147.273C30.3364 148.282 30.1517 149.15 29.7824 149.876C29.4131 150.6 28.9068 151.157 28.2636 151.548C27.6234 151.935 26.8956 152.129 26.08 152.129C25.2613 152.129 24.5304 151.935 23.8872 151.548C23.247 151.157 22.7423 150.598 22.373 149.872C22.0036 149.145 21.819 148.279 21.819 147.273C21.819 146.263 22.0036 145.397 22.373 144.674C22.7423 143.947 23.247 143.39 23.8872 143.002C24.5304 142.612 25.2613 142.416 26.08 142.416C26.8956 142.416 27.6234 142.612 28.2636 143.002C28.9068 143.39 29.4131 143.947 29.7824 144.674C30.1517 145.397 30.3364 146.263 30.3364 147.273ZM28.9237 147.273C28.9237 146.503 28.7991 145.855 28.5498 145.329C28.3036 144.8 27.9651 144.4 27.5342 144.129C27.1064 143.855 26.6217 143.718 26.08 143.718C25.5352 143.718 25.049 143.855 24.6212 144.129C24.1934 144.4 23.8548 144.8 23.6056 145.329C23.3593 145.855 23.2362 146.503 23.2362 147.273C23.2362 148.042 23.3593 148.692 23.6056 149.221C23.8548 149.747 24.1934 150.147 24.6212 150.421C25.049 150.692 25.5352 150.827 26.08 150.827C26.6217 150.827 27.1064 150.692 27.5342 150.421C27.9651 150.147 28.3036 149.747 28.5498 149.221C28.7991 148.692 28.9237 148.042 28.9237 147.273ZM32.0041 152V144.909H33.3382V146.036H33.4121C33.5414 145.654 33.7691 145.354 34.0953 145.135C34.4247 144.914 34.7971 144.803 35.2125 144.803C35.2987 144.803 35.4003 144.806 35.5172 144.812C35.6373 144.818 35.7311 144.826 35.7988 144.835V146.156C35.7434 146.14 35.6449 146.123 35.5034 146.105C35.3618 146.083 35.2202 146.072 35.0787 146.072C34.7524 146.072 34.4616 146.142 34.2061 146.28C33.9538 146.416 33.7537 146.605 33.606 146.848C33.4583 147.088 33.3844 147.362 33.3844 147.67V152H32.0041ZM45.7473 146.64L44.4963 146.862C44.444 146.702 44.3609 146.549 44.247 146.405C44.1362 146.26 43.9854 146.142 43.7946 146.049C43.6038 145.957 43.3652 145.911 43.079 145.911C42.6882 145.911 42.3619 145.999 42.1003 146.174C41.8387 146.346 41.7079 146.569 41.7079 146.843C41.7079 147.08 41.7956 147.271 41.9711 147.416C42.1465 147.56 42.4296 147.679 42.8205 147.771L43.9469 148.03C44.5994 148.181 45.0856 148.413 45.4057 148.727C45.7258 149.041 45.8858 149.449 45.8858 149.95C45.8858 150.375 45.7627 150.754 45.5165 151.086C45.2734 151.415 44.9333 151.674 44.4963 151.862C44.0623 152.049 43.5591 152.143 42.9867 152.143C42.1926 152.143 41.5448 151.974 41.0431 151.635C40.5415 151.294 40.2337 150.809 40.1199 150.181L41.454 149.978C41.5371 150.326 41.7079 150.589 41.9664 150.767C42.225 150.943 42.562 151.031 42.9775 151.031C43.4299 151.031 43.7915 150.937 44.0623 150.749C44.3332 150.558 44.4686 150.326 44.4686 150.052C44.4686 149.83 44.3855 149.644 44.2193 149.493C44.0562 149.342 43.8053 149.229 43.4668 149.152L42.2665 148.888C41.6048 148.738 41.1155 148.498 40.7985 148.168C40.4846 147.839 40.3276 147.422 40.3276 146.917C40.3276 146.499 40.4445 146.132 40.6784 145.819C40.9123 145.505 41.2355 145.26 41.6479 145.085C42.0603 144.906 42.5327 144.817 43.0652 144.817C43.8315 144.817 44.4347 144.983 44.8748 145.315C45.3149 145.645 45.6058 146.086 45.7473 146.64ZM48.7838 147.79V152H47.4035V142.545H48.7654V146.063H48.8531C49.0193 145.682 49.2732 145.378 49.6148 145.154C49.9564 144.929 50.4027 144.817 50.9536 144.817C51.4398 144.817 51.8646 144.917 52.2277 145.117C52.594 145.317 52.8771 145.615 53.0771 146.012C53.2803 146.406 53.3818 146.899 53.3818 147.49V152H52.0015V147.656C52.0015 147.136 51.8676 146.733 51.5999 146.446C51.3321 146.157 50.9597 146.012 50.4827 146.012C50.1565 146.012 49.8641 146.082 49.6056 146.22C49.3501 146.359 49.1485 146.562 49.0008 146.83C48.8561 147.094 48.7838 147.414 48.7838 147.79ZM57.2874 152.157C56.838 152.157 56.4318 152.074 56.0686 151.908C55.7055 151.738 55.4177 151.494 55.2053 151.174C54.9961 150.854 54.8914 150.461 54.8914 149.996C54.8914 149.596 54.9684 149.267 55.1222 149.009C55.2761 148.75 55.4839 148.545 55.7455 148.395C56.0071 148.244 56.2994 148.13 56.6226 148.053C56.9458 147.976 57.2751 147.917 57.6105 147.877C58.0352 147.828 58.3799 147.788 58.6446 147.757C58.9093 147.724 59.1017 147.67 59.2217 147.596C59.3417 147.522 59.4017 147.402 59.4017 147.236V147.203C59.4017 146.8 59.2878 146.488 59.0601 146.266C58.8354 146.045 58.5 145.934 58.0537 145.934C57.589 145.934 57.2227 146.037 56.955 146.243C56.6903 146.446 56.5072 146.673 56.4056 146.922L55.1084 146.626C55.2623 146.196 55.4869 145.848 55.7824 145.583C56.0809 145.315 56.4241 145.121 56.8119 145.001C57.1997 144.878 57.6075 144.817 58.0352 144.817C58.3184 144.817 58.6185 144.851 58.9355 144.918C59.2555 144.983 59.5541 145.103 59.8311 145.278C60.1111 145.454 60.3404 145.705 60.5189 146.031C60.6974 146.354 60.7867 146.774 60.7867 147.291V152H59.4387V151.031H59.3833C59.294 151.209 59.1601 151.384 58.9816 151.557C58.8031 151.729 58.5738 151.872 58.2938 151.986C58.0137 152.1 57.6782 152.157 57.2874 152.157ZM57.5874 151.049C57.9691 151.049 58.2953 150.974 58.5661 150.823C58.8401 150.672 59.0478 150.475 59.1894 150.232C59.334 149.986 59.4063 149.723 59.4063 149.442V148.528C59.3571 148.578 59.2617 148.624 59.1201 148.667C58.9816 148.707 58.8231 148.742 58.6446 148.773C58.4661 148.801 58.2922 148.827 58.123 148.852C57.9537 148.873 57.8121 148.892 57.6982 148.907C57.4305 148.941 57.1858 148.998 56.9642 149.078C56.7457 149.158 56.5703 149.273 56.4379 149.424C56.3087 149.572 56.2441 149.769 56.2441 150.015C56.2441 150.357 56.3702 150.615 56.6226 150.79C56.875 150.963 57.1966 151.049 57.5874 151.049ZM62.6252 152V144.909H63.9593V146.036H64.0332C64.1625 145.654 64.3902 145.354 64.7164 145.135C65.0458 144.914 65.4181 144.803 65.8336 144.803C65.9198 144.803 66.0214 144.806 66.1383 144.812C66.2583 144.818 66.3522 144.826 66.4199 144.835V146.156C66.3645 146.14 66.266 146.123 66.1245 146.105C65.9829 146.083 65.8413 146.072 65.6998 146.072C65.3735 146.072 65.0827 146.142 64.8272 146.28C64.5749 146.416 64.3748 146.605 64.2271 146.848C64.0794 147.088 64.0055 147.362 64.0055 147.67V152H62.6252ZM70.4166 152.143C69.718 152.143 69.1163 151.994 68.6116 151.695C68.1099 151.394 67.7222 150.971 67.4482 150.426C67.1774 149.878 67.042 149.236 67.042 148.501C67.042 147.774 67.1774 147.134 67.4482 146.58C67.7222 146.026 68.1038 145.594 68.5931 145.283C69.0856 144.972 69.6611 144.817 70.3197 144.817C70.7198 144.817 71.1076 144.883 71.483 145.015C71.8585 145.148 72.1955 145.355 72.4941 145.638C72.7926 145.922 73.028 146.289 73.2004 146.742C73.3727 147.191 73.4589 147.737 73.4589 148.381V148.87H67.8222V147.836H72.1063C72.1063 147.473 72.0324 147.151 71.8847 146.871C71.7369 146.588 71.5292 146.365 71.2615 146.202C70.9968 146.039 70.6859 145.957 70.3289 145.957C69.9411 145.957 69.6026 146.052 69.3133 146.243C69.0271 146.431 68.8055 146.677 68.6485 146.982C68.4946 147.283 68.4177 147.611 68.4177 147.965V148.773C68.4177 149.247 68.5008 149.65 68.667 149.983C68.8363 150.315 69.0717 150.569 69.3733 150.744C69.6749 150.917 70.0273 151.003 70.4305 151.003C70.6921 151.003 70.9306 150.966 71.146 150.892C71.3615 150.815 71.5477 150.701 71.7046 150.55C71.8616 150.4 71.9816 150.213 72.0647 149.992L73.3712 150.227C73.2665 150.612 73.0788 150.949 72.808 151.238C72.5402 151.525 72.2032 151.748 71.797 151.908C71.3938 152.065 70.9337 152.143 70.4166 152.143ZM80.4944 152.157C80.0451 152.157 79.6388 152.074 79.2757 151.908C78.9125 151.738 78.6247 151.494 78.4124 151.174C78.2031 150.854 78.0985 150.461 78.0985 149.996C78.0985 149.596 78.1754 149.267 78.3293 149.009C78.4832 148.75 78.6909 148.545 78.9525 148.395C79.2141 148.244 79.5065 148.13 79.8296 148.053C80.1528 147.976 80.4821 147.917 80.8176 147.877C81.2423 147.828 81.587 147.788 81.8517 147.757C82.1163 147.724 82.3087 147.67 82.4287 147.596C82.5487 147.522 82.6088 147.402 82.6088 147.236V147.203C82.6088 146.8 82.4949 146.488 82.2671 146.266C82.0425 146.045 81.707 145.934 81.2607 145.934C80.796 145.934 80.4298 146.037 80.162 146.243C79.8973 146.446 79.7142 146.673 79.6127 146.922L78.3154 146.626C78.4693 146.196 78.694 145.848 78.9894 145.583C79.288 145.315 79.6311 145.121 80.0189 145.001C80.4067 144.878 80.8145 144.817 81.2423 144.817C81.5254 144.817 81.8255 144.851 82.1425 144.918C82.4626 144.983 82.7611 145.103 83.0381 145.278C83.3182 145.454 83.5474 145.705 83.7259 146.031C83.9044 146.354 83.9937 146.774 83.9937 147.291V152H82.6457V151.031H82.5903C82.501 151.209 82.3672 151.384 82.1887 151.557C82.0102 151.729 81.7809 151.872 81.5008 151.986C81.2207 152.1 80.8853 152.157 80.4944 152.157ZM80.7945 151.049C81.1761 151.049 81.5023 150.974 81.7732 150.823C82.0471 150.672 82.2548 150.475 82.3964 150.232C82.541 149.986 82.6134 149.723 82.6134 149.442V148.528C82.5641 148.578 82.4687 148.624 82.3271 148.667C82.1887 148.707 82.0302 148.742 81.8517 148.773C81.6731 148.801 81.4993 148.827 81.33 148.852C81.1607 148.873 81.0191 148.892 80.9053 148.907C80.6375 148.941 80.3928 148.998 80.1713 149.078C79.9527 149.158 79.7773 149.273 79.645 149.424C79.5157 149.572 79.4511 149.769 79.4511 150.015C79.4511 150.357 79.5773 150.615 79.8296 150.79C80.082 150.963 80.4036 151.049 80.7945 151.049ZM89.2726 154.659V144.909H90.6206V146.059H90.7361C90.8161 145.911 90.9315 145.74 91.0823 145.546C91.2331 145.352 91.4424 145.183 91.7101 145.038C91.9779 144.891 92.3318 144.817 92.7719 144.817C93.3444 144.817 93.8553 144.961 94.3046 145.251C94.7539 145.54 95.1063 145.957 95.3618 146.502C95.6203 147.047 95.7496 147.702 95.7496 148.468C95.7496 149.235 95.6218 149.892 95.3664 150.44C95.1109 150.984 94.7601 151.404 94.3138 151.7C93.8676 151.992 93.3582 152.138 92.7858 152.138C92.3549 152.138 92.0025 152.066 91.7286 151.922C91.4578 151.777 91.2454 151.608 91.0915 151.414C90.9376 151.22 90.8192 151.047 90.7361 150.897H90.653V154.659H89.2726ZM90.6253 148.455C90.6253 148.953 90.6976 149.39 90.8422 149.766C90.9869 150.141 91.1962 150.435 91.4701 150.647C91.744 150.857 92.0795 150.961 92.4765 150.961C92.8889 150.961 93.2336 150.852 93.5106 150.634C93.7876 150.412 93.9968 150.112 94.1384 149.733C94.2831 149.355 94.3554 148.929 94.3554 148.455C94.3554 147.987 94.2846 147.567 94.143 147.194C94.0045 146.822 93.7952 146.528 93.5152 146.312C93.2382 146.097 92.892 145.989 92.4765 145.989C92.0764 145.989 91.7378 146.092 91.4608 146.299C91.1869 146.505 90.9792 146.793 90.8376 147.162C90.6961 147.531 90.6253 147.962 90.6253 148.455ZM97.2961 152V144.909H98.6764V152H97.2961ZM97.9932 143.815C97.7531 143.815 97.5469 143.735 97.3746 143.575C97.2053 143.412 97.1206 143.218 97.1206 142.993C97.1206 142.766 97.2053 142.572 97.3746 142.412C97.5469 142.248 97.7531 142.167 97.9932 142.167C98.2332 142.167 98.4379 142.248 98.6072 142.412C98.7795 142.572 98.8657 142.766 98.8657 142.993C98.8657 143.218 98.7795 143.412 98.6072 143.575C98.4379 143.735 98.2332 143.815 97.9932 143.815ZM103.52 152.143C102.834 152.143 102.243 151.988 101.748 151.677C101.255 151.363 100.877 150.931 100.612 150.38C100.347 149.829 100.215 149.198 100.215 148.487C100.215 147.767 100.35 147.131 100.621 146.58C100.892 146.026 101.274 145.594 101.766 145.283C102.258 144.972 102.839 144.817 103.506 144.817C104.045 144.817 104.525 144.917 104.947 145.117C105.368 145.314 105.708 145.591 105.967 145.948C106.229 146.305 106.384 146.722 106.433 147.199H105.09C105.016 146.866 104.847 146.58 104.582 146.34C104.32 146.1 103.97 145.98 103.529 145.98C103.145 145.98 102.808 146.082 102.518 146.285C102.232 146.485 102.009 146.771 101.849 147.143C101.689 147.513 101.609 147.95 101.609 148.455C101.609 148.972 101.688 149.418 101.844 149.793C102.001 150.169 102.223 150.46 102.509 150.666C102.799 150.872 103.139 150.975 103.529 150.975C103.791 150.975 104.028 150.927 104.24 150.832C104.456 150.734 104.636 150.594 104.781 150.412C104.928 150.23 105.031 150.012 105.09 149.756H106.433C106.384 150.215 106.235 150.624 105.985 150.984C105.736 151.344 105.402 151.628 104.984 151.834C104.568 152.04 104.08 152.143 103.52 152.143ZM111.219 144.909V146.017H107.346V144.909H111.219ZM108.385 143.21H109.765V149.918C109.765 150.186 109.805 150.387 109.885 150.523C109.965 150.655 110.068 150.746 110.195 150.795C110.324 150.841 110.464 150.864 110.615 150.864C110.725 150.864 110.822 150.857 110.905 150.841C110.989 150.826 111.053 150.814 111.099 150.804L111.349 151.945C111.269 151.975 111.155 152.006 111.007 152.037C110.859 152.071 110.675 152.089 110.453 152.092C110.09 152.098 109.751 152.034 109.437 151.898C109.123 151.763 108.87 151.554 108.676 151.271C108.482 150.987 108.385 150.632 108.385 150.204V143.21ZM117.238 149.059V144.909H118.623V152H117.266V150.772H117.192C117.029 151.151 116.767 151.466 116.407 151.718C116.05 151.968 115.605 152.092 115.073 152.092C114.617 152.092 114.214 151.992 113.863 151.792C113.516 151.589 113.242 151.289 113.042 150.892C112.845 150.495 112.746 150.004 112.746 149.419V144.909H114.127V149.253C114.127 149.736 114.26 150.121 114.528 150.407C114.796 150.694 115.144 150.837 115.572 150.837C115.83 150.837 116.087 150.772 116.343 150.643C116.601 150.513 116.815 150.318 116.984 150.056C117.157 149.795 117.241 149.462 117.238 149.059ZM120.478 152V144.909H121.812V146.036H121.886C122.015 145.654 122.243 145.354 122.569 145.135C122.898 144.914 123.271 144.803 123.686 144.803C123.772 144.803 123.874 144.806 123.991 144.812C124.111 144.818 124.205 144.826 124.272 144.835V146.156C124.217 146.14 124.119 146.123 123.977 146.105C123.835 146.083 123.694 146.072 123.552 146.072C123.226 146.072 122.935 146.142 122.68 146.28C122.427 146.416 122.227 146.605 122.08 146.848C121.932 147.088 121.858 147.362 121.858 147.67V152H120.478ZM128.269 152.143C127.571 152.143 126.969 151.994 126.464 151.695C125.962 151.394 125.575 150.971 125.301 150.426C125.03 149.878 124.895 149.236 124.895 148.501C124.895 147.774 125.03 147.134 125.301 146.58C125.575 146.026 125.956 145.594 126.446 145.283C126.938 144.972 127.514 144.817 128.172 144.817C128.572 144.817 128.96 144.883 129.336 145.015C129.711 145.148 130.048 145.355 130.347 145.638C130.645 145.922 130.881 146.289 131.053 146.742C131.225 147.191 131.311 147.737 131.311 148.381V148.87H125.675V147.836H129.959C129.959 147.473 129.885 147.151 129.737 146.871C129.589 146.588 129.382 146.365 129.114 146.202C128.849 146.039 128.538 145.957 128.181 145.957C127.794 145.957 127.455 146.052 127.166 146.243C126.88 146.431 126.658 146.677 126.501 146.982C126.347 147.283 126.27 147.611 126.27 147.965V148.773C126.27 149.247 126.353 149.65 126.52 149.983C126.689 150.315 126.924 150.569 127.226 150.744C127.527 150.917 127.88 151.003 128.283 151.003C128.545 151.003 128.783 150.966 128.999 150.892C129.214 150.815 129.4 150.701 129.557 150.55C129.714 150.4 129.834 150.213 129.917 149.992L131.224 150.227C131.119 150.612 130.931 150.949 130.661 151.238C130.393 151.525 130.056 151.748 129.65 151.908C129.246 152.065 128.786 152.143 128.269 152.143Z" fill="#767575"/>
<defs>
<clipPath id="clip0_350_23850">
<rect width="70" height="64.2578" fill="white" transform="translate(10)"/>
</clipPath>
<clipPath id="clip1_350_23850">
<rect width="70" height="70" fill="white" transform="translate(73 18)"/>
</clipPath>
</defs>
</svg>
