<svg width="24" height="24" viewBox="0 0 24 24" fill="none" xmlns="http://www.w3.org/2000/svg">
<path d="M2.15984 13.6796C2.35189 13.6796 2.49593 13.8237 2.59175 13.9677C2.68777 14.1117 2.68777 14.3038 2.59175 14.4476C2.35168 14.8315 2.25566 15.2636 2.25566 15.6956V15.9356C2.25566 16.0316 2.25566 16.0797 2.30367 16.1757C2.30367 16.2237 2.30367 16.3197 2.35168 16.3677C2.35168 16.4157 2.35168 16.4638 2.3997 16.5118C2.3997 16.5598 2.44771 16.6078 2.44771 16.6558C2.44771 16.6558 2.44771 16.7038 2.49572 16.7038C2.54373 16.7518 2.54373 16.7998 2.59174 16.8959C2.63976 16.9439 2.63976 16.9919 2.68777 17.0399C2.87982 17.328 3.07166 17.5198 3.31173 17.7119C3.35975 17.7599 3.45577 17.8079 3.50378 17.8079C3.79186 17.9519 4.07972 18.096 4.41579 18.096H4.70387C6.04781 18.096 7.15191 16.9921 7.15191 15.6479C7.15191 15.3598 7.39197 15.12 7.67986 15.12C7.96793 15.12 8.20781 15.36 8.20781 15.6479C8.20781 17.5678 6.6238 19.1038 4.75195 19.1038H4.65593C4.5599 19.4399 4.5599 19.7277 4.5599 20.0638C4.5599 22.2238 6.28796 23.9518 8.4479 23.9518C9.55178 23.9518 10.6078 23.4719 11.3759 22.6079C11.4239 22.5118 11.5199 22.4638 11.6159 22.4638V20.4959C10.368 20.2559 9.40794 19.152 9.40794 17.808C9.40794 17.5199 9.648 17.2801 9.93589 17.2801C10.224 17.2801 10.4638 17.5201 10.4638 17.808C10.4638 18.576 10.9438 19.1999 11.6157 19.392V13.9197C10.3678 13.6796 9.40774 12.5757 9.40774 11.2318C9.40774 10.9437 9.6478 10.7038 9.93569 10.7038C10.2238 10.7038 10.4636 10.9439 10.4636 11.2318C10.4636 11.9998 10.9436 12.6237 11.6155 12.8158L11.6157 7.2961C10.3678 7.05604 9.40773 5.95216 9.40773 4.60821C9.40773 4.32014 9.64779 4.08026 9.93568 4.08026C10.2238 4.08026 10.4636 4.32032 10.4636 4.60821C10.4636 5.37622 10.9436 6.00014 11.6155 6.19222L11.6157 1.48823C11.5197 1.48823 11.4237 1.3922 11.3756 1.34419C10.4638 0.480162 9.40773 0.000244141 8.30389 0.000244141C6.14395 0.000244141 4.4159 1.72809 4.4159 3.88803C4.4159 4.08008 4.4159 4.31994 4.46391 4.55998C4.51192 4.70402 4.46391 4.84806 4.36788 4.99189C4.27186 5.08791 4.12782 5.18394 3.98399 5.18394H3.93598H3.69592C3.59989 5.18394 3.55188 5.18394 3.45586 5.23195C3.31182 5.27996 3.16778 5.32797 3.02395 5.37599C2.92792 5.424 2.87991 5.424 2.8319 5.47201C2.78389 5.52002 2.68786 5.56804 2.63985 5.56804C2.54383 5.61605 2.49581 5.66406 2.4478 5.71207C2.39979 5.76009 2.30376 5.8081 2.25575 5.90412C2.15973 6.00015 2.11171 6.04816 2.0637 6.14419C2.01569 6.24021 1.91966 6.33623 1.87165 6.43226C1.82364 6.52828 1.77563 6.5763 1.77563 6.67232C1.72762 6.76835 1.72761 6.81636 1.6796 6.91238C1.53597 6.95999 1.53597 7.00801 1.53597 7.00801C1.53597 7.05602 1.53597 7.10403 1.48795 7.15204C1.48795 7.20006 1.43994 7.29608 1.43994 7.34409V7.58416V7.77621V7.92024C1.43994 7.96826 1.43994 8.01627 1.48795 8.06428V8.11229C1.48795 8.1603 1.48795 8.1603 1.53597 8.20832V8.25633C1.53597 8.30434 1.58398 8.35235 1.58398 8.40037C1.58398 8.44838 1.58398 8.44838 1.63199 8.49639C2.01588 9.36042 2.87992 9.98438 3.88795 9.98438C4.17602 9.98438 4.4159 10.2244 4.4159 10.5123C4.4159 10.8004 4.17583 11.0403 3.88795 11.0403C2.64001 11.0403 1.53597 10.3683 0.912009 9.36026C0.336076 9.79217 0 10.5121 0 11.2321C0 12.4798 0.912009 13.5359 2.15994 13.6799L2.15984 13.6796Z" fill="#F9AC39"/>
<path d="M23.2316 11.2796C23.2316 10.3676 22.7037 9.50357 21.8397 9.11967C21.5996 8.97563 21.4558 8.73578 21.5996 8.44772C21.6956 8.15965 21.7437 7.87179 21.7437 7.58369V7.53568C21.7917 6.95975 21.5996 6.4318 21.2157 5.99971C20.8796 5.66362 20.4957 5.42378 20.0638 5.27973C20.0158 5.23172 19.9198 5.23172 19.8718 5.23172C19.7758 5.23172 19.7277 5.1837 19.6317 5.1837H19.3436H19.1996C17.9037 5.23172 16.8956 6.28759 16.8956 7.58371C16.8956 7.87178 16.6556 8.11166 16.3677 8.11166C16.0796 8.11166 15.8397 7.8716 15.8397 7.58371C15.8397 5.85565 17.1356 4.41569 18.7677 4.17583V3.93577C18.8157 1.7278 17.0877 0 14.9277 0C14.0637 0 13.1997 0.288075 12.4797 0.864028V0.960053V6.24008C13.1516 6.00002 13.6315 5.37605 13.6315 4.65607C13.6315 4.368 13.8716 4.12812 14.1595 4.12812C14.4476 4.12812 14.6874 4.36818 14.6874 4.65607C14.6874 6.00002 13.7274 7.10411 12.4795 7.34396V12.912C13.1514 12.6719 13.6313 12.048 13.6313 11.328C13.6313 11.0399 13.8714 10.8 14.1593 10.8C14.4474 10.8 14.6872 11.0401 14.6872 11.328C14.6872 12.6719 13.7272 13.776 12.4793 14.0159V19.5839C13.1512 19.3438 13.6311 18.7199 13.6311 17.9999C13.6311 17.7118 13.8712 17.4719 14.1591 17.4719C14.4472 17.4719 14.687 17.712 14.687 17.9999C14.687 19.3438 13.727 20.4479 12.4791 20.6878L12.4799 23.0399V23.136C13.1518 23.7119 14.0158 24 14.9279 24C17.0878 24 18.8159 22.2719 18.8159 20.112C18.8159 19.7759 18.7679 19.488 18.6719 19.152H18.5758C16.656 19.152 15.12 17.568 15.12 15.6961C15.12 15.408 15.36 15.1682 15.6479 15.1682C15.936 15.1682 16.1759 15.4082 16.1759 15.6961C16.1759 17.0401 17.2798 18.1441 18.6239 18.1441C18.6719 18.1441 18.768 18.1441 18.816 18.1922C18.864 18.1441 18.96 18.1441 19.008 18.0961C20.2079 17.9041 21.0719 16.8962 21.0719 15.6961C21.0719 15.2642 20.9279 14.8321 20.7359 14.4482C20.6398 14.3042 20.6398 14.1121 20.7359 13.9683C20.8319 13.8242 20.9759 13.6802 21.1678 13.6802C22.3196 13.5362 23.2317 12.4801 23.2317 11.2802L23.2316 11.2796Z" fill="#F9AC39"/>
</svg>
