<svg width="15" height="15" viewBox="0 0 15 15" fill="none" xmlns="http://www.w3.org/2000/svg">
<g clip-path="url(#clip0_1219_396)">
<path d="M0.0356445 7.48132C0.227871 9.98083 2.02355 12.1863 4.68659 13.1288V14.0452C4.68659 14.2867 4.89663 14.4827 5.15543 14.4827H9.84389C10.1027 14.4827 10.3127 14.2867 10.3127 14.0452V13.1288C12.9758 12.1863 14.7705 9.98083 14.9637 7.48132H0.0356445Z" fill="#62C4B2"/>
<path d="M13.7655 0.809021C13.7233 0.654989 13.593 0.53684 13.4298 0.496582C13.2629 0.457199 13.0894 0.503584 12.9713 0.617357C12.9629 0.624358 12.1958 1.34901 9.63499 2.26532C8.73106 2.58826 8.07374 3.20088 7.78305 3.98942C7.57489 4.55653 7.47924 5.44746 8.07655 6.6062H8.39349C8.42349 6.56944 8.45538 6.53356 8.49851 6.50643C8.5107 6.49855 9.70344 5.73365 10.4527 4.23272C10.5624 4.01392 10.8409 3.92115 11.0762 4.02092C11.3106 4.12332 11.4119 4.38412 11.3022 4.60292C10.8502 5.50785 10.267 6.17036 9.80096 6.6062H12.4696C12.8372 6.32614 13.1982 5.97082 13.532 5.49647C13.5414 5.48422 13.5498 5.47109 13.5564 5.45709C14.5382 3.68573 13.7974 0.925419 13.7655 0.809021Z" fill="#62C4B2"/>
<path d="M6.44374 4.92499C6.23182 4.34737 5.75266 3.90016 5.09534 3.66473C3.39624 3.05736 2.88051 2.57951 2.88051 2.57951C2.7633 2.46136 2.58889 2.41235 2.42104 2.45174C2.25413 2.49112 2.1238 2.61189 2.0816 2.76767C2.05909 2.84907 1.54149 4.77971 2.23538 6.03384C2.24288 6.04697 2.25132 6.06009 2.25976 6.07322C2.40604 6.28064 2.56263 6.4513 2.72298 6.6062H4.59742C4.27955 6.27976 3.94479 5.87018 3.77788 5.44397C3.6888 5.2173 3.81258 4.96612 4.05638 4.88298C4.30205 4.79984 4.56835 4.91624 4.65837 5.14291C4.88342 5.7179 5.65233 6.38303 5.92988 6.59045C5.93551 6.59483 5.93832 6.60183 5.94395 6.6062H6.33121C6.64721 5.87543 6.58251 5.30131 6.44374 4.92499Z" fill="#62C4B2"/>
</g>
<defs>
<clipPath id="clip0_1219_396">
<rect width="15" height="14" fill="white" transform="translate(0 0.482788)"/>
</clipPath>
</defs>
</svg>
