<svg width="14" height="15" viewBox="0 0 14 15" fill="none" xmlns="http://www.w3.org/2000/svg">
<g clip-path="url(#clip0_1219_1153)">
<path d="M6.27065 12.6451C4.9039 12.6451 3.79149 11.5327 3.79149 10.1659V1.8645L0.973404 2.50967C0.276903 2.69284 -0.140763 3.41092 0.0435701 4.11384L2.45974 13.1351C2.62015 13.7184 3.15624 14.1046 3.7314 14.1046C3.83932 14.1046 3.94899 14.0912 4.05749 14.0626L9.93749 12.6451H6.27065Z" fill="#62C4B2"/>
<path d="M7.58317 5.35335C8.22659 5.35335 8.74984 4.8301 8.74984 4.18669C8.74984 3.54327 8.22659 3.02002 7.58317 3.02002C6.93975 3.02002 6.4165 3.54327 6.4165 4.18669C6.4165 4.8301 6.93975 5.35335 7.58317 5.35335Z" fill="#62C4B2"/>
<path d="M13.9998 1.85339C13.9998 0.88681 13.2164 0.103394 12.2498 0.103394H11.6041H6.4165C5.44992 0.103394 4.6665 0.88681 4.6665 1.85339V10.0201C4.6665 10.9866 5.44992 11.7701 6.4165 11.7701H12.2498C13.2164 11.7701 13.9998 10.9866 13.9998 10.0201V1.85339ZM6.4165 1.27006H12.2498C12.5718 1.27006 12.8332 1.53139 12.8332 1.85339V5.60948L12.3898 5.16614C11.9903 4.76656 11.3422 4.76656 10.9432 5.16614L8.1665 7.94281L7.4315 7.20781C7.03192 6.80823 6.38384 6.80823 5.98484 7.20781L5.83317 7.35948V1.85339C5.83317 1.53139 6.0945 1.27006 6.4165 1.27006Z" fill="#62C4B2"/>
</g>
<defs>
<clipPath id="clip0_1219_1153">
<rect width="14" height="14" fill="white" transform="translate(0 0.103394)"/>
</clipPath>
</defs>
</svg>
