<svg width="16" height="17" viewBox="0 0 16 17" fill="none" xmlns="http://www.w3.org/2000/svg">
<path d="M15.6546 8.23535C15.6546 8.35348 15.5965 8.46033 15.5069 8.50735L0.797335 16.2109C0.700265 16.2618 0.587126 16.2316 0.516727 16.1362C0.446327 16.0407 0.434554 15.9014 0.487527 15.7907L3.37795 9.73457C3.40579 9.6763 3.44918 9.6312 3.50102 9.60667L6.40128 8.23535L3.50105 6.86416C3.44921 6.83962 3.40581 6.79452 3.37798 6.73625L0.487527 0.679985C0.434554 0.569283 0.446327 0.429997 0.516727 0.334527C0.587126 0.239056 0.700265 0.208946 0.797335 0.259848L15.5069 7.96336C15.5965 8.01038 15.6546 8.11723 15.6546 8.23535Z" fill="white"/>
</svg>
