<svg width="24" height="24" viewBox="0 0 24 24" fill="none" xmlns="http://www.w3.org/2000/svg">
<path d="M12.082 14.7554C12.4249 14.7554 12.712 14.4683 12.712 14.1334V5.94284L12.6642 4.74657L13.1985 5.3128L14.4107 6.60478C14.5224 6.73239 14.6899 6.79619 14.8414 6.79619C15.1684 6.79619 15.4236 6.55693 15.4236 6.22995C15.4236 6.06247 15.3518 5.93487 15.2322 5.81524L12.5366 3.21533C12.3771 3.05583 12.2415 3 12.082 3C11.9145 3 11.7789 3.05583 11.6194 3.21533L8.92381 5.81524C8.80418 5.93487 8.7324 6.06247 8.7324 6.22995C8.7324 6.55693 8.97166 6.79619 9.30662 6.79619C9.45815 6.79619 9.6336 6.73239 9.74525 6.60478L10.9575 5.3128L11.4918 4.74657L11.444 5.94284V14.1334C11.444 14.4683 11.739 14.7554 12.082 14.7554ZM7.50422 21H16.6518C18.3186 21 19.156 20.1706 19.156 18.5277V10.5685C19.156 8.92556 18.3186 8.09615 16.6518 8.09615H14.4267V9.38015H16.6278C17.4174 9.38015 17.872 9.81081 17.872 10.6402V18.4559C17.872 19.2853 17.4174 19.716 16.6278 19.716H7.52017C6.72266 19.716 6.28402 19.2853 6.28402 18.4559V10.6402C6.28402 9.81081 6.72266 9.38015 7.52017 9.38015H9.7293V8.09615H7.50422C5.83741 8.09615 5.00002 8.92556 5.00002 10.5685V18.5277C5.00002 20.1706 5.83741 21 7.50422 21Z" fill="black" stroke="black" stroke-width="0.2"/>
</svg>
