<svg width="33" height="32" viewBox="0 0 33 32" fill="none" xmlns="http://www.w3.org/2000/svg">
<rect x="0.5" width="32" height="32" rx="16" fill="#EAE9E9"/>
<path d="M19.8725 9.33325L13.3235 9.33325C12.7515 9.33325 12.2029 9.55275 11.7984 9.94345C11.3939 10.3341 11.1667 10.8641 11.1667 11.4166V20.5833C11.1667 21.1358 11.3939 21.6657 11.7984 22.0564C12.2029 22.4471 12.7515 22.6666 13.3235 22.6666H19.8725C20.4446 22.6666 20.9932 22.4471 21.3977 22.0564C21.8022 21.6657 22.0294 21.1358 22.0294 20.5833V11.4166C22.0294 10.8641 21.8022 10.3341 21.3977 9.94345C20.9932 9.55275 20.4446 9.33325 19.8725 9.33325ZM12.0294 20.5833V11.4166C12.0294 11.0851 12.1658 10.7671 12.4085 10.5327C12.6512 10.2983 12.9803 10.1666 13.3235 10.1666H16.2647V21.8333H13.3235C12.9803 21.8333 12.6512 21.7016 12.4085 21.4671C12.1658 21.2327 12.0294 20.9148 12.0294 20.5833ZM21.1667 20.5833C21.1667 20.9148 21.0303 21.2327 20.7876 21.4671C20.5449 21.7016 20.2158 21.8333 19.8725 21.8333H17.1274V15.9999V10.1666H19.8725C20.2158 10.1666 20.5449 10.2983 20.7876 10.5327C21.0303 10.7671 21.1667 11.0851 21.1667 11.4166V20.5833Z" fill="#110E0E" stroke="#110E0E" stroke-width="0.3"/>
<path fill-rule="evenodd" clip-rule="evenodd" d="M14.6962 21.6354L14.6962 10.3594L18.6962 10.3594L18.6962 21.6354L14.6962 21.6354Z" fill="#EAE9E9"/>
</svg>
