<svg width="20" height="20" viewBox="0 0 20 20" fill="none" xmlns="http://www.w3.org/2000/svg">
<g clip-path="url(#clip0_350_23840)">
<path d="M10 17.5C14.1421 17.5 17.5 14.1421 17.5 10C17.5 5.85786 14.1421 2.5 10 2.5C5.85786 2.5 2.5 5.85786 2.5 10C2.5 14.1421 5.85786 17.5 10 17.5Z" stroke="#767575" stroke-width="1.5" stroke-linecap="round" stroke-linejoin="round"/>
<path d="M7.5 8.33325H7.50833" stroke="#767575" stroke-width="1.5" stroke-linecap="round" stroke-linejoin="round"/>
<path d="M12.5 8.33325H12.5083" stroke="#767575" stroke-width="1.5" stroke-linecap="round" stroke-linejoin="round"/>
<path d="M7.91675 12.5C8.18831 12.7772 8.51246 12.9974 8.87019 13.1477C9.22792 13.298 9.61205 13.3754 10.0001 13.3754C10.3881 13.3754 10.7722 13.298 11.13 13.1477C11.4877 12.9974 11.8118 12.7772 12.0834 12.5" stroke="#767575" stroke-width="1.5" stroke-linecap="round" stroke-linejoin="round"/>
</g>
<defs>
<clipPath id="clip0_350_23840">
<rect width="20" height="20" fill="white"/>
</clipPath>
</defs>
</svg>
