<svg width="14" height="21" viewBox="0 0 14 21" fill="none" xmlns="http://www.w3.org/2000/svg">
<path d="M5.42115 5.18745C6.71348 5.18745 7.76488 4.13606 7.76488 2.84373C7.76488 1.5514 6.71348 0.5 5.42115 0.5C4.12882 0.5 3.07743 1.5514 3.07743 2.84373C3.07743 4.13606 4.12882 5.18745 5.42115 5.18745ZM5.42115 2.06248C5.85193 2.06248 6.20239 2.41295 6.20239 2.84373C6.20239 3.2745 5.85193 3.62497 5.42115 3.62497C4.99038 3.62497 4.63991 3.2745 4.63991 2.84373C4.63991 2.41295 4.99038 2.06248 5.42115 2.06248ZM13.2169 6.71088C13.2169 7.14236 12.8671 7.49212 12.4356 7.49212H7.03176L5.96224 11.3716C5.86673 11.718 5.55228 11.9454 5.20951 11.9454C5.14076 11.9454 5.07092 11.9363 5.00143 11.917C4.5855 11.8024 4.34124 11.3722 4.45593 10.9563L5.411 7.49212H4.27249C3.92066 7.49212 3.61062 7.72927 3.51848 8.06883L2.3745 12.3248C2.30982 12.5634 2.35845 12.8109 2.50747 13.0058C2.65649 13.2007 2.8827 13.3124 3.12801 13.3124H7.36504C7.99308 13.3124 8.56663 13.6026 8.93866 14.1086C9.31065 14.6146 9.41658 15.2486 9.22924 15.8481L7.94691 19.9516C7.84246 20.2859 7.5341 20.5 7.20145 20.5C7.12426 20.5001 7.04578 20.4885 6.96821 20.4643C6.55638 20.3356 6.32685 19.8974 6.45556 19.4856L7.73789 15.382C7.78918 15.2179 7.72351 15.0936 7.6798 15.0341C7.63605 14.9747 7.53707 14.8749 7.36508 14.8749H3.12809C2.39212 14.8749 1.71361 14.5396 1.26647 13.9551C0.819322 13.3705 0.673386 12.6278 0.866079 11.9175L2.01005 7.66153C2.28689 6.64107 3.21703 5.92963 4.27249 5.92963H12.4356C12.8671 5.92963 13.2169 6.2794 13.2169 6.71088Z" fill="#110E0E"/>
</svg>
