<svg width="15" height="15" viewBox="0 0 15 15" fill="none" xmlns="http://www.w3.org/2000/svg">
<path d="M7.63485 12.1062L0.809649 5.28101L0.295791 5.78911C-0.0986066 6.18357 -0.0986066 6.82536 0.295849 7.21978L6.06995 12.9939C6.10643 13.0304 6.14366 13.0658 6.18149 13.1004H3.90159C3.66215 13.1004 3.46802 13.2945 3.46802 13.5339C3.46802 13.7734 3.66215 13.9675 3.90159 13.9675H13.4978C14.215 13.9675 14.7985 13.384 14.7985 12.6668V12.2332H7.94144C7.82643 12.2332 7.71616 12.1875 7.63485 12.1062Z" fill="#EB5757"/>
<path d="M2.16781 13.1003H0.433563C0.19412 13.1003 0 13.2945 0 13.5339C0 13.7733 0.19412 13.9675 0.433563 13.9675H2.16781C2.40726 13.9675 2.60138 13.7733 2.60138 13.5339C2.60138 13.2945 2.40726 13.1003 2.16781 13.1003Z" fill="#EB5757"/>
<path d="M2.16781 11.366H0.433563C0.19412 11.366 0 11.5601 0 11.7995C0 12.039 0.19412 12.2331 0.433563 12.2331H2.16781C2.40726 12.2331 2.60138 12.039 2.60138 11.7995C2.60138 11.5601 2.40726 11.366 2.16781 11.366Z" fill="#EB5757"/>
<path d="M12.0521 8.4756H10.475L9.01434 8.96249C8.96888 8.97764 8.92263 8.98483 8.87719 8.98483C8.69565 8.98483 8.5265 8.86994 8.46592 8.68825C8.39022 8.46109 8.51297 8.21555 8.74013 8.13982L9.72065 7.81297L9.28599 7.20465L8.01622 7.62793C7.97076 7.64307 7.92451 7.65027 7.87907 7.65027C7.69753 7.65027 7.52838 7.53537 7.4678 7.35368C7.3921 7.12655 7.51485 6.88098 7.74201 6.80525L9.33431 6.27449C9.29619 5.56443 8.79271 4.95244 8.07577 4.79373C7.26402 4.61409 6.65059 3.96822 6.51298 3.14836C6.38453 2.38312 5.72805 1.82764 4.95203 1.82764C4.53365 1.82764 4.1391 1.98938 3.84058 2.28354L1.42578 4.67126L8.12054 11.366H14.798V11.2215C14.798 9.70741 13.5662 8.4756 12.0521 8.4756Z" fill="#EB5757"/>
</svg>
