<svg width="38" height="31" viewBox="0 0 38 31" fill="none" xmlns="http://www.w3.org/2000/svg">
<path d="M19.1933 25.8371L2.0368 8.6806L0.745115 9.95783C-0.24628 10.9494 -0.24628 12.5626 0.74526 13.5541L15.2596 28.0685C15.3513 28.1602 15.4449 28.2492 15.54 28.3361H9.80898C9.2071 28.3361 8.71914 28.824 8.71914 29.4259C8.71914 30.0278 9.2071 30.5158 9.80898 30.5158H33.9309C35.7337 30.5158 37.2004 29.0491 37.2004 27.2462V26.1564H19.9639C19.6748 26.1563 19.3976 26.0415 19.1933 25.8371Z" fill="#61AEFF"/>
<path d="M5.44922 28.3359H1.08984C0.48796 28.3359 0 28.8239 0 29.4258C0 30.0276 0.48796 30.5156 1.08984 30.5156H5.44922C6.05111 30.5156 6.53906 30.0276 6.53906 29.4258C6.53906 28.8239 6.05111 28.3359 5.44922 28.3359Z" fill="#61AEFF"/>
<path d="M5.44922 23.9765H1.08984C0.48796 23.9765 0 24.4645 0 25.0664C0 25.6683 0.48796 26.1562 1.08984 26.1562H5.44922C6.05111 26.1562 6.53906 25.6683 6.53906 25.0664C6.53906 24.4645 6.05111 23.9765 5.44922 23.9765Z" fill="#61AEFF"/>
<path d="M30.2972 16.7109H26.3328L22.6611 17.9348C22.5469 17.9729 22.4306 17.991 22.3164 17.991C21.86 17.991 21.4348 17.7022 21.2826 17.2455C21.0923 16.6745 21.4008 16.0573 21.9718 15.8669L24.4366 15.0453L23.344 13.5162L20.1522 14.5802C20.0379 14.6182 19.9216 14.6363 19.8074 14.6363C19.3511 14.6363 18.9259 14.3475 18.7736 13.8908C18.5833 13.3199 18.8919 12.7026 19.4629 12.5122L23.4654 11.178C23.3696 9.39315 22.104 7.8548 20.3018 7.45584C18.2614 7.00428 16.7194 5.38078 16.3735 3.31988C16.0506 1.39631 14.4004 0 12.4497 0C11.398 0 10.4063 0.406584 9.65588 1.14601L3.58582 7.148L20.4144 23.9766H37.1995V23.6133C37.1995 19.8073 34.1031 16.7109 30.2972 16.7109Z" fill="#61AEFF"/>
</svg>
