<svg width="100" height="100" viewBox="0 0 100 100" fill="none" xmlns="http://www.w3.org/2000/svg">
<rect x="-0.000228882" y="-0.000488281" width="100" height="100" rx="50" fill="white"/>
<g clip-path="url(#clip0_350_24193)">
<path d="M55.6154 54.8173C55.2172 54.8173 54.8271 54.6806 54.5133 54.4243C54.1086 54.0935 53.8737 53.5984 53.8737 53.0757V34.8553C53.8737 33.8935 54.6535 33.1138 55.6153 33.1138H72.6778C73.5932 33.1138 74.4395 33.5289 74.9996 34.2529C75.5599 34.9769 75.7495 35.9003 75.5198 36.7864L73.5076 44.5495C72.4394 48.6701 69.2127 51.8796 65.0866 52.9256C65.0596 52.9324 65.0326 52.9385 65.0055 52.944L55.9622 54.7824C55.8472 54.8058 55.731 54.8173 55.6154 54.8173ZM57.357 36.5968V50.9445L64.269 49.5394C67.1443 48.7959 69.3904 46.5523 70.1361 43.6755L71.9709 36.5969L57.357 36.5968Z" fill="#FFC250"/>
<path d="M47.108 54.8173C46.9924 54.8173 46.8764 54.8058 46.7611 54.7824L37.7179 52.944C37.6908 52.9385 37.6638 52.9323 37.6369 52.9256C33.5107 51.8795 30.2839 48.6701 29.2159 44.5494L27.2036 36.7864C26.9738 35.9004 27.1633 34.9769 27.7236 34.253C28.2838 33.529 29.1301 33.1138 30.0455 33.1138H47.108C48.0698 33.1138 48.8496 33.8935 48.8496 34.8553V53.0757C48.8496 53.5984 48.6148 54.0935 48.21 54.4243C47.8964 54.6806 47.5062 54.8173 47.108 54.8173ZM38.4545 49.5394L45.3666 50.9445V36.5968H30.7527L32.5875 43.6754C33.3331 46.5523 35.5792 48.7958 38.4545 49.5394Z" fill="#FFC250"/>
<path d="M57.325 68.0993C52.8051 66.6074 49.6548 61.9601 49.4877 56.6126C49.6698 55.7676 49.7652 54.8939 49.7652 54.003V48.0923H48.4949V54.003C48.4949 59.5141 44.8487 64.3604 39.5533 65.8874V69.4686H58.4221V68.4615L57.325 68.0993Z" fill="#FFD064"/>
<path d="M62.0731 65.5711C57.4275 64.2314 54.2287 59.9798 54.2287 55.1449V48.0923H48.4948V54.003C48.4948 54.894 48.3995 55.7676 48.2173 56.6126C48.3844 61.9601 51.5347 66.6074 56.0547 68.0993L57.1519 68.4615V69.4686H63.1703V65.8874L62.0731 65.5711Z" fill="#FFC250"/>
<path d="M59.754 65.8491H37.498C36.6301 65.8491 35.9265 66.5527 35.9265 67.4207V75.3116H61.3254V67.4207C61.3255 66.5527 60.6219 65.8491 59.754 65.8491Z" fill="#FFE07D"/>
<path d="M65.2262 65.8491H58.9382C59.8061 65.8491 60.5097 66.5528 60.5097 67.4207V75.3116H66.7977V67.4207C66.7976 66.5528 66.0941 65.8491 65.2262 65.8491Z" fill="#FFD064"/>
<path d="M59.2631 39.928V31.1089H38.2829V39.6228C38.2829 46.6076 42.0642 53.0451 48.1649 56.4463C48.6187 56.6993 49.0952 56.8945 49.5837 57.032C55.5755 53.4343 59.2631 46.948 59.2631 39.928Z" fill="#FFE07D"/>
<path d="M58.1384 31.1089V39.6228C58.1384 46.6076 54.3571 53.0451 48.2563 56.4463C48.2411 56.4547 48.2259 56.4631 48.2106 56.4715C50.1891 57.5541 52.5865 57.5456 54.5585 56.4463C60.6592 53.045 64.4406 46.6076 64.4406 39.6228V31.1089H58.1384Z" fill="#FFD064"/>
<path d="M64.4621 76.6147V75.6308C64.4621 74.6687 63.6825 73.8887 62.7205 73.8882H34.5147C33.5524 73.8882 32.7722 74.6684 32.7722 75.6308C32.7722 76.5931 33.5524 77.3733 34.5147 77.3733H63.6464L64.4621 76.6147Z" fill="#FFD064"/>
<path d="M68.2092 73.8882H61.904C62.8664 73.8882 63.6466 74.6684 63.6466 75.6308V77.3733H68.2092C69.1716 77.3733 69.9518 76.5931 69.9518 75.6308C69.9518 74.6684 69.1716 73.8882 68.2092 73.8882Z" fill="#FFC250"/>
<path d="M62.705 31.0432V29.6535L61.3545 28.9731H37.1381C35.9948 28.9731 35.0681 29.8999 35.0681 31.0431C35.0681 32.1864 35.9948 33.1131 37.1381 33.1131H60.635C61.7782 33.1133 62.705 32.1865 62.705 31.0432Z" fill="#FFD064"/>
<path d="M65.586 28.9731H61.3539V31.0431C61.3539 32.1864 60.427 33.1131 59.2839 33.1131H65.5861C66.7293 33.1131 67.6561 32.1864 67.6561 31.0431C67.6561 29.8999 66.7292 28.9731 65.586 28.9731Z" fill="#FFC250"/>
<path d="M60.5092 70.7834H42.2139C41.8044 70.7834 41.4724 70.4514 41.4724 70.0418C41.4724 69.6323 41.8044 69.3003 42.2139 69.3003H60.5092C60.9188 69.3003 61.2507 69.6323 61.2507 70.0418C61.2507 70.4514 60.9188 70.7834 60.5092 70.7834Z" fill="#F4FBFF"/>
<path d="M51.9283 38.1897L53.0221 41.1859C53.1062 41.4164 53.3217 41.573 53.567 41.5818L56.7546 41.6962C57.3167 41.7164 57.5477 42.4271 57.1047 42.7738L54.5932 44.7399C54.3999 44.8912 54.3176 45.1445 54.385 45.3804L55.2613 48.4473C55.4158 48.9881 54.8113 49.4274 54.3446 49.1133L51.6985 47.3323C51.4949 47.1952 51.2286 47.1952 51.025 47.3323L48.379 49.1133C47.9124 49.4274 47.3078 48.9881 47.4623 48.4473L48.3385 45.3804C48.406 45.1444 48.3237 44.8911 48.1304 44.7399L45.6188 42.7738C45.1759 42.427 45.4068 41.7164 45.969 41.6962L49.1565 41.5818C49.4018 41.573 49.6173 41.4165 49.7015 41.1859L50.7953 38.1897C50.9881 37.6614 51.7354 37.6614 51.9283 38.1897Z" fill="#EF956D"/>
</g>
<defs>
<clipPath id="clip0_350_24193">
<rect width="48.5075" height="48.5075" fill="white" transform="translate(27.1082 28.9194)"/>
</clipPath>
</defs>
</svg>
