<svg width="15" height="15" viewBox="0 0 15 15" fill="none" xmlns="http://www.w3.org/2000/svg">
<path d="M15 9.75V13.25V13.2812C15 13.6875 14.6562 14.0312 14.25 14.0312V14H10.75C10.0625 14 9.71875 13.2188 10.2188 12.7188L11.3438 11.5938L8 8.25L4.625 11.5938L5.78125 12.7188C6.25 13.2188 5.90625 14 5.25 14H1.75H1.71875C1.3125 14 0.96875 13.6875 0.96875 13.2812C0.96875 13.2812 1 13.2812 1 13.25L1 9.75C1 9.09375 1.78125 8.75 2.28125 9.21875L3.40625 10.375L6.75 7L3.40625 3.65625L2.28125 4.78125C1.78125 5.28125 1 4.9375 1 4.25L1 0.75C1 0.34375 1.3125 0 1.71875 0C1.71875 0 1.71875 0 1.75 0L5.25 0C5.90625 0 6.25 0.8125 5.78125 1.28125L4.625 2.4375L8 5.78125L11.3438 2.4375L10.2188 1.28125C9.71875 0.8125 10.0625 0 10.75 0L14.25 0C14.6562 0 15 0.34375 15 0.75V4.25C15 4.9375 14.1875 5.28125 13.7188 4.78125L12.5625 3.65625L9.21875 7L12.5625 10.375L13.7188 9.25C14.1875 8.75 15 9.09375 15 9.75Z" fill="#FBBF24"/>
</svg>
