<svg width="50" height="40" viewBox="0 0 50 40" fill="none" xmlns="http://www.w3.org/2000/svg">
<path d="M1.21173 8.73047H48.79V39.9995H1.21173V8.73047Z" fill="#C7C7C7"/>
<path d="M5.65224 36.209H11.181C11.75 36.209 12.2533 36.5387 12.4721 37.0402C12.6034 37.3424 12.9024 37.5348 13.2525 37.5348C13.5953 37.5348 13.9017 37.3424 14.033 37.0402C14.2518 36.5318 14.7551 36.209 15.324 36.209H18.4969C19.0658 36.209 19.5691 36.5387 19.7879 37.0402C19.9192 37.3424 20.2182 37.5348 20.5683 37.5348C20.9111 37.5348 21.2175 37.3424 21.3488 37.0402C21.5676 36.5318 22.0709 36.209 22.6398 36.209H22.9316C23.5005 36.209 24.0038 36.5387 24.2226 37.0402C24.3539 37.3424 24.6529 37.5348 25.003 37.5348C25.3459 37.5348 25.6522 37.3424 25.7835 37.0402C26.0023 36.5318 26.5056 36.209 27.0745 36.209H27.3663C27.9352 36.209 28.4385 36.5387 28.6573 37.0402C28.7886 37.3424 29.0876 37.5348 29.4377 37.5348C29.7806 37.5348 30.0869 37.3424 30.2182 37.0402C30.437 36.5318 30.9403 36.209 31.5092 36.209H34.6821C35.251 36.209 35.7543 36.5387 35.9731 37.0402C36.1044 37.3424 36.4034 37.5348 36.7536 37.5348C37.0964 37.5348 37.4027 37.3424 37.534 37.0402C37.7528 36.5318 38.2561 36.209 38.825 36.209H44.3538C45.302 36.209 46.0752 36.9371 46.0752 37.8301V40.0008H3.95276V37.8301C3.93088 36.9371 4.70404 36.209 5.65224 36.209Z" fill="#E7E7EA"/>
<path d="M11.1821 36.75C11.5176 36.75 11.8166 36.9492 11.9406 37.2446C12.1521 37.7323 12.6554 38.0758 13.2535 38.0758C13.8443 38.0758 14.3549 37.7323 14.5664 37.2446C14.6904 36.9492 14.9895 36.75 15.325 36.75H18.4979C18.8334 36.75 19.1324 36.9492 19.2564 37.2446C19.468 37.7323 19.9712 38.0758 20.5693 38.0758C21.1602 38.0758 21.6707 37.7323 21.8823 37.2446C22.0062 36.9492 22.3053 36.75 22.6408 36.75H22.9326C23.2681 36.75 23.5672 36.9492 23.6911 37.2446C23.9027 37.7323 24.406 38.0758 25.0041 38.0758C25.5949 38.0758 26.1054 37.7323 26.317 37.2446C26.441 36.9492 26.74 36.75 27.0755 36.75H27.3673C27.7028 36.75 28.0019 36.9492 28.1259 37.2446C28.3374 37.7323 28.8407 38.0758 29.4388 38.0758C30.0296 38.0758 30.5401 37.7323 30.7517 37.2446C30.8757 36.9492 31.1747 36.75 31.5102 36.75H34.6831C35.0186 36.75 35.3177 36.9492 35.4417 37.2446C35.6532 37.7323 36.1565 38.0758 36.7546 38.0758C37.3454 38.0758 37.856 37.7323 38.0675 37.2446C38.1915 36.9492 38.4905 36.75 38.8261 36.75H44.3549C44.9894 36.75 45.5 37.2309 45.5 37.8285V39.9992H4.52269V37.8285C4.52269 37.2309 5.03328 36.75 5.66785 36.75H11.1821Z" fill="#C7C7C7"/>
<path d="M1.21173 33.1777H48.79V34.8126H1.21173V33.1777Z" fill="#A5A5A7"/>
<path d="M1.21173 33.1777H48.79V33.9952H1.21173V33.1777Z" fill="#8B8B8D"/>
<path d="M0.780567 13.9924H49.2195C49.6499 13.9924 50 13.6626 50 13.2573V9.46548C50 9.06019 49.6499 8.73047 49.2195 8.73047H0.780567C0.350224 8.73047 0.000110626 9.06019 0.000110626 9.46548V13.2573C-0.00718307 13.6626 0.34293 13.9924 0.780567 13.9924Z" fill="#404040"/>
<path d="M37.7234 7.84546L41.0859 7.81799L41.0568 4.78176C41.0568 4.39021 40.7139 4.07422 40.2982 4.07422L38.4455 4.08795C38.0298 4.08795 37.6943 4.41081 37.6943 4.80236L37.7234 7.84546Z" fill="#808080"/>
<path d="M40.3786 4.28949L40.4102 7.82031L39.3015 7.8291L39.2699 4.29828L40.3786 4.28949Z" fill="#E6E6E6"/>
<path d="M36.4175 9.37714L42.4277 9.32905L42.4204 8.21622C42.4132 7.72163 41.9901 7.33008 41.4649 7.33008L37.3512 7.36443C36.826 7.3713 36.4102 7.76971 36.4102 8.2643L36.4175 9.37714Z" fill="#404040"/>
<path d="M8.90703 7.83167H12.2695V4.79544C12.2695 4.40389 11.934 4.08789 11.5183 4.08789H9.66559C9.24984 4.08789 8.91432 4.40389 8.91432 4.79544V7.83167H8.90703Z" fill="#808080"/>
<path d="M8.13365 8.69063H13.0352V4.25992C13.0352 3.68977 12.5392 3.22266 11.9338 3.22266H9.22774C8.62234 3.22266 8.12635 3.68977 8.12635 4.25992V8.69063H8.13365Z" fill="#FBBF24"/>
<path d="M10.7446 3.53125H12.1523V7.83144H10.7446V3.53125Z" fill="#FF9E8F"/>
<path d="M7.58649 9.35546H13.5967V8.24262C13.5967 7.74803 13.1736 7.34961 12.6485 7.34961H8.53469C8.00953 7.34961 7.58649 7.74803 7.58649 8.24262V9.35546Z" fill="#404040"/>
<path d="M8.36509 11.3344C8.36509 12.4884 9.35706 13.4226 10.5824 13.4226C11.8078 13.4226 12.7998 12.4884 12.7998 11.3344C12.7998 10.1803 11.8078 9.24609 10.5824 9.24609C9.36436 9.24609 8.36509 10.1803 8.36509 11.3344Z" fill="#FBBF24"/>
<path d="M37.1981 11.3344C37.1981 12.4884 38.1901 13.4226 39.4155 13.4226C40.6408 13.4226 41.6328 12.4884 41.6328 11.3344C41.6328 10.1803 40.6408 9.24609 39.4155 9.24609C38.1901 9.24609 37.1981 10.1803 37.1981 11.3344Z" fill="#3F5CA8"/>
<path d="M10.1462 9.78906H11.0288V12.8734H10.1462V9.78906Z" fill="#F3F3F5"/>
<path d="M8.94964 10.916H12.2246V11.7472H8.94964V10.916Z" fill="#F3F3F5"/>
<path d="M41.1041 10.8588L41.1123 11.7793L37.7206 11.806L37.7125 10.8855L41.1041 10.8588Z" fill="#F3F3F5"/>
<path d="M38.6054 16.96H44.5426C44.8855 16.96 45.1699 16.699 45.1699 16.3692V15.9365C45.1699 15.6136 44.8928 15.3457 44.5426 15.3457H38.6054C38.2626 15.3457 37.9781 15.6067 37.9781 15.9365V16.3692C37.9781 16.699 38.2626 16.96 38.6054 16.96Z" fill="#EAEAEA"/>
<path d="M38.7447 15.8887H44.3975V16.4313H38.7447V15.8887Z" fill="#707070"/>
<path d="M29.475 16.96H35.4123C35.7551 16.96 36.0396 16.699 36.0396 16.3692V15.9365C36.0396 15.6136 35.7624 15.3457 35.4123 15.3457H29.475C29.1322 15.3457 28.8477 15.6067 28.8477 15.9365V16.3692C28.8477 16.699 29.1249 16.96 29.475 16.96Z" fill="#EAEAEA"/>
<path d="M29.6153 15.8887H35.2681V16.4313H29.6153V15.8887Z" fill="#707070"/>
<path d="M14.5883 16.96H20.5256C20.8684 16.96 21.1528 16.699 21.1528 16.3692V15.9365C21.1528 15.6136 20.8757 15.3457 20.5256 15.3457H14.5883C14.2455 15.3457 13.961 15.6067 13.961 15.9365V16.3692C13.961 16.699 14.2382 16.96 14.5883 16.96Z" fill="#EAEAEA"/>
<path d="M14.7266 15.8887H20.3794V16.4313H14.7266V15.8887Z" fill="#707070"/>
<path d="M5.44767 16.96H11.3849C11.7277 16.96 12.0122 16.699 12.0122 16.3692V15.9365C12.0122 15.6136 11.735 15.3457 11.3849 15.3457H5.44767C5.10486 15.3457 4.82039 15.6067 4.82039 15.9365V16.3692C4.82769 16.699 5.10486 16.96 5.44767 16.96Z" fill="#EAEAEA"/>
<path d="M5.5933 15.8887H11.2461V16.4313H5.5933V15.8887Z" fill="#707070"/>
<path d="M9.13176 18.3965H40.8604V32.1282H9.13176V18.3965Z" fill="#EAEAEA"/>
<path d="M14.1135 26.7023H40.8604V25.2598H13.6394L14.1135 26.7023Z" fill="#FBBF24"/>
<path d="M15.0107 29.2359H40.8604V26.7012H14.1135L15.0107 29.2359Z" fill="#3F5CA8"/>
<path d="M12.8805 22.5043H9.86813L16.7974 32.1282L11.4145 23.3699H14.9593L11.1227 18.3965H9.13145L12.8805 22.5043Z" fill="#3F5CA8"/>
<path d="M14.9593 23.3699H11.4145L16.7974 32.1282L13.3109 24.2629H16.7974L12.8805 18.3965H11.1227L14.9593 23.3699Z" fill="#FBBF24"/>
<path d="M25.1143 23.1426H23.743V23.4448C23.8597 23.5479 23.9618 23.6578 24.042 23.7746C24.1369 23.9188 24.2171 24.0768 24.2755 24.2554C24.3192 24.3928 24.3484 24.5577 24.363 24.7431H24.8298C24.7933 24.4821 24.735 24.2623 24.6547 24.0905C24.5745 23.9119 24.4505 23.7265 24.2755 23.5273H25.1143V23.1426Z" fill="#707070"/>
<path d="M23.3568 23.1426H22.2409V23.4929H22.9994L23.0432 23.7333C22.9921 23.7127 22.9411 23.6921 22.89 23.6784C22.839 23.6646 22.7879 23.6578 22.7368 23.6578C22.5691 23.6578 22.4305 23.7059 22.3211 23.802C22.219 23.8982 22.1606 24.0219 22.1606 24.1661C22.1606 24.2691 22.1898 24.3653 22.2409 24.4615C22.2919 24.5577 22.3722 24.6264 22.4743 24.6813C22.5764 24.7294 22.7004 24.7569 22.8536 24.7569C22.963 24.7569 23.0578 24.75 23.138 24.7294C23.2182 24.7088 23.2839 24.6813 23.3422 24.6401C23.4006 24.5989 23.4444 24.5577 23.4808 24.5027C23.5173 24.4546 23.5465 24.3928 23.5684 24.3172L23.0943 24.2691C23.0797 24.3378 23.0578 24.3928 23.014 24.434C22.9703 24.4684 22.9192 24.489 22.8608 24.489C22.7952 24.489 22.7441 24.4684 22.7004 24.4203C22.6566 24.3722 22.6347 24.3035 22.6347 24.2142C22.6347 24.118 22.6566 24.0493 22.7004 24.0081C22.7441 23.9669 22.8025 23.9394 22.8754 23.9394C22.9192 23.9394 22.963 23.9532 23.0067 23.9738C23.0359 23.9875 23.0724 24.015 23.1088 24.0562L23.51 24.0012L23.3568 23.1426Z" fill="#707070"/>
<path d="M20.8546 24.4752H21.4454L21.5256 24.7363H22.0581L21.4235 23.1426H20.8546L20.22 24.7363H20.7671L20.8546 24.4752ZM20.964 24.1318L21.1537 23.5616L21.336 24.1318H20.964Z" fill="#707070"/>
<path d="M20.0884 23.1426H19.6216V23.7265C19.5559 23.6646 19.4976 23.6166 19.4319 23.596C19.3663 23.5685 19.2933 23.5547 19.2058 23.5547C19.0745 23.5547 18.9797 23.5891 18.9068 23.6646C18.8338 23.7402 18.7974 23.8501 18.7974 24.0012V24.7363H19.2715V24.1043C19.2715 24.0287 19.286 23.9806 19.3152 23.9532C19.3444 23.9257 19.3809 23.9051 19.4319 23.9051C19.4903 23.9051 19.534 23.9257 19.5705 23.9669C19.607 24.0081 19.6216 24.0768 19.6216 24.1867V24.7431H20.0884V23.1426Z" fill="#707070"/>
<path d="M36.1414 30.3152H35.091V29.752H36.1414V30.3152ZM32.8008 29.752H34.2741V30.3152H32.8008V29.752ZM34.8722 31.3869H31.4295V30.8236H34.8722V31.3869ZM27.7461 29.752H31.9838V30.3152H27.7461V29.752ZM37.2136 31.3869H35.6964V30.8236H37.2136V31.3869ZM25.3026 29.752H26.9218V30.3152H25.3026V29.752ZM30.6126 31.3869H28.7453V30.8236H30.6126V31.3869ZM19.5914 31.3869H18.8329V30.8236H19.5914V31.3869ZM39.3799 31.3869H38.0378V30.8236H39.3799V31.3869ZM20.4448 29.752V30.3152H18.8402V29.752H20.4448ZM36.9656 29.752H39.3799V30.3152H36.9656V29.752ZM27.9211 31.3869H23.9824V30.8236H27.9211V31.3869ZM23.1582 31.3869H20.4157V30.8236H23.1582V31.3869ZM21.2618 29.752H24.4784V30.3152H21.2618V29.752Z" fill="#707070"/>
<path d="M29.4661 19.5234H35.7681V21.1446H29.4661V19.5234Z" fill="#707070"/>
<path d="M18.8333 19.5234H22.1885V21.1446H18.8333V19.5234Z" fill="#707070"/>
<path d="M23.0126 19.5234H28.6436V21.1446H23.0126V19.5234Z" fill="#707070"/>
<path d="M36.5936 19.5234H39.3799V21.1446H36.5936V19.5234Z" fill="#707070"/>
<path d="M38.5435 23.3633V24.7646H38.952V23.851C39.0176 23.8991 39.0832 23.9403 39.1416 23.9678C39.2072 23.9953 39.2802 24.0227 39.375 24.0502V23.7342C39.2364 23.693 39.127 23.6449 39.0541 23.5831C38.9811 23.5213 38.9155 23.4526 38.8717 23.3633H38.5435Z" fill="#707070"/>
<path d="M36.9162 24.7646H38.1343C38.1197 24.6547 38.0759 24.5448 38.0103 24.4418C37.9373 24.3387 37.8061 24.2219 37.6091 24.0914C37.4924 24.009 37.4122 23.9472 37.383 23.8991C37.3465 23.8579 37.3319 23.8166 37.3319 23.7754C37.3319 23.7342 37.3465 23.6999 37.383 23.6655C37.4195 23.638 37.4559 23.6243 37.507 23.6243C37.5581 23.6243 37.6018 23.6381 37.631 23.6724C37.6675 23.6999 37.6893 23.7548 37.6966 23.8373L38.1051 23.8029C38.0905 23.693 38.0613 23.6106 38.0176 23.5487C37.9738 23.4869 37.9155 23.4388 37.8352 23.4114C37.755 23.377 37.6529 23.3633 37.5143 23.3633C37.3684 23.3633 37.259 23.377 37.1788 23.4114C37.0985 23.4388 37.0402 23.4869 36.9891 23.5556C36.9454 23.6174 36.9235 23.693 36.9235 23.7686C36.9235 23.851 36.9527 23.9334 37.0037 24.009C37.0548 24.0845 37.1496 24.167 37.2882 24.2632C37.3684 24.3181 37.4268 24.3525 37.4487 24.3731C37.4778 24.3937 37.507 24.4212 37.5435 24.4555H36.9089V24.7646H36.9162Z" fill="#707070"/>
<path d="M36.8223 23.7676H36.3992L36.195 24.3996L35.9835 23.7676H35.575L36.0272 24.7636H36.3846L36.8223 23.7676Z" fill="#707070"/>
<path d="M35.4492 2.23943V10.3315H32.6411L31.7512 5.00776C31.5688 3.91554 30.5696 3.1187 29.4026 3.1187H20.5988C19.4245 3.1187 18.4325 3.92241 18.2501 5.00776L17.3603 10.3315H14.5521V2.23943C14.5521 1.00296 15.617 3.50776e-05 16.9299 3.50776e-05H33.0714C34.3843 -0.00683422 35.4492 0.996091 35.4492 2.23943Z" fill="#404040"/>
</svg>
