<svg width="23" height="14" viewBox="0 0 23 14" fill="none" xmlns="http://www.w3.org/2000/svg">
<path d="M21.375 0.5C21.9727 0.5 22.5 1.02734 22.5 1.625V12.875C22.5 13.5078 21.9727 14 21.375 14H1.125C0.492187 14 0 13.5078 0 12.875L0 1.625C0 1.02734 0.492188 0.5 1.125 0.5L21.375 0.5ZM1.6875 12.3125H3.9375C3.9375 11.082 2.91797 10.0625 1.6875 10.0625V12.3125ZM1.6875 4.4375C2.91797 4.4375 3.9375 3.45312 3.9375 2.1875H1.6875V4.4375ZM11.25 10.625C12.7969 10.625 14.0625 9.14844 14.0625 7.25C14.0625 5.38672 12.7969 3.875 11.25 3.875C9.66797 3.875 8.4375 5.38672 8.4375 7.25C8.4375 9.14844 9.66797 10.625 11.25 10.625ZM20.8125 12.3125V10.0625C19.5469 10.0625 18.5625 11.082 18.5625 12.3125H20.8125ZM20.8125 4.4375V2.1875H18.5625C18.5625 3.45312 19.5469 4.4375 20.8125 4.4375Z" fill="#FBBF24"/>
</svg>
