<svg width="13" height="8" viewBox="0 0 13 8" fill="none" xmlns="http://www.w3.org/2000/svg">
<path d="M11.875 0.5C12.207 0.5 12.5 0.792969 12.5 1.125V7.375C12.5 7.72656 12.207 8 11.875 8H0.625C0.273437 8 0 7.72656 0 7.375L0 1.125C0 0.792969 0.273438 0.5 0.625 0.5L11.875 0.5ZM0.9375 7.0625H2.1875C2.1875 6.37891 1.62109 5.8125 0.9375 5.8125V7.0625ZM0.9375 2.6875C1.62109 2.6875 2.1875 2.14062 2.1875 1.4375H0.9375V2.6875ZM6.25 6.125C7.10938 6.125 7.8125 5.30469 7.8125 4.25C7.8125 3.21484 7.10938 2.375 6.25 2.375C5.37109 2.375 4.6875 3.21484 4.6875 4.25C4.6875 5.30469 5.37109 6.125 6.25 6.125ZM11.5625 7.0625V5.8125C10.8594 5.8125 10.3125 6.37891 10.3125 7.0625H11.5625ZM11.5625 2.6875V1.4375H10.3125C10.3125 2.14062 10.8594 2.6875 11.5625 2.6875Z" fill="#1C2B39"/>
</svg>
