<svg width="18" height="24" viewBox="0 0 18 24" fill="none" xmlns="http://www.w3.org/2000/svg">
<path d="M15.75 3C16.9688 3 18 4.03125 18 5.25V21.75C18 23.0156 16.9688 24 15.75 24H2.25C0.984375 24 0 23.0156 0 21.75V5.25C0 4.03125 0.984375 3 2.25 3H6C6 1.35938 7.3125 0 9 0C10.6406 0 12 1.35938 12 3H15.75ZM9 1.875C8.34375 1.875 7.875 2.39062 7.875 3C7.875 3.65625 8.34375 4.125 9 4.125C9.60938 4.125 10.125 3.65625 10.125 3C10.125 2.39062 9.60938 1.875 9 1.875ZM14.6719 12.75C14.8594 12.5625 14.9062 12.1875 14.6719 11.9531L13.3594 10.6406C13.125 10.4062 12.75 10.4062 12.5625 10.6406L7.59375 15.5625L5.4375 13.4062C5.20312 13.1719 4.82812 13.1719 4.64062 13.3594L3.28125 14.7188C3.09375 14.9062 3.04688 15.2812 3.28125 15.5156L7.17188 19.4062C7.35938 19.6406 7.73438 19.6406 7.96875 19.4062L14.6719 12.75Z" fill="#1C2B39"/>
</svg>
