<svg width="55" height="40" viewBox="0 0 55 40" fill="none" xmlns="http://www.w3.org/2000/svg">
<path d="M33.54 12.1313L33.3982 10.3574L30.6451 11.5777L31.9685 12.8318L33.54 12.1313Z" fill="#9E9E9E"/>
<path d="M33.5317 12.1442L38.1289 21.6758L36.5623 22.3666L31.9651 12.8351L33.5317 12.1442Z" fill="#9E9E9E"/>
<path d="M32.5639 12.5583L37.1611 22.0898L36.7641 22.2649L32.1669 12.7333L32.5639 12.5583Z" fill="#6E6E6E"/>
<path d="M33.333 12.2302L37.9302 21.7617L37.5332 21.9368L32.936 12.4052L33.333 12.2302Z" fill="#DBDBDB"/>
<path d="M32.391 8.27268L33.3955 10.3555L30.6379 11.5715L29.6333 9.48873L32.391 8.27268Z" fill="#A4A4A4"/>
<path d="M30.6255 9.24593L31.5459 11.1543L30.827 11.4713L29.9065 9.56296L30.6255 9.24593Z" fill="#6E6E6E"/>
<path d="M32.302 8.52934L33.2227 10.4375L32.5038 10.7546L31.5832 8.84645L32.302 8.52934Z" fill="#DBDBDB"/>
<path d="M32.1695 12.7409L30.8343 11.4867L32.4886 10.7637L32.5713 12.5601L32.1695 12.7409Z" fill="#6E6E6E"/>
<path d="M32.8091 10.6163L32.9391 12.4014L33.3408 12.2207L33.2108 10.4355L32.8091 10.6163Z" fill="#DBDBDB"/>
<path d="M37.9359 21.2717L38.1289 21.6719L36.5623 22.3627L36.3693 21.9626L37.9359 21.2717Z" fill="#6E6E6E"/>
<path d="M50.2267 18.0154L51.5501 16.75L52.8145 19.3825L50.9593 19.5181L50.2267 18.0154Z" fill="#9E9E9E"/>
<path d="M50.2209 18.0235L50.9434 19.5215L40.9751 23.9173L40.2526 22.4193L50.2209 18.0235Z" fill="#9E9E9E"/>
<path d="M50.6724 18.9505L50.8555 19.3301L40.8872 23.7259L40.7041 23.3463L50.6724 18.9505Z" fill="#6E6E6E"/>
<path d="M50.3247 18.218L50.5078 18.5977L40.5396 22.9934L40.3565 22.6138L50.3247 18.218Z" fill="#DBDBDB"/>
<path d="M53.7282 15.7968L55 18.4336L52.811 19.3989L51.5393 16.762L53.7282 15.7968Z" fill="#A4A4A4"/>
<path d="M54.376 17.6251L54.7075 18.3125L52.7117 19.1926L52.3801 18.5052L54.376 17.6251Z" fill="#6E6E6E"/>
<path d="M53.626 16.0645L53.9575 16.752L51.9617 17.6321L51.6301 16.9446L53.626 16.0645Z" fill="#DBDBDB"/>
<path d="M50.8655 19.3276L52.7324 19.2033L51.9644 17.6328L50.6764 18.9434L50.8655 19.3276Z" fill="#6E6E6E"/>
<path d="M51.8218 17.3158L50.5102 18.5925L50.3211 18.2084L51.6327 16.9316L51.8218 17.3158Z" fill="#DBDBDB"/>
<path d="M40.6708 22.2203L41.3936 23.7188L40.9744 23.9036L40.2517 22.4051L40.6708 22.2203Z" fill="#6E6E6E"/>
<path d="M44.8031 35.4844L46.1265 36.7385L43.3733 37.9474L43.2315 36.1736L44.8031 35.4844Z" fill="#9E9E9E"/>
<path d="M40.1938 25.9411L44.791 35.4727L43.2244 36.1635L38.6272 26.6319L40.1938 25.9411Z" fill="#9E9E9E"/>
<path d="M39.2241 26.3786L43.8213 35.9102L43.4243 36.0852L38.8271 26.5537L39.2241 26.3786Z" fill="#6E6E6E"/>
<path d="M39.9922 26.0446L44.5894 35.5762L44.1923 35.7512L39.5951 26.2197L39.9922 26.0446Z" fill="#DBDBDB"/>
<path d="M46.1222 36.7517L47.1021 38.7832L44.3444 39.9993L43.3646 37.9678L46.1222 36.7517Z" fill="#A4A4A4"/>
<path d="M44.2839 37.5389L45.2041 39.4473L44.4852 39.7642L43.565 37.8559L44.2839 37.5389Z" fill="#6E6E6E"/>
<path d="M45.9421 36.8123L46.8623 38.7207L46.1434 39.0377L45.2232 37.1293L45.9421 36.8123Z" fill="#DBDBDB"/>
<path d="M43.4306 36.0831L43.5606 37.8682L45.2148 37.1339L43.8324 35.9023L43.4306 36.0831Z" fill="#6E6E6E"/>
<path d="M45.5343 36.9998L44.1991 35.7456L44.6008 35.5762L45.936 36.819L45.5343 36.9998Z" fill="#DBDBDB"/>
<path d="M40.1952 25.9495L40.3882 26.3496L38.8216 27.0404L38.6286 26.6403L40.1952 25.9495Z" fill="#6E6E6E"/>
<path d="M25.8119 28.7832L23.9568 28.9188L25.2211 31.5513L26.5327 30.2859L25.8119 28.7832Z" fill="#9E9E9E"/>
<path d="M35.7863 24.3946L36.5088 25.8926L26.5405 30.2884L25.818 28.7904L35.7863 24.3946Z" fill="#9E9E9E"/>
<path d="M36.2232 25.3176L36.4062 25.6973L26.438 30.0931L26.2549 29.7134L36.2232 25.3176Z" fill="#6E6E6E"/>
<path d="M35.8726 24.5833L36.0557 24.9629L26.0874 29.3587L25.9043 28.9791L35.8726 24.5833Z" fill="#DBDBDB"/>
<path d="M23.9538 28.9296L25.2256 31.5664L23.0688 32.5175L21.797 29.8807L23.9538 28.9296Z" fill="#A4A4A4"/>
<path d="M24.816 30.6778L25.1475 31.3652L23.1516 32.2451L22.8202 31.5577L24.816 30.6778Z" fill="#6E6E6E"/>
<path d="M24.0356 29.1173L24.3672 29.8047L22.3714 30.6848L22.0398 29.9974L24.0356 29.1173Z" fill="#DBDBDB"/>
<path d="M26.4395 30.0951L25.1397 31.3718L24.3717 29.79L26.2622 29.7109L26.4395 30.0951Z" fill="#6E6E6E"/>
<path d="M24.2288 29.485L26.0957 29.3607L25.9066 28.9766L24.0397 29.1008L24.2288 29.485Z" fill="#DBDBDB"/>
<path d="M35.7817 24.3902L36.5044 25.8887L36.0853 26.0735L35.3625 24.5751L35.7817 24.3902Z" fill="#6E6E6E"/>
<path d="M38.6366 22.4014L38.3175 21.7461L40.0781 22.3675L39.3928 22.6725C39.1092 22.7968 38.7665 22.6725 38.6366 22.4014Z" fill="#6E6E6E"/>
<path d="M38.8816 22.3104C38.8461 22.4121 38.8934 22.5138 39 22.5477C39.1065 22.5816 39.2131 22.5364 39.2486 22.4347C39.2841 22.333 39.2368 22.2313 39.1302 22.1974C39.0355 22.1635 38.9171 22.22 38.8816 22.3104Z" fill="#9E9E9E"/>
<path d="M39.1184 22.2438C39.1774 22.2666 39.2128 22.3121 39.2246 22.369C39.1774 22.4032 39.1184 22.4145 39.0593 22.4032C39.0003 22.3804 38.9649 22.3349 38.9531 22.278C39.0003 22.2324 39.0711 22.221 39.1184 22.2438Z" fill="#DBDBDB"/>
<path d="M40.2165 24.3891L40.9019 24.084L40.252 25.7675L39.9329 25.1121C39.803 24.841 39.9329 24.5133 40.2165 24.3891Z" fill="#6E6E6E"/>
<path d="M40.052 24.7401C40.0165 24.8418 40.0639 24.9435 40.1704 24.9774C40.2769 25.0113 40.3835 24.9661 40.419 24.8644C40.4545 24.7627 40.4072 24.661 40.3006 24.6271C40.2059 24.5932 40.0875 24.6497 40.052 24.7401Z" fill="#9E9E9E"/>
<path d="M40.3 24.6605C40.359 24.6833 40.3944 24.7288 40.4062 24.7858C40.359 24.8199 40.3 24.8313 40.241 24.8199C40.182 24.7971 40.1465 24.7516 40.1347 24.6947C40.182 24.6605 40.241 24.6491 40.3 24.6605Z" fill="#DBDBDB"/>
<path d="M38.1375 25.915L38.4565 26.5703L36.696 25.9489L37.3813 25.6439C37.6649 25.5196 38.0075 25.6326 38.1375 25.915Z" fill="#6E6E6E"/>
<path d="M37.5105 25.8593C37.475 25.9609 37.5223 26.0626 37.6289 26.0965C37.7354 26.1304 37.842 26.0852 37.8775 25.9836C37.913 25.8819 37.8657 25.7802 37.7591 25.7463C37.6644 25.7124 37.5579 25.7689 37.5105 25.8593Z" fill="#9E9E9E"/>
<path d="M37.7595 25.7816C37.8185 25.8044 37.8539 25.8499 37.8657 25.9068C37.8185 25.941 37.7595 25.9524 37.7005 25.941C37.6414 25.9182 37.606 25.8727 37.5942 25.8158C37.6414 25.7816 37.7005 25.7702 37.7595 25.7816Z" fill="#DBDBDB"/>
<path d="M36.5537 23.9136L35.8684 24.2186L36.5183 22.5352L36.8373 23.1905C36.9555 23.4616 36.8373 23.7893 36.5537 23.9136Z" fill="#6E6E6E"/>
<path d="M36.3411 23.4393C36.3056 23.541 36.3529 23.6426 36.4595 23.6765C36.566 23.7104 36.6726 23.6652 36.7081 23.5636C36.7436 23.4619 36.6962 23.3602 36.5897 23.3263C36.495 23.2811 36.3884 23.3376 36.3411 23.4393Z" fill="#9E9E9E"/>
<path d="M36.591 23.361C36.65 23.3838 36.6855 23.4293 36.6973 23.4862C36.65 23.5203 36.591 23.5317 36.532 23.5203C36.473 23.4976 36.4376 23.4521 36.4258 23.3951C36.473 23.3496 36.532 23.3382 36.591 23.361Z" fill="#DBDBDB"/>
<path d="M40.9012 24.0845L40.2159 24.3896C39.9323 24.5138 39.8023 24.8415 39.9323 25.1126L40.2513 25.768C40.3222 25.9035 40.2513 26.0617 40.1095 26.1295L38.8216 26.6944C38.6798 26.7622 38.5144 26.6944 38.4435 26.5588L38.1244 25.9035C37.9945 25.6324 37.6518 25.5081 37.3682 25.6324L36.6829 25.9374C36.5411 26.0052 36.3757 25.9374 36.3048 25.8018L35.714 24.5703C35.6431 24.4348 35.714 24.2766 35.8558 24.2088L36.5411 23.9037C36.8247 23.7795 36.9546 23.4518 36.8247 23.1806L36.5056 22.5253C36.4347 22.3898 36.5056 22.2316 36.6474 22.1638L37.9354 21.5989C38.0772 21.5311 38.2426 21.5989 38.3135 21.7344L38.6325 22.3897C38.7625 22.6609 39.1052 22.7852 39.3887 22.6609L40.0741 22.3558C40.2159 22.288 40.3813 22.3559 40.4522 22.4914L41.043 23.723C41.1139 23.8585 41.043 24.028 40.9012 24.0845Z" fill="#9E9E9E"/>
<path d="M38.1356 21.8255L38.4547 22.4808C38.6319 22.8537 39.0927 23.0119 39.4708 22.8424L40.1562 22.5373C40.2034 22.5147 40.2507 22.5373 40.2743 22.5825L40.6406 23.3282C39.3881 23.7915 37.9584 23.2491 37.3794 22.0628L38.0175 21.7804C38.0647 21.7578 38.112 21.7803 38.1356 21.8255Z" fill="#DBDBDB"/>
<path d="M36.1389 24.9093C37.4859 24.3218 39.0693 24.8528 39.731 26.0956L38.7502 26.525C38.703 26.5476 38.6557 26.525 38.6321 26.4798L38.313 25.8245C38.1358 25.4516 37.675 25.2935 37.2969 25.4629L36.6115 25.768C36.5643 25.7906 36.517 25.768 36.4934 25.7228L36.1034 24.9093C36.1153 24.9206 36.1271 24.9093 36.1389 24.9093Z" fill="#6E6E6E"/>
<path d="M16.0461 0C24.9082 0 32.0923 6.86938 32.0923 15.3431C32.0923 23.8169 24.9082 30.6863 16.0461 30.6863C7.18413 30.6863 -1.14441e-05 23.8169 -1.14441e-05 15.3431C-1.14441e-05 6.86938 7.18413 0 16.0461 0ZM16.0461 28.8334C23.8329 28.8334 30.1545 22.8001 30.1545 15.3431C30.1545 7.89753 23.8447 1.85291 16.0461 1.85291C8.25938 1.85291 1.93781 7.88623 1.93781 15.3431C1.94963 22.8001 8.25938 28.8334 16.0461 28.8334Z" fill="#333333"/>
<path d="M21.6118 22.733C22.4153 22.1681 23.1361 21.4902 23.7269 20.7219L23.9396 20.4508L23.6206 20.3039C22.4272 19.739 21.2101 18.9933 20.0994 18.1572L19.9222 18.0216C19.674 17.8409 19.4968 17.5923 19.4023 17.3098C19.1896 16.6997 19.4259 16.0218 19.9694 15.649C20.0994 15.5586 20.253 15.4908 20.4066 15.4343C20.5248 15.4004 20.6429 15.3778 20.7729 15.3665C22.309 15.2987 23.8805 15.3778 25.2275 15.5925L25.582 15.649V15.31C25.5702 13.3893 24.944 11.559 23.7742 9.9998L23.5615 9.72861L23.3134 9.97718C22.5689 10.7003 21.6827 11.4234 20.7375 12.0787C20.5248 12.2256 20.3121 12.3724 20.0876 12.5193L19.9103 12.6323C19.6504 12.8018 19.355 12.8809 19.0478 12.8809C18.6342 12.8809 18.2443 12.7227 17.9489 12.4402C17.6535 12.1578 17.4881 11.7849 17.4881 11.3895C17.4881 11.2652 17.4999 11.1522 17.5353 11.0392C17.9489 9.61563 18.516 8.21465 19.1423 7.06222L19.3077 6.75718L18.9651 6.65546C18.0198 6.3617 17.0272 6.21484 16.0347 6.21484C15.0421 6.21484 14.0614 6.3617 13.1161 6.65546L12.7735 6.75718L12.9389 7.06222C13.5415 8.15816 14.085 9.48005 14.475 10.7907L14.5341 10.9827C14.6168 11.2652 14.6168 11.5703 14.5222 11.8527C14.4159 12.1578 14.2268 12.4063 13.9551 12.5984C13.5533 12.8809 13.0334 12.96 12.5608 12.8131C12.4426 12.7792 12.3245 12.7227 12.2181 12.6662C10.9302 11.8527 9.71312 10.9149 8.75603 9.97718L8.50788 9.72861L8.29519 9.9998C7.11359 11.559 6.48734 13.4006 6.48734 15.31V15.649L6.84183 15.5925C8.12977 15.3891 9.60678 15.2987 11.0365 15.3552L11.2374 15.3665C11.5446 15.3778 11.84 15.4795 12.0881 15.649C12.419 15.8862 12.6435 16.2252 12.7144 16.6206C12.7853 17.0161 12.6789 17.4115 12.4308 17.7279C12.3599 17.8183 12.2772 17.9086 12.1827 17.9877C11.8873 18.2137 11.6155 18.4058 11.3555 18.5978C10.4103 19.2531 9.4059 19.8407 8.43699 20.3039L8.11796 20.462L8.33065 20.7332C9.52407 22.2924 11.1665 23.4335 13.0689 24.0323L13.4115 24.134L13.4588 23.7951C13.6597 22.5297 14.0141 21.1965 14.4986 19.9197L14.5813 19.7277C14.6877 19.4452 14.8767 19.208 15.1249 19.0385C15.822 18.5526 16.7909 18.6995 17.299 19.3661C17.3699 19.4678 17.429 19.5695 17.4762 19.6712C18.0198 21.0609 18.4097 22.4619 18.6106 23.7951L18.6578 24.134L19.0005 24.0323C19.9222 23.7273 20.8084 23.2979 21.6118 22.733Z" fill="#6B6B6B"/>
<path d="M16.0464 6.89258C20.9264 6.89258 24.8848 10.6775 24.8848 15.3437C24.8848 20.0099 20.9264 23.7949 16.0464 23.7949C11.1664 23.7949 7.20801 20.0099 7.20801 15.3437C7.20801 10.6775 11.1664 6.89258 16.0464 6.89258ZM16.0464 23.1961C20.5719 23.1961 24.2467 19.6823 24.2467 15.355C24.2467 11.0278 20.5719 7.51397 16.0464 7.51397C11.5209 7.51397 7.84607 11.0278 7.84607 15.355C7.84607 19.6823 11.5209 23.1961 16.0464 23.1961Z" fill="#6B6B6B"/>
<path d="M16.0477 6.54297C21.1404 6.54297 25.2642 10.4861 25.2642 15.3557C25.2642 20.2253 21.1404 24.1684 16.0477 24.1684C10.955 24.1684 6.83118 20.2253 6.83118 15.3557C6.843 10.4861 10.9668 6.54297 16.0477 6.54297ZM16.0477 23.5244C20.7741 23.5244 24.6025 19.8637 24.6025 15.3444C24.6025 10.825 20.7741 7.16436 16.0477 7.16436C11.3213 7.16436 7.49289 10.825 7.49289 15.3444C7.5047 19.8637 11.3331 23.5244 16.0477 23.5244Z" fill="#C2C2C2"/>
<path d="M12.2421 15.412C11.9349 15.1973 11.5804 15.0844 11.2259 15.0731C9.65442 15.0053 8.09471 15.0957 6.77131 15.3103C6.78313 13.3896 7.43301 11.6158 8.5319 10.1696C9.47718 11.0848 10.6824 12.0451 11.994 12.8699C12.1358 12.9603 12.2776 13.0281 12.443 13.0733C13.4237 13.3783 14.4635 12.8699 14.7826 11.9321C14.9007 11.5819 14.9007 11.2316 14.8062 10.904C14.3926 9.4578 13.8137 8.0681 13.1992 6.91567C14.0972 6.64451 15.0425 6.48633 16.0351 6.48633C17.0276 6.48633 17.9729 6.63321 18.8709 6.91567C18.2447 8.0568 17.6657 9.4578 17.2521 10.904C17.2049 11.0509 17.1812 11.2091 17.1812 11.3785C17.1812 12.3615 18.0083 13.1523 19.0363 13.1523C19.4144 13.1523 19.7807 13.0394 20.0761 12.8473C21.3877 12.0225 22.593 11.0735 23.5382 10.1583C24.6371 11.6045 25.287 13.3783 25.2988 15.2991C23.9636 15.0844 22.3921 14.994 20.8324 15.0618C20.6669 15.0731 20.5015 15.0957 20.3361 15.1522C19.3554 15.4572 18.8236 16.4628 19.1427 17.3892C19.2608 17.7395 19.4853 18.0219 19.7571 18.2366C20.986 19.1744 22.2976 19.9653 23.5028 20.5415C22.3685 22.0216 20.7733 23.1514 18.9182 23.7389C18.7173 22.4622 18.3392 21.0047 17.7838 19.6037C17.7248 19.4568 17.6539 19.3213 17.5475 19.1857C16.9449 18.3948 15.7869 18.214 14.948 18.7902C14.6408 19.0049 14.4163 19.2986 14.2981 19.615C13.7428 21.016 13.3646 22.4622 13.1638 23.7389C11.3087 23.1514 9.7135 22.0216 8.57916 20.5415C9.7844 19.9653 11.1078 19.1631 12.3367 18.2253C12.4666 18.1236 12.5848 18.0106 12.6793 17.8864C13.2465 17.1068 13.0692 15.9882 12.2421 15.412Z" fill="#C2C2C2"/>
<path d="M14.0013 6.701C14.6512 6.56542 15.3129 6.48633 15.9982 6.48633C16.6835 6.48633 17.3571 6.56542 17.9951 6.701C17.2153 8.746 16.5181 11.6723 16.3881 14.2596H15.5965C15.4783 11.6836 14.793 8.746 14.0013 6.701Z" fill="#F2F2F2"/>
<path d="M23.9752 10.8477C24.3061 11.39 24.5897 11.9775 24.8024 12.5989C25.015 13.2203 25.145 13.853 25.2041 14.4857C22.9354 14.4066 19.8042 14.6778 17.1928 15.3557L16.9447 14.6326C19.4852 13.7287 22.191 12.1922 23.9752 10.8477Z" fill="#F2F2F2"/>
<path d="M22.9346 21.1968C22.4974 21.6714 22.0011 22.112 21.4458 22.4961C20.8904 22.8803 20.2996 23.1966 19.697 23.4452C19.0707 21.355 17.8301 18.5869 16.3531 16.4289L16.9911 15.9883C18.6808 17.9994 21.044 19.9879 22.9346 21.1968Z" fill="#F2F2F2"/>
<path d="M12.3231 23.4452C11.7204 23.1966 11.1296 22.8803 10.5743 22.4961C10.0189 22.112 9.52267 21.6714 9.08547 21.1968C10.976 19.9879 13.3392 17.9994 15.0289 15.9883L15.667 16.4289C14.19 18.5982 12.9375 21.355 12.3231 23.4452Z" fill="#F2F2F2"/>
<path d="M6.80516 14.4857C6.86424 13.853 6.99421 13.2203 7.2069 12.5989C7.41959 11.9775 7.70318 11.39 8.03403 10.8477C9.81825 12.1922 12.5241 13.7287 15.0527 14.6439L14.8046 15.367C12.2051 14.6891 9.07384 14.4066 6.80516 14.4857Z" fill="#F2F2F2"/>
<path d="M14.1572 15.3447C14.1572 16.3163 14.9843 17.1072 16.0005 17.1072C17.0166 17.1072 17.8438 16.3163 17.8438 15.3447C17.8438 14.373 17.0166 13.5822 16.0005 13.5822C14.9843 13.5709 14.1572 14.3617 14.1572 15.3447Z" fill="#636363"/>
<path d="M16.7563 14.112C17.3235 14.4283 17.5834 15.0611 17.4534 15.6486C17.0281 15.8294 16.5318 15.8181 16.1064 15.5808C15.5392 15.2644 15.2793 14.6317 15.4093 14.0442C15.8347 13.8634 16.3309 13.8747 16.7563 14.112Z" fill="#F2F2F2"/>
<path d="M14.1556 13.6369C14.2974 13.829 14.5809 13.8742 14.7818 13.7273C14.9827 13.5917 15.03 13.3206 14.8763 13.1285C14.7346 12.9364 14.451 12.8913 14.2501 13.0381C14.0492 13.1737 14.0138 13.4336 14.1556 13.6369Z" fill="#636363"/>
<path d="M14.8057 13.3087C14.8057 13.3313 14.8057 13.3539 14.8057 13.3765C14.782 13.3878 14.7702 13.3991 14.7465 13.4104C14.5807 13.4556 14.415 13.3539 14.3795 13.2071C14.3795 13.1845 14.3795 13.1619 14.3795 13.1393C14.4032 13.128 14.415 13.1167 14.4387 13.1054C14.6044 13.0602 14.7701 13.1506 14.8057 13.3087Z" fill="#F2F2F2"/>
<path d="M17.1328 13.1285C16.991 13.3206 17.0265 13.5917 17.2274 13.7273C17.4282 13.8629 17.7118 13.829 17.8536 13.6369C17.9954 13.4449 17.9599 13.1737 17.7591 13.0381C17.5582 12.8913 17.2746 12.9364 17.1328 13.1285Z" fill="#636363"/>
<path d="M17.7939 13.4112C17.7939 13.4338 17.782 13.4564 17.7702 13.4677C17.7465 13.4677 17.7228 13.479 17.6992 13.4677C17.5334 13.4451 17.415 13.3095 17.4387 13.1513C17.4387 13.1287 17.4505 13.1062 17.4624 13.0949C17.4861 13.0949 17.5097 13.0836 17.5334 13.0949C17.6992 13.1062 17.8175 13.253 17.7939 13.4112Z" fill="#F2F2F2"/>
<path d="M18.5498 15.6704C18.3135 15.5913 18.0536 15.7155 17.9827 15.9415C17.9 16.1675 18.0299 16.4161 18.2663 16.4838C18.5026 16.5629 18.7625 16.4387 18.8334 16.2127C18.9161 15.9867 18.7862 15.7494 18.5498 15.6704Z" fill="#636363"/>
<path d="M18.703 16.1339C18.703 16.1565 18.6912 16.1791 18.6794 16.1904C18.6557 16.1904 18.632 16.2017 18.6083 16.1904C18.4426 16.1678 18.3242 16.0322 18.3479 15.874C18.3479 15.8514 18.3597 15.8288 18.3716 15.8175C18.3952 15.8175 18.4189 15.8062 18.4426 15.8175C18.6083 15.8288 18.7267 15.9757 18.703 16.1339Z" fill="#F2F2F2"/>
<path d="M16.459 17.7614C16.459 17.5241 16.2581 17.332 16.01 17.332C15.7618 17.332 15.561 17.5241 15.561 17.7614C15.561 17.9986 15.7618 18.1907 16.01 18.1907C16.2581 18.1907 16.459 17.9986 16.459 17.7614Z" fill="#636363"/>
<path d="M16.3066 17.7606C16.3066 17.7832 16.2948 17.8058 16.2948 17.8284C16.2711 17.8284 16.2474 17.8397 16.2238 17.8397C16.058 17.8397 15.916 17.7041 15.9278 17.5459C15.9278 17.5233 15.9396 17.5007 15.9396 17.4781C15.9633 17.4781 15.987 17.4668 16.0107 17.4668C16.1764 17.4668 16.3066 17.6024 16.3066 17.7606Z" fill="#F2F2F2"/>
<path d="M13.7403 16.4956C13.9766 16.4165 14.1066 16.1792 14.0239 15.9532C13.9411 15.7273 13.693 15.603 13.4567 15.6821C13.2204 15.7499 13.0904 15.9984 13.1731 16.2244C13.244 16.4503 13.5039 16.5747 13.7403 16.4956Z" fill="#636363"/>
<path d="M13.8925 16.1241C13.8925 16.1467 13.8806 16.1693 13.8688 16.1806C13.8451 16.1806 13.8215 16.1919 13.7978 16.1806C13.632 16.158 13.5137 16.0224 13.5373 15.8643C13.5373 15.8417 13.5492 15.8191 13.561 15.8078C13.5847 15.8078 13.6084 15.7965 13.632 15.8078C13.7978 15.8191 13.9162 15.9659 13.8925 16.1241Z" fill="#F2F2F2"/>
<path d="M16.046 1.85352C23.8327 1.85352 30.1543 7.88684 30.1543 15.3437C30.1543 22.7894 23.8446 28.834 16.046 28.834C8.25922 28.834 1.93765 22.8007 1.93765 15.3437C1.94947 7.89814 8.25922 1.85352 16.046 1.85352ZM16.046 24.1565C21.1387 24.1565 25.2625 20.2133 25.2625 15.3437C25.2625 10.4742 21.1387 6.53105 16.046 6.53105C10.9533 6.53105 6.82948 10.4742 6.82948 15.3437C6.8413 20.2133 10.9651 24.1565 16.046 24.1565Z" fill="#404040"/>
<path d="M15.2898 0.0225843V1.87553C15.5379 1.86423 15.7979 1.85291 16.046 1.85291C16.2942 1.85291 16.5541 1.85293 16.8022 1.87553V0.0225843C16.5541 0.0112859 16.2942 0 16.046 0C15.7979 0 15.5379 0.0112859 15.2898 0.0225843Z" fill="#1A1A1A"/>
<path d="M18.6342 0.205078L18.2325 2.01282C18.4806 2.04672 18.7288 2.0919 18.9769 2.1484C19.225 2.19359 19.4732 2.25007 19.7213 2.31786L20.123 0.510156C19.8749 0.442366 19.6268 0.385846 19.3786 0.340653C19.1423 0.295459 18.8942 0.250272 18.6342 0.205078Z" fill="#1A1A1A"/>
<path d="M21.8694 1.05078L21.0777 2.74553C21.314 2.83592 21.5503 2.92631 21.7867 3.02799C22.023 3.12968 22.2475 3.23136 22.472 3.34434L23.2637 1.64959C23.0392 1.53661 22.8028 1.43493 22.5783 1.33324C22.342 1.23155 22.1057 1.14117 21.8694 1.05078Z" fill="#1A1A1A"/>
<path d="M24.8483 2.51953L23.7139 4.0222C23.9266 4.15778 24.1393 4.29334 24.3402 4.42892C24.5411 4.5758 24.7538 4.72269 24.9428 4.86957L26.0771 3.36691C25.8763 3.20873 25.6754 3.06184 25.4745 2.92626C25.2737 2.79068 25.0728 2.65511 24.8483 2.51953Z" fill="#1A1A1A"/>
<path d="M27.4477 4.55273L26.0061 5.79556C26.1834 5.96504 26.3606 6.14581 26.526 6.32658C26.6915 6.50736 26.8569 6.68812 27.0223 6.88019L28.4639 5.63737C28.3103 5.44529 28.1448 5.26453 27.9676 5.08376C27.8022 4.90298 27.6249 4.72221 27.4477 4.55273Z" fill="#1A1A1A"/>
<path d="M29.5513 7.05078L27.8734 7.97725C28.0152 8.18062 28.1452 8.38398 28.2752 8.59865C28.4051 8.81332 28.5233 9.0167 28.6415 9.24266L30.3193 8.31619C30.2012 8.10152 30.083 7.88688 29.953 7.67221C29.8231 7.46884 29.6813 7.25415 29.5513 7.05078Z" fill="#1A1A1A"/>
<path d="M31.0518 9.91992L29.2085 10.4961C29.303 10.7221 29.3857 10.9481 29.4684 11.1853C29.5511 11.4113 29.622 11.6486 29.6811 11.8858L31.5244 11.3096C31.4653 11.0724 31.3826 10.8464 31.3117 10.6091C31.229 10.3718 31.1463 10.1459 31.0518 9.91992Z" fill="#1A1A1A"/>
<path d="M31.9029 13.0156L29.9769 13.2077C30.0242 13.445 30.0478 13.6935 30.0833 13.9308C30.1069 14.1681 30.1305 14.4166 30.1424 14.6539L32.0684 14.4618C32.0565 14.2132 32.0329 13.976 32.0093 13.7387C31.9856 13.5015 31.9502 13.2642 31.9029 13.0156Z" fill="#1A1A1A"/>
<path d="M32.0684 16.2253L30.1424 16.0332C30.1305 16.2818 30.1069 16.519 30.0833 16.7563C30.0596 16.9935 30.0242 17.2421 29.9769 17.4794L31.9029 17.6714C31.9502 17.4342 31.9738 17.1856 32.0093 16.9484C32.0329 16.7111 32.0565 16.4625 32.0684 16.2253Z" fill="#1A1A1A"/>
<path d="M31.5244 19.3887L29.6811 18.8125C29.622 19.0498 29.5393 19.2757 29.4684 19.513C29.3857 19.739 29.303 19.9762 29.2085 20.2022L31.0518 20.7784C31.1463 20.5524 31.229 20.3265 31.3117 20.0892C31.3826 19.852 31.4653 19.626 31.5244 19.3887Z" fill="#1A1A1A"/>
<path d="M30.3066 22.3718L28.6288 21.4453C28.5106 21.66 28.3924 21.8746 28.2625 22.0893C28.1325 22.304 28.0025 22.5074 27.8607 22.7107L29.5386 23.6372C29.6804 23.4338 29.8104 23.2304 29.9403 23.0158C30.0703 22.8124 30.1885 22.5977 30.3066 22.3718Z" fill="#1A1A1A"/>
<path d="M28.4639 25.0592L27.0223 23.8164C26.8687 24.0085 26.7033 24.1893 26.526 24.37C26.3606 24.5508 26.1834 24.7316 26.0061 24.9011L27.4477 26.1439C27.6249 25.9744 27.8022 25.7936 27.9676 25.6128C28.1448 25.4321 28.3103 25.2513 28.4639 25.0592Z" fill="#1A1A1A"/>
<path d="M26.0898 27.3074L24.9555 25.8047C24.7546 25.9629 24.5538 26.1098 24.3529 26.2453C24.152 26.3922 23.9393 26.5278 23.7266 26.6521L24.861 28.1547C25.0737 28.0191 25.2864 27.8836 25.4872 27.748C25.6881 27.6124 25.889 27.4655 26.0898 27.3074Z" fill="#1A1A1A"/>
<path d="M23.2637 29.0483L22.472 27.3535C22.2475 27.4665 22.0112 27.5682 21.7867 27.6699C21.5503 27.7716 21.3258 27.8619 21.0777 27.9523L21.8694 29.6471C22.1057 29.5567 22.342 29.4663 22.5783 29.3646C22.8028 29.2629 23.0392 29.1613 23.2637 29.0483Z" fill="#1A1A1A"/>
<path d="M20.123 30.1788L19.7213 28.3711C19.4732 28.4389 19.225 28.4954 18.9769 28.5406C18.7288 28.5858 18.4806 28.631 18.2325 28.6762L18.6342 30.4839C18.8824 30.45 19.1305 30.4048 19.3786 30.3483C19.6386 30.3031 19.8867 30.2466 20.123 30.1788Z" fill="#1A1A1A"/>
<path d="M16.8125 30.6635V28.8105C16.5644 28.8218 16.3044 28.8331 16.0563 28.8331C15.8081 28.8331 15.5482 28.8331 15.3 28.8105V30.6635C15.5482 30.6748 15.8081 30.6861 16.0563 30.6861C16.3044 30.6861 16.5525 30.6861 16.8125 30.6635Z" fill="#1A1A1A"/>
<path d="M13.4694 30.4839L13.8711 28.6762C13.623 28.6423 13.3748 28.5971 13.1267 28.5406C12.8786 28.4954 12.6304 28.4389 12.3823 28.3711L11.9805 30.1788C12.2287 30.2466 12.4768 30.3031 12.7249 30.3483C12.9613 30.4048 13.2094 30.45 13.4694 30.4839Z" fill="#1A1A1A"/>
<path d="M10.2323 29.6373L11.0239 27.9426C10.7876 27.8522 10.5513 27.7618 10.315 27.6601C10.0786 27.5584 9.85414 27.4567 9.62964 27.3438L8.83797 29.0385C9.06247 29.1515 9.29878 29.2532 9.52329 29.3549C9.75961 29.4565 9.99593 29.5582 10.2323 29.6373Z" fill="#1A1A1A"/>
<path d="M7.2558 28.1664L8.39014 26.6638C8.17745 26.5282 7.96476 26.3926 7.76389 26.257C7.56302 26.1101 7.35033 25.9633 7.16127 25.8164L6.02693 27.3191C6.22781 27.4772 6.42868 27.6241 6.62955 27.7597C6.83043 27.8953 7.0313 28.0422 7.2558 28.1664Z" fill="#1A1A1A"/>
<path d="M4.65464 26.1439L6.09619 24.9011C5.91895 24.7316 5.74171 24.5508 5.57628 24.37C5.41086 24.1893 5.24544 24.0085 5.08001 23.8164L3.63846 25.0592C3.79207 25.2513 3.95749 25.4321 4.13473 25.6128C4.30015 25.7936 4.46558 25.9631 4.65464 26.1439Z" fill="#1A1A1A"/>
<path d="M2.5526 23.6372L4.23047 22.7107C4.08868 22.5074 3.9587 22.304 3.82872 22.0893C3.69874 21.8746 3.58059 21.6713 3.46243 21.4453L1.78455 22.3718C1.90271 22.5864 2.02087 22.8011 2.15085 23.0158C2.28082 23.2304 2.4108 23.4338 2.5526 23.6372Z" fill="#1A1A1A"/>
<path d="M1.04977 20.7784L2.89307 20.2022C2.79854 19.9762 2.71583 19.7503 2.63312 19.513C2.55041 19.2757 2.47951 19.0498 2.42043 18.8125L0.577128 19.3887C0.636209 19.626 0.718921 19.852 0.789817 20.0892C0.872529 20.3152 0.955243 20.5524 1.04977 20.7784Z" fill="#1A1A1A"/>
<path d="M0.20289 17.6714L2.12891 17.4794C2.08164 17.2421 2.05801 16.9935 2.02256 16.7563C1.99893 16.519 1.9753 16.2705 1.96348 16.0332L0.0374665 16.2253C0.0492826 16.4738 0.0729182 16.7111 0.0965502 16.9484C0.120182 17.1969 0.155626 17.4342 0.20289 17.6714Z" fill="#1A1A1A"/>
<path d="M0.0374665 14.4735L1.96348 14.6656C1.9753 14.4171 1.99893 14.1798 2.02256 13.9425C2.04619 13.7052 2.08164 13.4567 2.12891 13.2194L0.20289 13.0273C0.155626 13.2646 0.131998 13.5132 0.0965502 13.7504C0.0729182 13.9877 0.0492826 14.225 0.0374665 14.4735Z" fill="#1A1A1A"/>
<path d="M0.577128 11.3096L2.42043 11.8858C2.47951 11.6486 2.56223 11.4226 2.63312 11.1853C2.71583 10.9594 2.79854 10.7221 2.89307 10.4961L1.04977 9.91992C0.955243 10.1459 0.872529 10.3718 0.789817 10.6091C0.707105 10.8351 0.636209 11.0724 0.577128 11.3096Z" fill="#1A1A1A"/>
<path d="M1.79626 8.31619L3.47414 9.24266C3.5923 9.028 3.71046 8.81332 3.84044 8.59865C3.97041 8.38398 4.1004 8.18062 4.24219 7.97725L2.56431 7.05078C2.42251 7.25415 2.29254 7.45754 2.16257 7.67221C2.03259 7.88688 1.90261 8.10152 1.79626 8.31619Z" fill="#1A1A1A"/>
<path d="M3.63846 5.63737L5.08001 6.88019C5.23362 6.68812 5.39904 6.50736 5.57628 6.32658C5.74171 6.14581 5.91895 5.96504 6.09619 5.79556L4.65464 4.55273C4.4774 4.72221 4.30015 4.90298 4.13473 5.08376C3.95749 5.26453 3.79207 5.44529 3.63846 5.63737Z" fill="#1A1A1A"/>
<path d="M6.01375 3.37863L7.14809 4.88133C7.34896 4.72315 7.54982 4.57625 7.7507 4.44067C7.95157 4.2938 8.16426 4.15823 8.37695 4.03395L7.24261 2.53125C7.02992 2.66683 6.81723 2.80243 6.61636 2.93801C6.41549 3.07359 6.21462 3.22045 6.01375 3.37863Z" fill="#1A1A1A"/>
<path d="M8.83797 1.64959L9.62964 3.34434C9.85414 3.23136 10.0905 3.12968 10.315 3.02799C10.5513 2.92631 10.7758 2.83592 11.0239 2.74553L10.2323 1.05078C9.99593 1.14117 9.75961 1.23155 9.52329 1.33324C9.29878 1.43493 9.06247 1.53661 8.83797 1.64959Z" fill="#1A1A1A"/>
<path d="M11.9698 0.510156L12.3715 2.31786C12.6197 2.25007 12.8678 2.19359 13.1159 2.1484C13.3641 2.1032 13.6122 2.05801 13.8604 2.01282L13.4586 0.205078C13.2105 0.238973 12.9623 0.284161 12.7142 0.340653C12.4661 0.397145 12.2179 0.442366 11.9698 0.510156Z" fill="#1A1A1A"/>
<path d="M16.8502 4.68936C16.5903 4.66676 16.3185 4.65546 16.0586 4.65546C11.5094 4.65546 7.61012 7.25408 5.86135 10.9712L4.54977 10.508C6.49941 6.28242 10.9186 3.32227 16.0586 3.32227C16.7912 3.32227 17.5001 3.39006 18.1973 3.50304L16.8502 4.68936Z" fill="#1A1A1A"/>
<path d="M20.7145 25.06C24.0584 23.5913 26.5043 20.5972 27.0952 17.0156L28.1113 18.7895C27.1306 21.953 24.8265 24.5629 21.8134 26.043L20.7145 25.06Z" fill="#1A1A1A"/>
<path d="M3.60377 17.1741C3.68649 17.5696 4.10004 17.8181 4.50179 17.739C4.91535 17.6599 5.1753 17.2645 5.09259 16.8804C5.00987 16.4849 4.59632 16.2363 4.19458 16.3154C3.7692 16.3945 3.50925 16.7787 3.60377 17.1741Z" fill="#1A1A1A"/>
<path d="M7.46907 24.1345C6.63013 23.3775 5.88572 22.5188 5.28311 21.5585L6.52378 20.9258C7.04369 21.7393 7.66995 22.4737 8.37891 23.1177L7.46907 24.1345Z" fill="#1A1A1A"/>
<path d="M9.33524 23.875C10.0915 24.4173 10.9186 24.8693 11.793 25.2195L11.3321 26.4962C10.2923 26.0895 9.32341 25.5585 8.4254 24.9032L9.33524 23.875Z" fill="#1A1A1A"/>
<path d="M22.9729 6.4409C22.8902 6.83634 23.1502 7.22046 23.5637 7.29955C23.9773 7.37864 24.379 7.13007 24.4617 6.73463C24.5444 6.33919 24.2845 5.95507 23.8709 5.87598C23.4574 5.79689 23.0556 6.04546 22.9729 6.4409Z" fill="#1A1A1A"/>
<path d="M26.8011 12.4411L28.1245 12.0117C28.2781 12.5088 28.3963 13.0173 28.479 13.537L27.0847 13.6726C27.0256 13.2545 26.9311 12.8478 26.8011 12.4411Z" fill="#1A1A1A"/>
<path d="M26.1861 8.22656C26.8123 9.04004 27.3204 9.93261 27.7222 10.8704L26.3988 11.311C26.0561 10.5201 25.6307 9.76314 25.099 9.07394L26.1861 8.22656Z" fill="#1A1A1A"/>
<path d="M16.0475 6C21.4474 6 25.8193 10.1804 25.8193 15.3437C25.8193 20.5071 21.4474 24.6875 16.0475 24.6875C10.6476 24.6875 6.27565 20.5071 6.27565 15.3437C6.27565 10.1804 10.6476 6 16.0475 6ZM16.0475 24.1565C21.1402 24.1565 25.264 20.2133 25.264 15.3437C25.264 10.4741 21.1402 6.53102 16.0475 6.53102C10.9548 6.53102 6.831 10.4741 6.831 15.3437C6.84282 20.2133 10.9666 24.1565 16.0475 24.1565Z" fill="#333333"/>
<path d="M4.1958 39.5528H29.423C31.7389 39.5528 33.6177 37.7563 33.6177 35.5418V32.593C33.6177 30.3785 31.7389 28.582 29.423 28.582H4.1958C1.87985 28.582 0.00110626 30.3785 0.00110626 32.593V35.5418C0.0129204 37.7563 1.87985 39.5528 4.1958 39.5528Z" fill="black"/>
<path d="M0.485256 32.5252V35.6097C0.485256 37.6208 2.18677 39.2364 4.27821 39.2364H29.3282C31.4314 39.2364 33.1211 37.6095 33.1211 35.6097V32.5252C33.1211 30.5141 31.4196 28.8984 29.3282 28.8984H4.27821C2.18677 28.8984 0.485256 30.5254 0.485256 32.5252Z" fill="#333333"/>
<path d="M0.485161 36.1628V35.4397H33.1328V36.1628H0.485161ZM33.1328 32.7055H0.485161V31.9824H33.1328V32.7055Z" fill="#545454"/>
<path d="M28.417 37.8816V39.2487H27.3063V38.0511L23.4779 35.8027H25.144L28.2398 37.6218C28.3461 37.6782 28.417 37.7799 28.417 37.8816ZM23.8442 37.8816V39.2487H22.7335V38.0511L18.9051 35.8027H20.5712L23.667 37.6218C23.7852 37.6782 23.8442 37.7799 23.8442 37.8816ZM5.56486 37.8816V39.2487H5.08041C4.86772 39.2487 4.65503 39.2374 4.44234 39.2148V38.0511L0.613945 35.8027H2.28001L5.37581 37.6218C5.50578 37.6782 5.56486 37.7799 5.56486 37.8816ZM19.2833 37.8816V39.2487H18.1725V38.0511L14.3442 35.8027H16.0102L19.106 37.6218C19.2124 37.6782 19.2833 37.7799 19.2833 37.8816ZM14.7105 37.8816V39.2487H13.5998V38.0511L9.77136 35.8027H11.4374L14.5332 37.6218C14.6396 37.6782 14.7105 37.7799 14.7105 37.8816ZM32.6826 37.5427C32.4699 37.8251 32.1982 38.085 31.8791 38.311V38.0511L28.0507 35.8027H29.7168L32.6826 37.5427ZM10.1377 37.8816V39.2487H9.02695V38.0511L5.19856 35.8027H6.86462L9.96042 37.6218C10.0668 37.6782 10.1377 37.7799 10.1377 37.8816Z" fill="#545454"/>
<path d="M28.2418 30.5254L25.146 32.3445H23.48L27.3084 30.0961V28.8984H28.4191V30.2656C28.4191 30.3559 28.3482 30.4576 28.2418 30.5254ZM23.669 30.5254L20.5732 32.3445H18.9072L22.7356 30.0961V28.8984H23.8463V30.2656C23.8463 30.3559 23.7872 30.4576 23.669 30.5254ZM5.38967 30.5254L2.29387 32.3445H0.627811L4.4562 30.0961V28.9323C4.66889 28.9097 4.86976 28.8984 5.09426 28.8984H5.57873V30.2656C5.56691 30.3559 5.50783 30.4576 5.38967 30.5254ZM19.0962 30.5254L16.0005 32.3445H14.3344L18.1628 30.0961V28.8984H19.2853V30.2656C19.2853 30.3559 19.2144 30.4576 19.0962 30.5254ZM14.5234 30.5254L11.4277 32.3445H9.7616L13.59 30.0961V28.8984H14.7007V30.2656C14.7125 30.3559 14.6416 30.4576 14.5234 30.5254ZM29.707 32.3445H28.041L31.8694 30.0961V29.8362C32.2002 30.0622 32.472 30.322 32.6729 30.6045L29.707 32.3445ZM9.96247 30.5254L6.86667 32.3445H5.20061L9.029 30.0961V28.8984H10.1397V30.2656C10.1397 30.3559 10.0688 30.4576 9.96247 30.5254Z" fill="#545454"/>
<path d="M14.2525 35.7893H12.5864L10.105 34.3318C9.98688 34.264 9.91598 34.1624 9.91598 34.0607C9.91598 33.959 9.98688 33.8573 10.105 33.7895L12.5864 32.332H14.2525L11.3221 34.0607L14.2525 35.7893ZM18.8253 35.7893H17.1592L14.6778 34.3318C14.5597 34.264 14.4888 34.1624 14.4888 34.0607C14.4888 33.959 14.5597 33.8573 14.6778 33.7895L17.1592 32.332H18.8253L15.8949 34.0607L18.8253 35.7893ZM9.67967 35.7893H8.01361L5.53224 34.3318C5.41408 34.264 5.34318 34.1624 5.34318 34.0607C5.34318 33.959 5.41408 33.8573 5.53224 33.7895L8.01361 32.332H9.67967L6.74929 34.0607L9.67967 35.7893ZM5.10687 35.7893H3.4408L0.959442 34.3318C0.841282 34.264 0.770391 34.1624 0.770391 34.0607C0.770391 33.959 0.841282 33.8573 0.959442 33.7895L3.4408 32.332H5.10687L2.17649 34.0607L5.10687 35.7893ZM29.5896 34.072L32.52 35.8006H30.854L28.3726 34.3431C28.2544 34.2753 28.1835 34.1737 28.1835 34.072C28.1835 33.9703 28.2544 33.8686 28.3726 33.8008L30.854 32.3433H32.52L29.5896 34.072ZM23.3862 35.7893H21.7202L19.2388 34.3318C19.1207 34.264 19.0498 34.1624 19.0498 34.0607C19.0498 33.959 19.1207 33.8573 19.2388 33.7895L21.7202 32.332H23.3862L20.4559 34.0607L23.3862 35.7893ZM27.959 35.7893H26.293L23.8116 34.3318C23.6935 34.264 23.6226 34.1624 23.6226 34.0607C23.6226 33.959 23.6935 33.8573 23.8116 33.7895L26.293 32.332H27.959L25.0287 34.0607L27.959 35.7893Z" fill="#545454"/>
</svg>
