<svg width="26" height="26" viewBox="0 0 26 26" fill="none" xmlns="http://www.w3.org/2000/svg">
<path d="M24.4844 19.5625C25.1406 20.2656 25.1406 21.3438 24.4844 22.0469L22 24.5312C21.2969 25.1875 20.2188 25.1875 19.5156 24.5312L14.0312 19C12.9531 17.9219 12.7656 16.3281 13.375 15.0156L8.40625 10H5.5L1 4L4 1L10 5.5V8.45312L14.9688 13.4219C16.2812 12.7656 17.875 13 19 14.0781L24.4844 19.5625ZM16.5156 11.5469C16.1406 11.5469 15.7656 11.5938 15.3906 11.6875L11.5 7.84375C11.5 6.10938 12.1094 4.32812 13.4688 3.01562C15.2031 1.28125 17.6406 0.671875 19.8438 1.23438C20.2656 1.32812 20.4531 1.84375 20.125 2.17188L16.6562 5.64062L17.1719 8.82812L20.3594 9.39062L23.8281 5.875C24.1562 5.59375 24.6719 5.73438 24.7656 6.15625C25.3281 8.35938 24.7188 10.7969 22.9844 12.5312C22.375 13.1406 21.6719 13.6094 20.9688 13.9375L20.0312 13C19.0938 12.0625 17.875 11.5469 16.5156 11.5469ZM11.6406 15.3906C11.4062 16.4219 11.5469 17.4062 11.875 18.3438L6.10938 24.1562C4.9375 25.3281 3.01562 25.3281 1.84375 24.1562C0.671875 22.9844 0.671875 21.0625 1.84375 19.8906L9.01562 12.7656L11.6406 15.3906ZM4 23.125C4.60938 23.125 5.125 22.6562 5.125 22C5.125 21.3906 4.60938 20.875 4 20.875C3.34375 20.875 2.875 21.3906 2.875 22C2.875 22.6562 3.34375 23.125 4 23.125Z" fill="#1C2B39"/>
</svg>
