<svg width="221" height="41" viewBox="0 0 221 41" fill="none" xmlns="http://www.w3.org/2000/svg">
<path d="M109.986 30.6507L102.254 29.8262L123.364 2.38281L132.662 3.37438L135.098 33.3287L127.366 32.5041L126.015 9.45113L125.748 9.42271L109.986 30.6507ZM113.169 19.3183L131.433 21.2659L129.893 26.0024L111.63 24.0548L113.169 19.3183Z" fill="white"/>
<path d="M14.1029 9.4155V11.6722H1.79639V9.4155H14.1029ZM5.64115 4.05753H8.64642V25.9407C8.64642 26.8725 8.83108 27.6053 9.20046 28.1392C9.56984 28.6633 10.0511 29.0371 10.6443 29.2603C11.2376 29.4738 11.8699 29.5806 12.5415 29.5806C12.9333 29.5806 13.2691 29.5612 13.5489 29.5224C13.8287 29.4738 14.0749 29.4253 14.2876 29.3768L14.9256 31.7209C14.6346 31.8179 14.2764 31.9053 13.8511 31.9829C13.4257 32.0703 12.8997 32.114 12.2729 32.114C11.176 32.114 10.1183 31.9053 9.09974 31.4879C8.09238 31.0706 7.26407 30.4494 6.61492 29.6243C5.96572 28.7993 5.64115 27.7752 5.64115 26.5522V4.05753ZM37.2763 23.2326V9.4155H40.2648V31.7791H37.2763V28.0664H37.0413C36.4368 29.2118 35.4799 30.1678 34.1703 30.9347C32.8608 31.6918 31.2602 32.0703 29.3686 32.0703C27.7232 32.0703 26.2625 31.7597 24.9866 31.1385C23.7106 30.5076 22.7088 29.5854 21.9813 28.3722C21.2538 27.1589 20.89 25.6689 20.89 23.9023V9.4155H23.8785V23.7422C23.8785 25.4894 24.4717 26.8968 25.6581 27.9645C26.8446 29.0225 28.3668 29.5515 30.2248 29.5515C31.3889 29.5515 32.5082 29.3088 33.5827 28.8235C34.6572 28.3382 35.5415 27.6296 36.2354 26.6978C36.9294 25.7563 37.2763 24.6012 37.2763 23.2326ZM58.0152 40.6314C56.2582 40.6314 54.719 40.4324 53.3982 40.0344C52.0775 39.6462 50.9638 39.1123 50.0571 38.4329C49.1505 37.7534 48.4454 36.9915 47.9417 36.147L50.3929 34.7493C50.7623 35.3122 51.2548 35.8656 51.8704 36.4091C52.4972 36.9527 53.3087 37.404 54.3049 37.7631C55.312 38.1223 56.549 38.3019 58.0152 38.3019C60.2988 38.3019 62.14 37.8068 63.5391 36.8168C64.9492 35.8267 65.6545 34.2882 65.6545 32.2013V27.1637H65.3857C65.0388 27.8431 64.5407 28.5226 63.8915 29.2021C63.2422 29.8718 62.3918 30.4299 61.3395 30.8764C60.2988 31.3229 59.0058 31.5462 57.461 31.5462C55.4017 31.5462 53.5717 31.1045 51.9712 30.2212C50.3818 29.338 49.1282 28.0761 48.2104 26.4357C47.3037 24.7856 46.8504 22.8201 46.8504 20.5391C46.8504 18.2775 47.2926 16.2876 48.1768 14.5696C49.0722 12.8516 50.3202 11.5121 51.9207 10.5512C53.5213 9.59018 55.3852 9.10972 57.5116 9.10972C59.0899 9.10972 60.3994 9.35238 61.4401 9.8377C62.4814 10.3134 63.3153 10.9054 63.942 11.614C64.5798 12.3225 65.0778 13.0117 65.4363 13.6815H65.7381V9.4155H68.6595V32.3615C68.6595 34.2543 68.1949 35.8122 67.2664 37.0352C66.3373 38.2582 65.0723 39.1609 63.472 39.7432C61.8711 40.3354 60.0526 40.6314 58.0152 40.6314ZM57.814 29.1729C59.4704 29.1729 60.886 28.8284 62.0613 28.1392C63.2367 27.4403 64.1378 26.4406 64.7645 25.1399C65.3912 23.8393 65.7045 22.2911 65.7045 20.4954C65.7045 18.7482 65.3972 17.2001 64.7815 15.8508C64.1658 14.492 63.2702 13.4243 62.0949 12.6477C60.9311 11.8615 59.5039 11.4684 57.814 11.4684C56.09 11.4684 54.635 11.8712 53.4486 12.6769C52.2621 13.4825 51.3667 14.5696 50.7623 15.9382C50.1579 17.2971 49.8557 18.8162 49.8557 20.4954C49.8557 22.2037 50.1635 23.7131 50.7791 25.0234C51.3947 26.3241 52.2957 27.3433 53.4822 28.081C54.6686 28.8089 56.1125 29.1729 57.814 29.1729ZM83.0355 1.96094L90.7248 23.8004H91.0101L98.7001 1.96094H108.001L96.3999 31.7791H85.3356L73.7342 1.96094H83.0355Z" fill="white"/>
<path d="M169.997 2.38281L170.555 32.1971L163.504 32.292L149.5 15.2689L149.282 15.2719L149.604 32.4791L141.294 32.591L140.736 2.77672L147.888 2.68045L161.74 19.6764L162.025 19.6726L161.704 2.49445L169.997 2.38281Z" fill="white"/>
<path d="M180.08 23.9258C178.361 23.9258 176.95 25.6587 176.796 27.8712C176.786 28.0037 176.781 28.1379 176.781 28.2739C176.781 30.6751 178.258 32.6219 180.08 32.6219C181.903 32.6219 183.379 30.6751 183.379 28.2739C183.379 28.1379 183.374 28.0037 183.365 27.8712C183.211 25.6587 181.799 23.9258 180.08 23.9258ZM180.08 31.0967C178.899 31.0967 177.938 29.8304 177.938 28.2739C177.938 28.1914 177.941 28.1056 177.948 28.0112C178.05 26.5514 178.967 25.451 180.08 25.451C181.194 25.451 182.111 26.5515 182.213 28.0109C182.219 28.1029 182.222 28.1894 182.222 28.2739C182.222 29.8304 181.262 31.0967 180.08 31.0967Z" fill="#FBBF24"/>
<path d="M179.997 27.0234C179.485 27.0234 179.063 27.5284 179.017 28.1999C179.013 28.246 179.012 28.2857 179.012 28.3211C179.012 29.0367 179.454 29.6188 179.997 29.6188C180.539 29.6188 180.981 29.0367 180.981 28.3211C180.981 28.2835 180.979 28.2424 180.977 28.1977C180.93 27.5283 180.509 27.0234 179.997 27.0234Z" fill="#FBBF24"/>
<path d="M207.911 28.0119C207.911 25.2229 209.633 22.9538 211.749 22.9538C213.865 22.9538 215.587 25.2229 215.587 28.0119V28.5669H215.841H216.429V28.0119C216.429 27.8026 216.422 27.5958 216.406 27.3918H218.052C218.647 27.3918 218.647 24.5369 218.052 24.5369H217.368V19.4671C217.368 18.2224 216.682 17.1621 215.749 16.9656L209.87 15.7266C206.472 12.5934 205.611 9.75151 204.507 8.80289C203.718 8.12496 201.9 7.76921 199.952 7.588L199.478 5.1637C199.4 4.76297 199.126 4.48286 198.812 4.48286H197.349C197.034 4.48286 196.76 4.76297 196.682 5.1637L196.242 7.4158C195.472 7.40865 194.789 7.41694 194.273 7.42834C193.717 7.44059 193.272 8.03829 193.272 8.77109V14.4586L190.873 12.9095V6.68314C191 6.42236 191.075 6.1131 191.075 5.78038C191.075 4.85437 190.505 4.10369 189.802 4.10369C189.35 4.10369 188.954 4.41558 188.728 4.88414L176.808 3.60188C176.746 2.91534 176.303 2.38281 175.765 2.38281C175.185 2.38281 174.715 3.00281 174.715 3.76766C174.715 4.43554 175.074 4.99282 175.551 5.12341L125.101 8.58049C124.613 8.70968 124.244 9.27949 124.244 9.96061C124.244 10.7368 124.723 11.3682 125.312 11.3682C125.792 11.369 125.911 11.1952 126.15 10.6738V10.3262V10.1524C126.15 10.5 125.669 10.8132 125.312 10.8132C124.955 10.8132 124.665 10.4307 124.665 9.96061C124.665 9.49054 124.955 9.10805 125.312 9.10805H125.522L175.972 5.12541C176.107 5.08994 176.233 5.0202 176.344 4.92365L185.83 12.1263L184.148 15.586H174.343C173.756 15.586 173.28 16.2131 173.28 16.9867V24.5369H172.73C172.134 24.5369 172.134 27.3918 172.73 27.3918H175.543C175.527 27.5958 175.519 27.8026 175.519 28.0119V28.5669H176.108H176.362V28.0119C176.362 25.2229 178.084 22.9538 180.2 22.9538C182.316 22.9538 184.038 25.2229 184.038 28.0119V28.5669H184.291H184.88V28.0119C184.88 27.8026 184.872 27.5958 184.857 27.3918H207.092C207.077 27.5958 207.069 27.8026 207.069 28.0119V28.5669H207.657H207.911V28.0119ZM196.565 16.8097H199.212V17.4608H196.565V16.8097ZM205.189 11.2038C205.676 11.9989 206.266 12.9616 207.095 14.022L206.739 14.6513C206.563 14.9609 206.287 15.1433 205.994 15.1432L197.186 15.1404C196.874 15.1403 196.621 14.807 196.621 14.3958V8.77109C196.621 8.58997 196.735 8.43928 196.872 8.43627C197.349 8.42578 197.722 8.42116 198.084 8.42116C199.216 8.42116 202.662 8.42116 204.089 9.6473C204.399 9.91389 204.748 10.4831 205.189 11.2038ZM189.4 8.16605V11.9577L187.997 11.0517L189.4 8.16605ZM189.802 4.77578C190.223 4.77578 190.565 5.22644 190.565 5.78038C190.565 6.33431 190.223 6.78497 189.802 6.78497C189.382 6.78497 189.04 6.33431 189.04 5.78038C189.04 5.22642 189.382 4.77578 189.802 4.77578ZM188.56 5.42296C188.54 5.53823 188.53 5.6576 188.53 5.78038C188.53 5.80169 188.532 5.82243 188.532 5.84355L183.03 4.82797L188.56 5.42296ZM175.225 3.76766C175.225 3.3746 175.467 3.05487 175.766 3.05487C176.064 3.05487 176.306 3.3746 176.306 3.76766C176.306 4.16071 176.064 4.48043 175.766 4.48043C175.467 4.48043 175.225 4.16071 175.225 3.76766ZM177.708 4.40634L188.605 6.4174L186.745 10.2434L177.708 4.40634ZM187.031 13.0382L189.4 14.8363V15.586H185.793L187.031 13.0382Z" fill="#FBBF24"/>
<path d="M215.049 27.8712C214.894 25.6587 213.483 23.9258 211.764 23.9258C210.045 23.9258 208.634 25.6587 208.479 27.8712C208.47 28.0037 208.464 28.1379 208.464 28.2739C208.464 30.6751 209.942 32.6219 211.764 32.6219C213.586 32.6219 215.064 30.6751 215.064 28.2739C215.063 28.1379 215.058 28.0037 215.049 27.8712ZM211.764 31.0967C210.583 31.0967 209.622 29.8304 209.622 28.2739C209.622 28.1914 209.625 28.1056 209.631 28.0112C209.733 26.5514 210.65 25.451 211.764 25.451C212.878 25.451 213.795 26.5514 213.896 28.0109C213.903 28.1029 213.906 28.1894 213.906 28.2739C213.906 29.8304 212.945 31.0967 211.764 31.0967Z" fill="#FBBF24"/>
<path d="M211.764 26.9766C211.253 26.9766 210.831 27.4815 210.784 28.153C210.781 28.1992 210.779 28.2388 210.779 28.2743C210.779 28.9898 211.221 29.5719 211.764 29.5719C212.307 29.5719 212.749 28.9898 212.749 28.2743C212.749 28.2366 212.747 28.1955 212.744 28.1508C212.697 27.4814 212.276 26.9766 211.764 26.9766Z" fill="#FBBF24"/>
</svg>
