<svg width="12" height="11" viewBox="0 0 12 11" fill="none" xmlns="http://www.w3.org/2000/svg">
<path d="M5.625 0.25C6.97266 0.25 8.08594 1.36328 8.08594 2.71094C8.08594 3.82422 6.46484 5.81641 5.85938 6.55859C5.72266 6.69531 5.50781 6.69531 5.37109 6.55859C4.76562 5.81641 3.16406 3.82422 3.16406 2.71094C3.16406 1.36328 4.25781 0.25 5.625 0.25ZM5.625 3.53125C6.07422 3.53125 6.44531 3.17969 6.44531 2.71094C6.44531 2.26172 6.07422 1.89062 5.625 1.89062C5.15625 1.89062 4.80469 2.26172 4.80469 2.71094C4.80469 3.17969 5.15625 3.53125 5.625 3.53125ZM0.390625 4.46875L2.69531 3.55078C2.79297 3.84375 2.94922 4.13672 3.125 4.44922V9L0.410156 10.2305C0.214844 10.3281 0 10.1719 0 9.9375L0 5.05469C0 4.80078 0.15625 4.56641 0.390625 4.46875ZM5.625 7.28125C5.89844 7.28125 6.15234 7.16406 6.32812 6.94922C6.71875 6.5 7.12891 5.99219 7.5 5.44531V10.25L3.75 9V5.44531C4.10156 5.99219 4.51172 6.5 4.90234 6.94922C5.07812 7.16406 5.33203 7.28125 5.625 7.28125ZM10.8203 3.41406C11.0156 3.31641 11.25 3.47266 11.25 3.70703V8.58984C11.25 8.84375 11.0742 9.07812 10.8398 9.17578L8.125 10.25V4.625L10.8203 3.41406Z" fill="#FBBF24"/>
</svg>
