<svg width="50" height="40" viewBox="0 0 50 40" fill="none" xmlns="http://www.w3.org/2000/svg">
<path d="M9.03212 5.89966L14.6392 10.3066L7.05662 15.2611L1.44957 10.8541L9.03212 5.89966Z" fill="#1C2B39"/>
<path d="M3.5432 13.3525L12.3293 7.60616C12.8747 7.25153 12.8141 6.62191 12.198 6.32518L9.46121 5.00076C8.86537 4.71851 8.08774 4.75471 7.55249 5.10209L0.503439 9.71218C-0.0217066 10.0596 -0.15299 10.6168 0.190374 11.0655L1.77589 13.1426C2.12935 13.6058 2.99786 13.7071 3.5432 13.3525Z" fill="#404040"/>
<path d="M9.68467 8.1712L10.1391 7.87448C10.3916 7.70802 10.4118 7.43302 10.1795 7.25209L8.66466 6.06518C8.43239 5.88425 8.04864 5.86977 7.79617 6.03622L7.3417 6.33295C7.08923 6.49941 7.06902 6.77443 7.3013 6.95536L8.81614 8.14225C9.03832 8.32318 9.4322 8.33042 9.68467 8.1712Z" fill="#1A1A1A"/>
<path d="M6.89559 9.98761L7.35006 9.69088C7.60253 9.52443 7.62271 9.2494 7.39043 9.06847L5.87559 7.88158C5.64331 7.70065 5.25957 7.68617 5.00709 7.85263L4.55263 8.14936C4.30015 8.31581 4.27998 8.59082 4.51225 8.77174L6.0271 9.95866C6.25937 10.1396 6.64312 10.1541 6.89559 9.98761Z" fill="#1A1A1A"/>
<path d="M4.1114 11.8118L4.56586 11.5151C4.81834 11.3486 4.83854 11.0736 4.60627 10.8927L3.09142 9.7058C2.85915 9.52487 2.47537 9.51039 2.2229 9.67685L1.76846 9.97358C1.51599 10.14 1.49578 10.4151 1.72806 10.596L3.2429 11.7829C3.47518 11.9566 3.85892 11.971 4.1114 11.8118Z" fill="#1A1A1A"/>
<path d="M38.0019 2.22144L37.3859 2.94516H22.0658C20.6923 2.94516 19.5713 3.74849 19.5713 4.73275V8.51781C18.4503 8.69874 17.3798 8.98823 16.38 9.37904V4.73275C16.38 2.48198 18.9351 0.658203 22.0658 0.658203H40.1934C39.3148 1.04177 38.5573 1.57009 38.0019 2.22144Z" fill="#1C2B39"/>
<path d="M6.37346 14.7049C6.60574 14.524 6.84809 14.3503 7.11067 14.1839L13.6245 9.93563C13.7255 9.8705 13.8265 9.80537 13.9376 9.74023L14.6748 10.3192L7.10059 15.2694L6.37346 14.7049Z" fill="black"/>
<path d="M38.5876 0.658203H40.1934C39.3047 1.04177 38.5472 1.57009 38.0019 2.22144L37.3859 2.94516H36.3457L37.4363 1.65694C37.7595 1.28784 38.1433 0.947691 38.5876 0.658203ZM19.5713 7.88093V8.52503C18.4503 8.70596 17.3798 8.99545 16.38 9.38626V8.61912C17.3899 8.2645 18.4604 8.01844 19.5713 7.88093Z" fill="black"/>
<path d="M10.7151 40H42.9105C46.8289 40 50 37.7275 50 34.9195V4.63905C50 2.07708 47.1016 0 43.5266 0C41.2644 0 39.1739 0.846764 37.9924 2.22907L35.3464 5.3483C33.7811 7.19378 30.9837 8.31555 27.9742 8.31555H22.238C19.1881 8.31555 16.2493 9.13336 13.9872 10.6025L7.47332 14.8507C5.01927 16.4502 3.62562 18.7082 3.62562 21.082V34.9267C3.62562 37.7275 6.80678 40 10.7151 40Z" fill="#1C2B39"/>
<path d="M4.90746 23C4.90746 22.8698 5.18013 22.8698 5.19023 23L6.03854 33.1755C6.03854 35.8026 9.00764 37.9376 12.6736 37.9376L30.7507 38.8785C30.8416 38.8857 30.8416 38.9798 30.7507 38.987L11.492 38.9002C7.82608 38.9002 4.84687 36.7724 4.84687 34.1453L4.89738 23.181C4.90748 23.1158 4.90746 23.0579 4.90746 23Z" fill="black"/>
<path d="M46.8487 5.36347C46.8487 4.13315 45.3944 3.13442 43.5968 3.13442C42.4657 3.13442 41.4053 3.54693 40.8196 4.20551L37.8505 7.55634C35.3863 10.3354 30.9024 11.2618 26.1559 11.2618H19.7128C17.0164 11.2618 14.7138 11.8263 12.9263 12.5283L14.5017 11.544C16.4306 10.3354 18.9352 9.67683 21.5508 9.67683H27.6405C31.6901 9.67683 35.5076 8.20046 37.6182 5.82666L40.4257 2.66401C41.2034 1.78107 42.6273 1.23828 44.132 1.23828C46.5255 1.23828 48.4746 2.56991 48.4746 4.21276V34.9564C48.4746 35.9551 47.8485 36.8525 46.8588 37.4821V5.36347H46.8487Z" fill="#1C2B39"/>
<path d="M30.6322 32.0119C33.1569 32.0119 35.207 30.5427 35.207 28.7334V23.0812C35.207 21.2719 33.1569 19.8027 30.6322 19.8027H22.7449C20.2202 19.8027 18.1701 21.2719 18.1701 23.0812V28.7334C18.1701 30.5427 20.2202 32.0119 22.7449 32.0119H30.6322Z" fill="#FBBF24"/>
<path d="M23.311 21.0104L19.8572 23.4855L11.5761 16.5017C11.1014 16.0964 11.1317 15.5029 11.6568 15.1266C12.182 14.7503 13.0101 14.7285 13.5757 15.0687L23.311 21.0104Z" fill="#FBBF24"/>
<path d="M30.0763 21.0104L33.5301 23.4855L41.8113 16.5017C42.2859 16.0964 42.2556 15.5029 41.7305 15.1266C41.2053 14.7503 40.3772 14.7285 39.8117 15.0687L30.0763 21.0104Z" fill="#FBBF24"/>
<path d="M23.311 30.8032L19.8572 28.3281L11.5761 35.312C11.1014 35.7173 11.1317 36.3107 11.6568 36.6871C12.182 37.0634 13.0101 37.0851 13.5757 36.745L23.311 30.8032Z" fill="#FBBF24"/>
<path d="M30.0763 30.8032L33.5301 28.3281L41.8113 35.312C42.2859 35.7173 42.2556 36.3107 41.7305 36.6871C41.2053 37.0634 40.3772 37.0851 39.8117 36.745L30.0763 30.8032Z" fill="#FBBF24"/>
<path d="M23.0169 30.2019H30.3589C31.6415 30.2019 32.6816 29.4565 32.6816 28.5373V23.2759C32.6816 22.3568 31.6415 21.6113 30.3589 21.6113H23.0169C21.7344 21.6113 20.6942 22.3568 20.6942 23.2759V28.5373C20.7043 29.4565 21.7445 30.2019 23.0169 30.2019Z" fill="#1C2B39"/>
</svg>
