<svg width="18" height="19" viewBox="0 0 18 19" fill="none" xmlns="http://www.w3.org/2000/svg">
<path d="M11.8918 7.47395L12.9675 4.96164C13.0499 4.76476 13.0931 4.55367 13.0945 4.34024C13.0953 4.13172 13.055 3.92508 12.9758 3.73219C12.8967 3.53929 12.7802 3.36393 12.633 3.21617C12.4859 3.06842 12.311 2.95118 12.1185 2.87118C11.9259 2.79118 11.7194 2.75 11.5109 2.75H5.7513C5.54278 2.75 5.33631 2.79118 5.14375 2.87118C4.95119 2.95118 4.77632 3.06842 4.62918 3.21617C4.48205 3.36393 4.36554 3.53929 4.28636 3.73219C4.20717 3.92508 4.16686 4.13172 4.16774 4.34024C4.16914 4.55367 4.21227 4.76476 4.29469 4.96164L5.37044 7.47395" stroke="#4DA530" stroke-width="1.5" stroke-miterlimit="10"/>
<path d="M8.63102 6.57861C6.93983 6.57861 5.3178 7.24998 4.12132 8.4452C2.92485 9.64043 2.25178 11.2617 2.25001 12.9529C2.25001 13.0331 2.25001 13.1066 2.25001 13.1801C2.25001 13.2536 2.25001 13.3204 2.25001 13.3872C2.24863 14.1144 2.38465 14.8353 2.65091 15.512C2.76361 15.8006 2.94476 16.0574 3.17876 16.2604C3.58399 16.5977 4.09475 16.7821 4.62201 16.7815H12.64C13.1646 16.7847 13.6733 16.6025 14.0766 16.2671C14.3059 16.0708 14.4827 15.8205 14.5911 15.5387C14.8767 14.8231 15.0153 14.0573 14.9987 13.287V13.2403C14.9987 13.1534 14.9987 13.0598 14.9987 12.9596C14.9987 11.2696 14.3282 9.64857 13.1344 8.45228C11.9407 7.256 10.321 6.58215 8.63102 6.57861Z" stroke="#4DA530" stroke-width="1.5" stroke-miterlimit="10"/>
</svg>
