<svg width="19" height="21" viewBox="0 0 19 21" fill="none" xmlns="http://www.w3.org/2000/svg">
<path d="M1.13525 11.0913C1.13525 11.0913 4.12299 10.6124 5.88627 13.2818" stroke="#110E0E" stroke-width="1.5" stroke-miterlimit="10" stroke-linecap="round" stroke-linejoin="round"/>
<path d="M14.8819 8.33618C17.9265 12.4556 17.323 17.3471 17.323 17.3471C12.4495 21.6818 4.89463 19.3021 4.89463 19.3021C3.18799 20.7097 1.13525 20.3806 1.13525 20.3806" stroke="#110E0E" stroke-width="1.5" stroke-miterlimit="10" stroke-linecap="round" stroke-linejoin="round"/>
<path d="M4.00049 14.5308C4.00049 14.5308 5.47197 12.7346 8.92295 13.1104C12.8311 13.536 13.7229 16.7349 13.7229 16.7349" stroke="#110E0E" stroke-width="1.5" stroke-miterlimit="10" stroke-linecap="round" stroke-linejoin="round"/>
<path d="M12.772 15.0624L12.6548 10.3877" stroke="#110E0E" stroke-width="1.5" stroke-miterlimit="10" stroke-linecap="round" stroke-linejoin="round"/>
<path d="M10.8333 8.14235C11.9199 8.14235 12.8008 7.26146 12.8008 6.17481C12.8008 5.08817 11.9199 4.20728 10.8333 4.20728C9.74662 4.20728 8.86572 5.08817 8.86572 6.17481C8.86572 7.26146 9.74662 8.14235 10.8333 8.14235Z" stroke="#110E0E" stroke-width="1.5" stroke-miterlimit="10"/>
<path d="M10.8333 10.7637C13.3676 10.7637 15.4221 8.70917 15.4221 6.1748C15.4221 3.64044 13.3676 1.58594 10.8333 1.58594C8.29889 1.58594 6.24438 3.64044 6.24438 6.1748C6.24438 8.70917 8.29889 10.7637 10.8333 10.7637Z" stroke="#110E0E" stroke-width="1.5" stroke-miterlimit="10"/>
</svg>
