<svg width="14" height="15" viewBox="0 0 14 15" fill="none" xmlns="http://www.w3.org/2000/svg">
<g clip-path="url(#clip0_1219_1102)">
<path d="M3.4918 8.47363C2.72071 8.51465 2.73165 9.60293 3.51094 9.63301C4.27383 9.58926 4.27657 8.48457 3.4918 8.47363Z" fill="#61AEFF"/>
<path d="M13.4041 11.5169C14.681 9.99935 13.4916 7.8474 11.6404 7.43178C11.2221 7.3142 10.7955 7.18568 10.3662 7.05717C10.6615 6.23412 10.9596 5.41381 11.2494 4.57982C11.49 4.59896 11.6978 4.50053 11.8592 4.28724C12.1408 3.9181 12.4279 3.5681 12.7123 3.2017C13.0705 2.76146 12.7971 2.26107 12.3158 2.23373C12.015 2.21185 11.7881 2.53178 11.5857 2.79428C11.4217 3.00209 11.2521 3.21537 11.0771 3.41498C11.0553 3.43685 11.0252 3.45053 10.9951 3.45873C10.5002 3.46967 9.90135 3.46146 9.38729 3.46146C8.58338 3.41498 8.47674 4.59623 9.37909 4.59623C9.58416 4.59896 9.78924 4.59623 9.99432 4.59623C9.73455 5.31537 9.47205 6.02631 9.21502 6.75365C8.22791 6.46107 7.22166 6.16029 6.21268 5.88412C5.38416 5.64896 4.59119 5.33178 3.70252 5.27435C3.66424 5.1349 3.64237 5.03373 3.58768 4.81498C4.02791 4.9435 4.59393 5.16498 4.77713 4.56615C4.8701 4.2435 4.69783 3.95912 4.34784 3.85521C3.47284 3.59818 2.52127 3.31928 1.58338 3.05131C1.42479 3.00209 1.20877 3.01303 1.09393 3.12787C1.01463 3.2017 0.831429 3.39857 0.850569 3.631C0.86971 3.84975 1.06932 4.04662 1.24159 4.10678C1.61619 4.23256 1.99627 4.33373 2.37088 4.4349C2.43651 4.77396 2.52401 5.09662 2.60057 5.43021C0.016585 6.21224 -0.861149 9.59467 1.03651 11.5142C0.724788 11.5142 0.320101 11.4814 0.150569 11.6947C-0.199431 12.0912 0.104085 12.7037 0.653695 12.6572C4.49823 12.6544 9.52948 12.6572 13.3303 12.6544C13.5627 12.6544 13.7295 12.597 13.8471 12.4794C14.0849 12.2333 14.1205 11.5826 13.4041 11.5169ZM4.9494 11.197C4.73065 11.2025 4.50369 11.2052 4.27948 11.2052C4.01424 11.2052 3.73807 11.2025 3.4619 11.1943C3.07909 11.1751 3.03807 10.4669 3.6533 10.497L3.54393 10.3138C3.50565 10.3029 3.46463 10.2947 3.42362 10.2947C1.7994 10.1826 1.85955 7.77631 3.50018 7.74076C4.6158 7.71615 5.23104 9.17084 4.40526 9.92553C4.36151 9.95834 4.33143 10.0048 4.31502 10.0568L4.5201 10.5107C4.54198 10.5107 4.56385 10.5107 4.58846 10.5079C4.70604 10.5025 4.82088 10.5052 4.93846 10.5107C5.34315 10.5326 5.35955 11.1861 4.9494 11.197Z" fill="#61AEFF"/>
</g>
<defs>
<clipPath id="clip0_1219_1102">
<rect width="14" height="14" fill="white" transform="translate(0 0.448242)"/>
</clipPath>
</defs>
</svg>
